<?xml version="1.0" encoding="UTF-8"?>
<svg width="306px" height="118px" viewBox="0 0 306 118" version="1.1" xmlns="http://www.w3.org/2000/svg" xmlns:xlink="http://www.w3.org/1999/xlink">
    <!-- Generator: Sketch 47.1 (45422) - http://www.bohemiancoding.com/sketch -->
    <title>Page 1 Copy</title>
    <desc>Created with Sketch.</desc>
    <defs>
        <polygon id="path-1" points="0.224488971 0.108028169 162.871599 0.108028169 162.871599 77.5476991 0.224488971 77.5476991 0.224488971 0.108028169"></polygon>
    </defs>
    <g id="Page-1" stroke="none" stroke-width="1" fill="none" fill-rule="evenodd">
        <g id="Desktop-HD-Copy-12" transform="translate(-973.000000, -918.000000)">
            <g id="Page-1-Copy" transform="translate(973.000000, 918.000000)">
                <g id="Group-22">
                    <path d="M51.8688422,62.8913408 C52.8673349,62.5606085 53.4573534,61.7778197 53.9683665,60.9501577 C54.8542347,59.5158761 55.7569125,58.0998761 56.95544,56.8932845 C58.0900909,55.7515099 58.8330771,54.3205521 59.7979506,53.0541296 C60.8351056,51.6929746 61.6251588,50.1074535 62.6118848,48.7280169 C64.1180288,46.6222986 65.3031086,44.2622986 67.2294937,42.4540732 C67.6581396,42.0518761 68.0262707,41.6912282 68.7406805,42.1000732 C69.3340609,42.4407775 69.5324147,42.7432563 69.3626373,43.3980732 C68.9423963,45.0334535 68.4061687,46.6090028 67.5522388,48.0881577 C67.027778,48.9922704 66.6882232,50.0010873 66.2696631,50.965031 C66.2158722,51.0880169 66.1889768,51.2442423 66.3335397,51.315707 C66.4394405,51.3672282 66.6125798,51.4037915 66.6999899,51.3522704 C66.9286011,51.2193127 67.1319977,51.0431437 67.3337135,50.8686366 C69.142431,49.2964113 70.9578724,47.7524394 73.000244,46.4511155 C74.4862164,45.5054535 75.7267681,44.1841859 77.0732204,43.0274535 C77.1723973,42.942693 77.232912,42.8113972 77.3337699,42.7249746 C78.4919543,41.7277915 79.2467072,41.9006366 79.8350447,43.3066648 C80.1796424,43.2518197 80.529283,43.1437915 80.8755616,43.1537634 C81.753025,43.1803549 81.8723734,43.5393408 81.7328534,44.413538 C81.4319608,46.2915662 80.1477041,47.6394254 79.2752836,49.2099887 C78.0717132,51.375538 76.8328426,53.5194817 75.6763391,55.7132845 C74.8106425,57.3519887 73.9936939,59.0222704 73.190193,60.6825803 C72.2673436,62.585538 71.3797945,64.5150873 70.5140979,66.4496225 C70.4300496,66.6374254 70.4720737,66.8800732 70.5426742,67.1426648 C71.4638427,66.0723549 72.43544,65.1283549 73.0220965,63.7406085 C73.7096109,62.1052282 74.5383263,60.4831437 75.7015536,59.0555099 C76.7017273,57.8273127 77.3808369,56.3730873 78.1170993,54.9637352 C78.644922,53.9499324 79.1878735,52.9361296 79.8972404,52.0070873 C81.2420118,50.2487211 82.4825635,48.4105803 83.7651392,46.6056789 C83.918107,46.3879606 84.0340935,46.1336789 84.2257234,45.9558479 C85.2864119,44.9586648 86.3353336,43.9465239 87.4481319,43.0091718 C88.3037427,42.289538 89.1963348,42.6983831 89.3173642,43.8218761 C89.4350317,44.9088056 89.0332812,45.9176225 88.762646,46.9413972 C88.6634691,47.3120169 88.3726623,47.6543831 88.7458363,48.1978479 C89.6367474,47.0643831 90.5562349,46.010693 91.3294784,44.8622704 C91.8001484,44.1609183 92.3565476,43.531031 92.8305795,42.8346648 C93.2878018,42.1632282 94.030788,41.9571437 94.5754204,42.2130873 C95.11501,42.467369 95.39405,43.0224676 95.2242726,43.8102423 C94.7973077,45.7846648 94.2425895,47.7125521 93.2474587,49.5091437 C92.8625178,50.2088338 92.3296522,50.9118479 92.3178854,51.7577915 C92.7414884,51.9771718 92.8927752,51.6962986 93.0625526,51.5201296 C94.1753509,50.3700451 95.299916,49.2299324 96.3706903,48.0449465 C96.7690788,47.602862 97.2515156,47.2887493 97.7104188,46.9463831 C98.6568017,46.243369 99.5746082,46.6222986 99.7964955,47.7723831 C99.8805437,48.2094817 99.8435625,48.6565521 99.6805089,49.0836789 C99.4283643,49.7451437 99.2216057,50.4298761 98.9156702,51.0664113 C98.2449654,52.4657915 97.6179658,53.8834535 96.99769,55.3044394 C96.4715481,56.509369 95.6714091,57.5979606 94.9771709,58.7297634 C94.7754552,59.0604958 94.5081819,59.3563268 94.5149057,59.934693 C95.346983,59.6122704 95.868082,59.3097915 96.337071,58.513707 C97.2229392,57.0046366 98.2802657,55.5587211 99.5695653,54.3222141 C99.7292569,54.1693127 99.9393774,54.031369 100.020064,53.8435662 C100.964766,51.6314817 102.923089,50.1589746 104.207346,48.1995099 C105.33023,46.4860169 106.875036,45.0999324 107.984472,43.3814535 C108.313941,42.8695662 108.776207,42.7515662 109.251919,42.9543268 C109.774699,43.177031 110.058782,43.6407211 109.925986,44.2523268 C109.710823,45.2511718 109.120804,46.0971155 108.720735,47.0195099 C108.268555,48.0632282 107.816376,49.1252282 107.14399,50.0725521 C106.955722,50.3384676 106.705259,50.6625521 107.034728,51.0996507 C107.63147,50.3949746 108.340837,49.7750592 108.771164,49.0022423 C109.623413,47.4732282 110.848836,46.2649746 112.030553,45.0251437 C112.696215,44.3271155 113.48963,43.7138479 114.560405,43.6722986 C115.849704,43.6207775 116.747339,44.5082704 116.475023,45.7497634 C116.271626,46.6754817 116.276669,47.5928901 116.22624,48.5186085 C116.111935,48.5568338 116.091763,48.5933972 116.169087,48.606693 C116.179173,48.6083549 116.202707,48.5452 116.219516,48.5119606 C117.071765,48.2959042 117.540754,47.5978761 118.011424,46.9812845 C119.072113,45.5885521 120.354689,44.4368056 121.746527,43.3997352 C122.427317,42.8928338 123.193837,42.5488056 124.106601,42.8629183 C125.022726,43.1803549 125.142075,43.3033408 125.177375,44.2839042 C125.189142,44.6295944 125.179056,44.9752845 125.179056,45.3342704 C125.636278,45.360862 125.700155,44.9985521 125.863208,44.7642141 C127.029798,43.0906085 128.255221,41.4519042 129.223456,39.6536507 C129.91097,38.3789183 130.500989,37.0510028 131.13135,35.7463549 C131.245656,35.508693 131.312895,35.2361296 131.472586,35.033369 C131.633959,34.8306085 131.889465,34.677707 132.180272,34.7425239 C132.482846,34.8090028 132.600513,35.0599606 132.639175,35.3325239 C132.709776,35.8161577 132.748438,36.3047775 132.541679,36.7717915 C131.733136,38.5933127 131.151522,40.5012563 130.29423,42.3061577 C129.319271,44.3620169 127.883727,46.1137352 126.628047,47.9851155 C125.816141,49.195031 125.059708,50.4431718 124.239397,51.6481014 C122.237368,54.5814817 120.302579,57.5630592 118.729196,60.7374254 C117.966038,62.2764113 117.093618,63.7738479 116.496876,65.4025803 C116.148916,66.3515662 115.64967,67.250693 115.179,68.1531437 C115.019308,68.4589465 114.770525,68.7414817 114.504933,68.9691718 C114.025858,69.374693 113.408944,69.1885521 113.2627,68.5885803 C113.007194,67.5398761 113.050899,66.5177634 113.545102,65.5106085 C114.686477,63.1805239 115.898452,60.8870028 116.78432,58.4339324 C117.218009,57.2373127 117.974443,56.157031 118.5611,55.0119324 C119.399901,53.3699042 120.11263,51.6547493 121.077503,50.0908338 C121.818808,48.8925521 122.124744,47.5812563 122.575242,46.301538 C122.632395,46.1370028 122.671057,45.9558479 122.479427,45.7165239 C121.815446,46.186862 121.117846,46.6455662 120.616919,47.2870873 C119.273828,49.0088901 117.520583,50.3633972 116.22624,52.1201014 C114.550319,54.3903549 112.618891,56.4628338 111.393468,59.0737915 C110.349589,61.2991718 109.285539,63.5478197 107.66677,65.480693 C107.142309,66.1089183 106.906974,66.9714817 106.520353,67.717707 C106.116921,68.4955099 105.589098,68.8461859 105.110024,68.6849746 C104.45949,68.4672563 104.084635,67.5764394 104.345185,66.8069465 C104.457809,66.4728901 104.607415,66.1471437 104.768788,65.831369 C105.31342,64.767707 105.979082,63.765538 106.369066,62.6237634 C106.663235,61.7645239 107.340663,61.1429465 107.885296,60.4482423 C109.161147,58.8228338 109.855386,56.8899606 110.85724,55.1199606 C111.383382,54.1942423 111.892714,53.2652 112.084344,52.201538 C112.123006,51.9871437 112.159988,51.7179042 112.30287,51.5816225 C113.45433,50.4813972 113.45433,48.8692845 114.150249,47.5696225 C114.296493,47.2953972 114.155292,47.0361296 113.968705,46.8499887 C113.711518,46.5940451 113.437521,46.8067775 113.255976,46.9646648 C112.555014,47.5746085 111.823795,48.2294254 111.319506,48.9490592 C110.554667,50.0393127 109.559536,50.9317915 108.872022,52.0852 C107.880253,53.7521577 106.713663,55.3144113 105.646251,56.9381577 C104.867965,58.1231437 104.087997,59.3114535 103.381992,60.5396507 C102.395266,62.2581296 101.423669,63.9882423 100.561334,65.7682141 C100.225141,66.4612563 99.771281,67.0462704 99.3644877,67.6744958 C99.0013994,68.2362423 98.4181048,68.3475944 97.8180005,68.2013408 C97.1674673,68.0417915 97.1304861,67.4700732 97.090143,66.9249465 C97.0397141,66.2485239 97.0632476,65.538862 97.4448265,64.9937352 C98.5223246,63.4464394 98.9963565,61.6398761 99.7780049,59.9679324 C100.65883,58.0865803 101.49595,56.1869465 102.566725,54.4003268 C102.706245,54.1659887 102.857531,53.8917634 102.544872,53.7189183 C102.316261,53.5926085 102.099417,53.8153127 101.993516,53.9931437 C101.104286,55.4739606 99.8082622,56.6556225 98.924075,58.1480732 C98.4769385,58.9026085 97.8482579,59.5607493 97.2515156,60.2155662 C96.6614971,60.8620732 95.962216,61.3706366 95.7050284,62.3113127 C95.5419749,62.9096225 94.8141174,63.2403549 94.3854715,63.7522423 C93.279397,65.0818197 92.6305448,66.7537634 91.2034061,67.839031 C90.7159265,68.2096507 90.3192189,68.8412 89.6132139,68.5786085 C88.8702277,68.3010592 89.0282383,67.5731155 89.0198335,66.9598479 C89.0063858,66.1155662 89.2652543,65.3842986 89.5812756,64.5799042 C89.9998357,63.5195662 90.5797684,62.5406648 91.0067333,61.4902986 C91.4370601,60.4366085 92.1783654,59.5108901 92.7280407,58.4987493 C93.6105469,56.8750028 94.5838253,55.2977915 95.2847874,53.5776507 C95.5537416,52.9178479 96.2698324,52.4392 96.1370362,51.4686085 C94.691407,52.8031718 93.5449893,54.2557352 92.3094806,55.626862 C90.2788758,57.8804958 88.5693351,60.3734535 87.021167,62.9561577 C86.269776,64.2076225 85.3839078,65.3693408 84.6863076,66.6523831 C84.2240425,67.5033127 83.6693242,68.3043831 83.1683969,69.137031 C83.023834,69.3763549 82.8389279,69.5525239 82.5918261,69.6721859 C82.0404699,69.9397634 81.6219098,69.7370028 81.5092852,69.1320451 C81.3815319,68.4439887 81.610143,67.8074535 81.9026308,67.2091437 C82.6204025,65.7432845 83.3465791,64.2807493 84.1315894,62.8514535 C84.4123105,62.3395662 84.5904927,61.7911155 85.2124494,61.405538 C85.7251435,61.0864394 85.8495349,60.1939606 86.0663793,59.5607493 C86.3992102,58.5868338 86.9034995,57.7010028 87.4178746,56.8600451 C88.8786325,54.4784394 89.6653238,51.7744113 91.1899584,49.4343549 C91.3160307,49.2415662 91.4589127,49.018862 91.2000442,48.8709465 C90.9831998,48.7479606 90.7798031,48.8925521 90.6503689,49.1052845 C89.7056669,50.6625521 88.5592493,52.083538 87.4346842,53.5095099 C84.8039751,56.8500732 82.9666812,60.6077915 81.1260253,64.4004113 C80.3460579,66.0058761 79.4585087,67.601369 78.5793644,69.1785803 C78.3070482,69.668862 77.9490028,69.9381014 77.3825179,69.7419887 C76.9185717,69.5807775 76.5706121,68.7946648 76.7689659,68.2777915 C77.2883839,66.9149746 77.7287965,65.5056225 78.4163109,64.2275662 C79.7375488,61.7728338 80.9562479,59.2665803 82.2741239,56.8101859 C83.070901,55.327707 83.8592732,53.8419042 84.528297,52.3029183 C85.1418489,50.8885803 85.5435994,49.3861577 86.4126579,48.0798479 C86.646312,47.7275099 86.6009259,47.3153408 86.6009259,46.9164676 C86.7202744,46.8765803 86.740446,46.8383549 86.6580787,46.8217352 C86.6479929,46.8184113 86.6227785,46.8848901 86.6059688,46.9197915 C85.6495002,47.2588338 85.281369,48.1629465 84.7081602,48.8642986 C82.7733703,51.2342704 81.3916177,53.9732 79.587943,56.4345803 C78.8869809,57.393538 78.4499302,58.5303268 77.8515069,59.5640732 C77.5556572,60.0742986 77.1169255,60.4249746 76.81099,60.9102704 C75.446047,63.0841296 74.3685489,65.4142141 72.9649438,67.5697915 C72.3144106,68.5686366 71.5949579,69.3780169 70.5006501,69.8782704 C69.8568408,70.1724394 69.4634952,70.0444676 69.0197206,69.4843831 C68.485174,68.8112845 68.2229436,68.2345803 68.4700453,67.3221577 C68.67008,66.5809183 69.1592407,65.7582423 68.5977986,64.8109183 C67.8682601,65.6585239 67.0950165,66.3881296 66.5302125,67.2540169 C65.7754596,68.4090873 64.8374815,69.4278761 64.1230717,70.6028901 C63.5364152,71.5684958 62.6673566,72.2781577 61.9041989,73.0842141 C61.5007674,73.5096789 61.003202,73.7091155 60.4451219,73.504693 C59.8702321,73.2919606 59.7088595,72.7451718 59.6668354,72.206693 C59.6365781,71.8161296 59.6180874,71.3640732 59.7828219,71.0300169 C60.816615,68.9309465 61.5596012,66.7122141 62.6606328,64.6314254 C63.2859515,63.4464394 63.9499324,62.2115944 64.2878062,60.8637352 C64.435731,60.2770592 64.766881,59.7252845 65.0711355,59.1868056 C65.89817,57.7176225 66.1637623,56.0124394 67.0983785,54.6014254 C66.8159765,54.2972845 66.6243465,54.4452 66.4175879,54.6579324 C65.2140175,55.8927775 64.0003613,57.1193127 62.7967909,58.3541577 C62.6438231,58.5103831 62.5009412,58.6898761 62.3984023,58.8826648 C61.236856,61.0631718 60.1358244,63.2785803 58.9137634,65.4275099 C57.5152011,67.8872282 56.392317,70.4865521 54.8794492,72.8947493 C53.5666161,74.9838479 52.57989,77.2707211 51.3443813,79.4113408 C50.4854086,80.8988056 49.7928513,82.469369 48.8868115,83.9418761 C48.1959352,85.067031 47.6109596,86.3135099 47.0680082,87.5533408 C46.6343194,88.5388901 46.230888,89.5393972 45.5585023,90.4418479 C44.9684838,91.2362704 44.5768191,92.203538 44.0977443,93.0943549 C42.7664206,95.5723549 41.9780484,98.3262423 40.1861405,100.571566 C39.5877172,102.57258 38.3085034,104.259482 37.5554314,106.202327 C36.9368365,107.794496 36.069459,109.308552 35.173505,110.774411 C34.1598835,112.433059 33.5160742,114.29613 32.255351,115.808524 C31.7712333,116.388552 31.2921585,116.973566 30.7845073,117.531989 C30.3911616,117.964101 29.8532531,118.03889 29.2985349,117.984045 C28.634554,117.919228 28.4227525,117.671594 28.5589106,117.021763 C28.8480364,115.640665 29.1085859,114.25458 29.3590496,112.870158 C29.572532,111.686834 29.8061861,110.332327 30.8097218,109.389989 C31.0517806,109.163961 31.1492765,108.871454 31.1324669,108.545707 C31.0618664,107.114749 31.5577509,105.75858 31.6804612,104.354214 C31.7107186,104.026806 31.8132574,103.7692 32.0435495,103.528214 C32.2923322,103.267285 32.3915091,102.931566 32.4755573,102.574242 C32.8050263,101.178186 33.0437233,99.7671718 33.8892483,98.515707 C34.2926797,97.9190592 34.4321998,97.1130028 34.5565911,96.3784113 C34.701154,95.5341296 35.0121324,94.7812563 35.3651349,94.0117634 C35.6223225,93.4500169 36.303113,93.0062704 36.0039014,92.2417634 C35.9921346,92.2085239 36.0106252,92.1320732 36.0375206,92.1171155 C37.0477802,91.5686648 36.8796837,90.3803549 37.3520347,89.5393972 C37.7806806,88.7732282 38.1336831,87.8574817 38.4950904,87.0015662 C39.1120043,85.5423549 39.8028806,84.1047493 40.5794861,82.7203268 C42.2654933,79.7138197 44.6356529,77.1161577 46.0022768,73.9152 C46.1653304,73.5346085 46.4880755,73.2936225 46.7738394,73.0127493 C48.7741869,71.0433127 50.4770037,68.8245803 52.1848634,66.6141577 C52.2554639,66.5227493 52.2470591,66.3731718 52.2722736,66.2651437 C52.062153,66.0773408 51.8469896,66.0939606 51.6183785,66.125538 C50.1576205,66.3183268 49.1893851,65.4524394 49.4885967,64.0862986 C49.8634518,62.3794535 49.9222855,60.5546085 51.1056844,59.0970592 C51.1443465,57.5996225 52.2403353,56.5808338 52.8387585,55.3343549 C53.3447288,54.2839887 54.1936157,53.443031 54.697905,52.4325521 C55.6560547,50.5146366 57.2479278,48.8908901 57.521925,46.6505521 C57.6479973,46.6106648 57.6681689,46.5724394 57.5824397,46.5508338 C57.570673,46.5491718 57.5437775,46.6173127 57.523606,46.6522141 C57.1201745,46.6704958 56.9251827,46.9380732 56.6898477,47.2305803 C54.9719022,49.3761859 53.1867181,51.4652845 51.3158049,53.4829183 C48.1858494,56.8583831 45.7803896,60.6825803 44.0590821,64.9322423 C43.7766801,65.6286085 43.4673827,66.3166648 43.1816188,67.013031 C42.9933508,67.4700732 42.7143107,67.8091155 42.1713593,67.6346085 C41.6603461,67.4684113 41.386349,67.1243831 41.430054,66.5293972 C41.5779789,64.4951437 42.2419598,62.643707 43.4102299,60.9767493 C44.2742456,59.7402423 44.7785349,58.2959887 45.6694459,57.0927211 C46.6259146,55.803031 47.1755899,54.3006085 48.0093482,52.9461014 C48.6346669,51.9273127 49.1137417,50.7788901 49.8584089,49.8099606 C50.2920977,49.2482141 50.2214972,48.5618197 50.5055801,47.9552 C51.3847244,46.0771718 52.5412279,44.3304394 53.1883991,42.347707 C53.3245572,41.9288901 53.5161871,41.5183831 53.4825679,41.0596789 C53.6019163,41.0197915 53.6220879,40.9832282 53.5397206,40.9666085 C53.5296349,40.9632845 53.5044204,41.0297634 53.4859298,41.0630028 C52.9480212,41.0945803 52.5748471,41.4519042 52.2386543,41.7876225 C50.6652717,43.351538 49.1692135,45.0168338 47.9437906,46.8383549 C46.8158635,48.5119606 45.6912985,50.2104958 44.4675565,51.791031 C42.6151338,54.1826085 41.0131749,56.7370592 39.1926906,59.1469183 C37.8008522,60.9900451 36.4073328,62.8165521 34.795288,64.4752 C34.1027308,65.1881859 33.292506,65.7083831 32.349485,66.0607211 C30.7945931,66.6407493 29.2951729,66.0241577 28.632873,64.4884958 C28.5303342,64.2508338 28.399219,64.0264676 28.258018,63.7505803 C26.8577747,64.3123268 25.8626439,65.3527211 24.7313549,66.187031 C23.0873719,67.3986085 21.5139893,68.6899606 19.6313093,69.5591718 C18.5084252,70.077707 17.4174794,70.5231155 16.1786087,70.0710592 C15.506223,69.8250873 14.9582287,69.9779887 14.4690681,70.4582986 C14.4051914,70.5214535 14.3429957,70.6195099 14.2690333,70.6311437 C12.6536267,70.903707 12.0367128,72.2449183 11.2332118,73.3883549 C10.5944454,74.2957915 9.94559321,75.1949183 9.30850775,76.1023549 C9.07821565,76.4314254 8.82270908,76.7704676 8.81766618,77.1793127 C8.80926136,77.7709746 8.66301747,78.2080732 8.01752719,78.3925521 C7.66956759,78.4906085 7.70991073,78.9044394 7.55021912,79.1620451 C6.99886284,80.0578479 6.47104006,80.0844394 5.80201628,79.2484676 C4.94136257,78.1715099 5.25234096,77.0496789 5.77848278,76.0026366 C6.25587663,75.0486648 6.64586035,74.1927493 5.94489824,73.1673127 C5.60870539,72.673707 5.71460614,72.0421577 5.91295992,71.4887211 C6.35673449,70.2522141 6.88623824,69.075538 7.53340948,67.9038479 C8.47474947,66.1986648 9.42449429,64.4668901 10.1674805,62.6387211 C10.9323192,60.757369 11.9392168,58.9724113 12.8065944,57.1309465 C13.86224,54.8856225 14.9767193,52.6668901 16.0407697,50.4282141 C16.6778551,49.0870028 16.8140132,47.5313972 17.8478063,46.359707 C18.0982699,46.0755099 18.2092136,45.6467211 18.3218382,45.2677915 C18.7925082,43.6939042 19.6413951,42.3194535 20.5289443,40.9566366 C21.011381,40.2170592 21.4047267,39.4193127 21.8165629,38.6365239 C22.001469,38.2858479 21.9947451,37.8902986 21.5694612,37.7407211 C20.8886706,37.5030592 20.2751187,37.2172 20.3474001,36.389538 C20.4196816,35.566862 20.8382417,34.8788056 21.5459277,34.4300732 C22.374643,33.9048901 23.1983155,33.3364958 24.0993124,32.970862 C25.4861079,32.4074535 26.3686141,31.3354817 27.0225092,30.1471718 C28.0411736,28.2973972 29.2212105,26.5689465 30.4651241,24.8704113 C30.5407675,24.767369 30.5777487,24.6277634 30.6063251,24.4997915 C31.0383329,22.6034817 32.5562436,21.6412 34.0203635,20.640693 C34.5734008,20.2634254 35.3718588,20.3149465 35.7433519,20.758693 C36.1837645,21.2838761 36.1299737,21.8921577 35.6609846,22.3176225 C35.0440708,22.877707 35.2491484,23.6438761 35.0003657,24.2887211 C34.8490789,24.6792845 35.2323388,24.8272 35.5786174,24.7806648 C36.0341587,24.7208338 36.4325472,24.4848338 36.7384827,24.1541014 C37.4629783,23.3696507 38.3572513,22.8112282 39.1960525,22.1680451 C40.9207218,20.8467775 42.5966432,19.4191437 43.9868007,17.7222704 C45.2475239,16.1832845 46.5065661,14.6426366 47.7185414,13.0637634 C48.4363131,12.1280732 48.9187499,11.0411437 49.5054064,10.0223549 C50.0517198,9.07336901 50.4131271,8.0180169 51.1275369,7.16210141 C51.3527861,6.8912 51.6519978,6.5903831 51.4754965,6.21976338 C51.2552902,5.75607324 50.7678106,5.92227042 50.3963174,5.95384789 C49.9105188,5.99705915 49.4179962,6.09677746 48.9540501,6.2480169 C46.5317806,7.04077746 44.0742108,7.74711549 41.759523,8.82573521 C40.068473,9.61517183 38.2379029,10.075538 36.6241772,11.0361577 C34.6372774,12.2194817 32.633568,13.3728901 30.6634779,14.5861296 C27.5553749,16.4990592 24.5195534,18.5366366 21.6837667,20.8201859 C19.9675022,22.2046085 18.3403288,23.7253127 16.8493135,25.3756507 C15.0052957,27.4148901 13.2301974,29.4973408 11.5727666,31.6961296 C10.4599683,33.1752845 9.04459636,34.4267493 8.06459419,36.0338761 C7.0291202,37.7307493 5.79697339,39.3096225 4.91951004,41.1045521 C4.89933847,41.1444394 4.87580497,41.1810028 4.85731436,41.2225521 C4.56482658,41.880693 4.67913215,42.6501859 4.46733065,43.2568056 C4.30595808,43.7171718 3.56465284,44.004693 3.1713072,44.591369 C2.46698317,45.6384113 2.89899098,46.3796507 3.44530437,47.1424958 C3.68904419,47.484862 4.01515126,47.6776507 3.68232033,48.1380169 C3.37638484,48.5634817 3.09398284,48.9440732 2.49051667,48.6282986 C2.41487327,48.5884113 2.32073927,48.5751155 2.23332913,48.5584958 C0.35569204,48.1995099 -0.827706807,47.2305803 0.700289716,44.8838761 C0.954115321,44.4933127 1.00286329,44.0562141 1.15919296,43.650693 C1.89377435,41.7394254 3.21165034,40.1555662 4.11769008,38.3440169 C4.74973265,37.0825803 5.38849907,35.8244676 6.00205103,34.5530592 C6.13652817,34.2738479 6.27941013,34.0195662 6.46599717,33.7652845 C7.28966966,32.6384676 7.92675512,31.3371437 8.90843826,30.3732 C9.68504375,29.6103549 10.2296762,28.8009746 10.6465553,27.8486648 C10.7390083,27.6359324 10.9205525,27.4946648 11.132354,27.4099042 C12.2048092,26.9844394 12.7628893,26.1252 13.1411063,25.1080732 C13.1864923,24.9850873 13.247007,24.8604394 13.3310553,24.7623831 C13.8706448,24.1358197 14.7195317,23.7103549 15.1128774,23.1070592 C15.5700997,22.409031 16.0458126,21.8406366 16.728284,21.4450873 C17.3603266,21.0777915 17.7082862,20.4412563 18.1016319,19.9260451 C18.4142912,19.515538 18.6664359,19.1764958 19.1438297,19.0618197 C19.9910357,18.8573972 20.3961481,18.1061859 21.0265097,17.6358479 C21.3458929,17.3981859 21.5728231,17.0741014 22.0720695,17.2452845 C22.5074392,17.3932 22.8285034,17.0475099 23.1428437,16.8131718 C24.4237385,15.8625239 25.812215,15.0564676 26.9989757,13.9761859 C27.3200399,13.6836789 27.7621335,13.5108338 28.1689269,13.3296789 C29.9171297,12.553538 31.5140458,11.4998479 33.1765194,10.5807775 C34.0674305,10.0888338 34.8759743,9.33097465 35.7887379,8.79415775 C37.1335093,8.00139718 38.5875434,7.43798873 40.0600681,6.93441127 C43.0572274,5.91063662 46.0560677,4.8852 49.0784415,3.93621408 C49.9575858,3.66032676 50.9157354,3.56559437 51.8436277,3.5223831 C53.5867876,3.43928451 54.4709748,4.76055211 53.944833,6.58539718 C53.5111442,8.09446761 52.9328925,9.53041127 51.8957376,10.7602704 C50.9241402,11.9153408 50.3273979,13.3130592 49.4566584,14.5429183 C48.4648895,15.9439606 47.4344584,17.2918197 46.2729121,18.5665521 C45.3904058,19.5371437 44.4053608,20.4146648 43.5783264,21.4351155 C43.3245008,21.7508901 43.0017556,21.9819042 42.6672437,22.2112563 C40.7206871,23.5491437 39.0077845,25.1745521 37.1435951,26.6088338 C35.8895958,27.5744394 34.7566259,28.6995944 33.3513397,29.4690873 C32.6066726,29.8795944 31.8838579,30.3250028 31.2938395,30.9432563 C31.078676,31.1692845 30.5273198,31.2424113 30.8046789,31.731031 C31.0131184,32.0966648 31.3543542,32.3276789 31.8199813,32.1797634 C32.8722649,31.8440451 33.9548059,32.0202141 35.0238992,31.9902986 C36.2963891,31.9553972 37.4108684,32.4739324 38.2395838,33.3398197 C38.9657604,34.1010028 39.0430848,35.1480451 38.7707685,36.1950873 C38.1437689,38.6199042 37.0023941,40.7937634 35.6979659,42.9277352 C35.1297999,43.8567775 34.6305535,44.8905239 34.0220445,45.771369 C32.7898977,47.5563268 32.0721259,49.6387775 30.6399444,51.2891155 C30.2886228,51.6929746 30.09195,52.2032 29.8515721,52.6535944 C28.7471786,54.7194254 27.12841,56.4295944 25.9298825,58.4339324 C25.1247006,59.7801296 23.8975967,60.8803549 22.8520369,62.0836225 C21.1962871,63.9882423 19.5321325,65.8878761 17.8780636,67.7958197 C17.8377205,67.8423549 17.8730207,67.9520451 17.8730207,68.075031 C19.0496957,67.9919324 19.9590974,67.3321296 20.7928557,66.6241296 C22.1561177,65.4673972 23.7295002,64.6114817 25.1213387,63.4896507 C26.0996599,62.7018761 26.9771232,61.8143831 27.8680343,60.9518197 C28.3655997,60.4731718 28.5068007,59.6322141 28.8060123,58.9541296 C29.4531836,57.4949183 30.0986739,56.035707 30.7458451,54.5764958 C30.892089,54.2474254 31.1022095,53.9665521 31.3829306,53.7305521 C31.549346,53.5909465 31.8216622,53.4247493 31.8250242,53.2652 C31.8485577,52.263031 32.6402918,51.6231718 32.9714418,50.7655944 C33.5295219,49.3180169 34.6809825,48.2061577 35.3970733,46.833369 C36.0728209,45.537031 37.1587238,44.5049465 37.9773534,43.3266085 C38.8665835,42.0485521 39.8583524,40.8619042 40.8871026,39.7350873 C41.9629197,38.5567493 42.8168495,37.1457352 44.2019641,36.2482704 C44.2759265,36.2000732 44.3566128,36.1369183 44.393594,36.0621296 C45.2155856,34.4367211 47.0041315,34.1724676 48.3690745,33.3198761 C48.9187499,32.9758479 50.5728187,33.4013127 51.0838318,33.8932563 C51.8570754,34.6394817 52.1546061,35.4555099 51.7394079,36.5208338 C51.1426656,38.0548338 50.2349449,39.3661296 49.098613,40.5394817 C49.0364174,40.6026366 48.9759026,40.6757634 48.9439643,40.755538 C48.2161068,42.4922986 46.6763435,43.5526366 45.4408348,44.8655944 C44.3633367,46.010693 43.3698868,47.2106366 42.420142,48.4687493 C41.2804482,49.9828056 39.8869288,51.3107211 38.5993102,52.7150873 C37.7739567,53.617538 36.9570081,54.5282986 36.1064402,55.4058197 C35.2088053,56.331538 34.3044465,57.2555944 33.3446159,58.1164958 C32.6739111,58.7197915 32.1393645,59.4144958 31.6300323,60.1391155 C31.3493113,60.5379887 31.0938047,60.9401859 30.705502,61.2659324 C30.0616927,61.8093972 30.0213495,62.5805521 30.1255693,63.3417352 C30.1961698,63.8619324 30.6685208,64.119538 31.0988476,64.1145521 C31.8939437,64.1062423 32.7445116,64.0347775 33.2050958,63.2303831 C33.3614255,62.9578197 33.4874978,62.7052 33.7547712,62.5090873 C35.4777595,61.2443268 36.5350861,59.4394254 37.6495654,57.6960169 C38.2261361,56.7919042 38.9186934,55.9958197 39.6028459,55.1814535 C40.2231217,54.443538 40.7358158,53.6142141 41.3661774,52.8846085 C42.8958549,51.1146085 43.7245703,48.8992 45.2256713,47.1042704 C47.0629653,44.9054817 48.7187151,42.5571155 50.604757,40.4032 C51.3964912,39.5007493 52.5042466,38.7861014 53.711179,38.4188056 C55.2929664,37.9351718 56.2561589,38.8692 55.8846658,40.522862 C55.4560199,42.4357915 54.7029479,44.240693 53.7044551,45.9242704 C53.3514526,46.5192563 53.2321042,47.1292 52.9782786,47.898693 C53.7817795,47.7225239 54.1213343,47.190693 54.4474413,46.7286648 C55.3232237,45.4954817 56.249435,44.3088338 57.3269331,43.2418479 C57.5168821,43.0540451 57.663126,42.8080732 57.8816514,42.6668056 C58.4514982,42.3011718 59.0516025,41.997031 59.7508836,42.3842704 C60.4652934,42.7814817 60.7829957,43.4595662 60.6417947,44.1725521 C60.3375402,45.7181859 60.1223767,47.2937352 59.1659081,48.6582141 C58.6666617,49.3712 58.3859406,50.2321014 57.994276,51.0198761 C57.8379463,51.3323268 57.711874,51.8807775 57.3874479,51.8309183 C56.3990409,51.6846648 56.4948558,52.2879606 56.392317,52.9062141 C56.2746495,53.617538 55.5484729,53.0757352 55.2089182,53.3133972 C55.1164651,53.559369 55.2122801,53.7039606 55.3719717,53.8053408 C55.7417838,54.0363549 55.9283709,54.2823268 55.4627438,54.5997634 C55.2677519,54.7327211 55.1568083,54.9022423 55.1097413,55.1349183 C54.7348862,56.9913408 53.6489833,58.518693 52.7748819,60.1507493 C52.3227025,60.995031 51.8520325,61.8758761 51.8688422,62.8913408 L51.783113,62.9461859 L51.8200942,62.9794254 L51.8688422,62.8913408 Z M21.8619489,54.5897915 C21.0517242,54.5947775 20.5743303,54.9936507 20.2767996,55.6468056 C19.601052,57.1292845 18.9975858,58.6533127 18.2008087,60.0709746 C17.4679083,61.3772845 17.0493482,62.8448056 16.071027,64.0281296 C15.7987108,64.3572 15.600357,64.7810028 15.5785045,65.244693 C15.5650568,65.5455099 15.6928101,65.7399606 15.9567214,65.8828901 C16.2256757,66.0291437 16.4761394,66.0391155 16.6929838,65.8263831 C17.1670157,65.362693 17.6578573,64.9106366 18.0848222,64.4087211 C19.7506578,62.4492563 21.4299411,60.5014254 23.033581,58.4954254 C24.3615428,56.8367775 25.6071373,55.1066648 26.8409651,53.3798761 C27.7570906,52.0984958 28.7387738,50.8387211 29.3943498,49.3645521 C29.9272155,48.1679324 30.6937352,47.071031 31.3862925,45.9492 C32.2469462,44.5581296 33.0168278,43.115538 33.8657148,41.7211437 C34.4893525,40.697369 35.0457517,39.6686085 35.4054781,38.5351437 C35.4861644,38.280862 35.5449981,38.0432 35.7349471,37.8288056 C36.2510031,37.2437915 36.3905231,36.4925803 36.6258581,35.7795944 C36.82085,35.1846085 36.6090485,34.8821296 36.0929925,34.6145521 C34.6456822,33.8666648 33.1412192,34.1126366 31.6350752,34.3021014 C30.2583655,34.4749465 29.528827,35.4372282 28.8547603,36.5025521 C28.1571601,37.6027775 28.0008305,38.8974535 27.4427503,40.0541859 C27.0191473,40.933369 26.3349949,41.6928901 26.1030218,42.643538 C25.7248048,44.1908338 25.0541001,45.6433972 24.4102908,47.0627211 C23.4756746,49.1202423 22.9612996,51.3522704 21.7426005,53.2818197 C21.4618794,53.7255662 21.5997185,54.1011718 21.8619489,54.5897915 L21.8619489,54.5897915 Z M56.2679256,65.9593408 C54.8945778,66.6507211 54.0961198,67.8938761 53.2354661,69.0439606 C52.063834,70.6062141 50.8753923,72.1485239 49.570964,73.6077352 C48.6262621,74.6647493 47.6059168,75.6935099 46.9402549,76.9499606 C45.3198053,80.0013408 43.1883427,82.7519042 41.6704319,85.8614535 C40.8383546,87.5682986 39.6028459,89.1288901 39.0464467,90.9072 C38.0798922,94.0051155 36.113164,96.7955662 36.067778,100.177679 C36.066097,100.25413 36.0072633,100.340552 35.9534724,100.405369 C34.5918914,102.029115 34.1111356,104.058383 33.6942564,106.004552 C33.4135354,107.319172 32.7192972,108.444327 32.4856431,109.737341 C32.4083188,110.162806 31.7073567,110.634806 32.2637558,110.962214 C32.680635,111.206524 33.0185088,110.488552 33.4051306,110.222637 C33.5043075,110.154496 33.5463316,109.999932 33.6068463,109.881932 C34.4977574,108.156806 35.4189258,106.446637 36.2678127,104.701566 C37.0007132,103.197482 37.4697022,101.533848 38.3875087,100.156073 C39.5524169,98.4043549 40.1289877,96.4016789 41.2081667,94.6316789 C41.8452522,93.5846366 42.465528,92.5226366 43.0202462,91.4323831 C43.5833693,90.3288338 44.301141,89.2884394 44.7751729,88.1682704 C45.4626873,86.5412 46.1535636,84.9373972 47.1386087,83.4648901 C47.8950426,82.3347493 48.1455063,80.9719324 48.8884925,79.8218479 C49.2381331,79.2800451 49.429763,78.6219042 49.8147038,78.0701296 C50.3979984,77.2324958 51.0821509,76.4264394 51.4721346,75.5023831 C51.9528904,74.3655944 52.5580375,73.2886366 53.1581417,72.2366085 C54.0120716,70.7424958 54.6541999,69.1436789 55.5636016,67.6761577 C55.8678562,67.1858761 56.1872394,66.6291155 56.2679256,65.9593408 L56.2679256,65.9593408 Z M33.0891093,55.3127493 C33.6858516,55.3393408 33.8388194,54.9820169 34.0640686,54.7210873 C35.8694242,52.6253408 37.6730989,50.5295944 39.594441,48.5368901 C40.7021965,47.3884676 41.9931771,46.3979324 42.7193536,44.9254254 C42.794997,44.7741859 42.9597315,44.6644958 43.0858038,44.5398479 C45.3870439,42.2712563 47.3050242,39.6885521 49.2700714,37.1457352 C49.5407066,36.7950592 49.8483231,36.4177915 49.5894546,35.9408056 C49.429763,35.6466366 48.5623854,35.6582704 48.0866725,35.9424676 C47.9353858,36.0322141 47.8227611,36.1867775 47.6697934,36.274862 C47.3621769,36.449369 47.0377508,36.7335662 46.7217295,36.7319042 C45.852671,36.7252563 45.4458777,37.1507211 45.193733,37.9069183 C45.0878323,38.2260169 44.8541782,38.5949746 44.5717762,38.7478761 C43.736337,39.2015944 43.3295436,40.0109746 42.7781874,40.6907211 C41.7477563,41.9654535 40.4550947,43.0208056 39.6162936,44.4584113 C39.2901865,45.0168338 38.9237363,45.5470028 38.4379376,46.0273127 C37.7218468,46.7369746 37.0477802,47.5729465 36.6460297,48.4803831 C36.2123409,49.4609465 35.692923,50.3501014 35.0642423,51.2076789 C34.1750122,52.4209183 33.433707,53.7172563 33.0891093,55.3127493 L33.0891093,55.3127493 Z M78.1860188,46.2134535 C77.424542,46.1403268 77.0732204,46.5790873 76.6933225,46.9164676 C75.6948297,47.8006366 74.6677606,48.6848056 73.4978094,49.2897634 C72.6522844,49.726862 72.0488182,50.3085521 71.5697434,51.0414817 C71.211698,51.5882704 70.9612343,52.2181577 70.742709,52.8397352 C70.5628458,53.3482986 70.319106,53.793707 70.0064466,54.2341296 C69.0264445,55.6119042 68.4246593,57.1891155 67.8279169,58.7413972 C67.5068528,59.575707 67.2194079,60.4233127 66.6814993,61.113031 C65.9805372,62.0138197 66.0763522,63.2170873 65.3669853,64.0946085 C65.2762132,64.2076225 65.3199183,64.476862 65.4829718,64.5749183 C65.7216687,64.7195099 65.9250654,64.5616225 66.0292852,64.3605239 C66.3604351,63.7190028 66.9017056,63.2170873 67.3774185,62.7234817 C68.201091,61.8659042 68.5154313,60.700862 69.3391038,59.8848338 C69.9576987,59.2732282 70.41324,58.5835099 70.695642,57.7757915 C70.7847331,57.5181859 70.8771861,57.2722141 71.0873067,57.0943831 C72.2656626,56.1021859 73.0086488,54.7825803 73.8272784,53.5211437 C74.0239513,53.2203268 74.1836429,52.9145239 74.5299215,52.7466648 C75.0980874,52.4707775 75.3653607,51.9339606 75.5519478,51.3938197 C75.8293069,50.5877634 76.2411431,49.8648056 76.7084512,49.1601296 C77.2917458,48.2776225 77.7792254,47.3435944 78.1860188,46.2134535 L78.1860188,46.2134535 Z M62.8253673,52.5538761 C61.9495849,53.1821014 54.0103906,63.8137352 53.806994,64.7394535 C54.3566693,64.2774254 54.9113875,63.8054254 55.3080951,63.1988056 C56.2628828,61.7429183 57.4597293,60.464862 58.6918761,59.2732282 C59.969409,58.0400451 60.9611779,56.685538 61.6856735,55.1133127 C62.0521237,54.3205521 62.7245094,53.6673972 62.8253673,52.5538761 L62.8253673,52.5538761 Z M53.1379702,65.126693 C53.1060319,65.1948338 53.0740935,65.2646366 53.0421552,65.3327775 C53.1110747,65.361031 53.1984849,65.4291718 53.2455519,65.4092282 C53.2976618,65.3859606 53.3127905,65.2829183 53.3447288,65.2147775 C53.2758092,65.184862 53.2068897,65.1566085 53.1379702,65.126693 L53.1379702,65.126693 Z" id="Fill-1" fill="#C4486C"></path>
                    <g id="Group-5" transform="translate(142.881963, 0.000000)">
                        <mask id="mask-2" fill="white">
                            <use xlink:href="#path-1"></use>
                        </mask>
                        <g id="Clip-4"></g>
                        <path d="M75.6612105,51.4448423 C75.11994,51.5079972 74.9484816,51.9833211 74.7551707,52.347293 C73.2658364,55.1676592 71.5176335,57.830138 69.8383502,60.5374901 C68.7860666,62.2327014 67.4614667,63.7999408 66.9857538,65.8807296 C66.7386521,66.9610113 65.753607,67.8967014 65.2089746,68.9620254 C64.7652,69.8312366 64.1886293,70.6156873 63.6002918,71.3934901 C62.932949,72.2743352 62.6606328,72.3773775 61.8151077,72.0782225 C61.1712984,71.8505324 60.4753792,70.8882507 60.6031325,70.2151521 C60.8653629,68.8257437 61.1091028,67.4180535 61.5596012,66.0851521 C61.8722605,65.1627577 62.1966866,64.2387014 62.3967214,63.2947014 C62.5950752,62.3656592 63.0859167,61.5728986 63.401938,60.7036873 C63.4809433,60.485969 63.5414581,60.2865324 63.3515091,60.0987296 C63.1413886,60.0405606 63.0035495,60.1568986 62.9094155,60.311462 C61.2200464,63.0670113 59.5558918,65.8375183 57.8345844,68.5731239 C57.3891288,69.2811239 56.7923865,69.9027014 56.2259015,70.5276028 C55.8409607,70.9530676 55.0979745,71.0394901 54.7634626,70.7253775 C54.3650741,70.3481099 54.2339589,69.8511803 54.5852804,69.4057718 C55.3215428,68.4700817 55.6913549,67.329969 56.4814081,66.3976028 C57.2983567,65.4353211 57.7270026,64.1572648 58.463265,63.1118845 C59.1995273,62.0665042 59.687007,60.9446732 59.8635082,59.7114901 C60.107248,57.9946732 60.2568539,56.2845042 58.9860449,54.7903915 C58.4901604,54.2070394 58.464946,53.4009831 58.4061122,52.6481099 C58.3741739,52.224307 58.5372274,51.757293 58.1270721,51.3584197 C57.4664532,51.8171239 57.2462469,52.5866169 56.7587672,53.1151239 C55.3971862,54.5926169 54.7516959,56.5603915 53.2808521,57.9547859 C53.0707316,58.1542225 53.0203027,58.5115465 52.8673349,58.7807859 C52.2756355,59.8161944 51.6721693,60.8316592 50.8619446,61.7374338 C49.9121997,62.7994338 49.3137765,64.1057437 48.6229001,65.3422507 C48.2833454,65.9521944 47.9017665,66.4507859 47.0831369,66.4142225 C46.4426895,66.385969 45.9921911,66.1399972 46.0308532,65.4851803 C46.0997728,64.3600254 45.7400464,63.1949831 46.4292418,62.1097155 C46.6713006,61.727462 46.5687618,61.1474338 46.7301344,60.6953775 C47.6681124,58.0844197 48.5859189,55.4585042 50.1677063,53.1350676 C50.6215667,52.4686169 50.8367301,51.7041099 51.0972795,50.9778282 C51.3410194,50.3030676 51.5645876,49.6100254 51.9848287,49.0582507 C52.7950535,47.9962507 52.816906,46.7780254 52.9917263,45.5548141 C52.4084317,45.3653493 52.1983111,45.8041099 51.9697,46.0633775 C50.7963869,47.3946169 49.3961437,48.5646451 48.488423,50.0803634 C47.737032,51.3351521 46.6612148,52.3506169 46.0174055,53.6619127 C45.9770624,53.7400254 45.9333573,53.8231239 45.8711616,53.8829549 C44.2322215,55.4418845 43.2774338,57.476138 42.0301583,59.305969 C41.2602766,60.4361099 40.6181483,61.6310676 40.0970494,62.904138 C39.1573903,65.1959972 38.1185544,67.447969 37.1200616,69.7148986 C37.0477802,69.8777718 36.9721368,70.0406451 36.8763218,70.1902225 C36.4661665,70.8317437 36.0274349,71.0577718 35.5769364,70.7602789 C34.8305883,70.2633493 34.4994383,70.0506169 34.8843791,69.2827859 C35.6105557,67.8302225 35.8593384,66.1981662 36.9065792,64.8403352 C37.3587586,64.2553211 37.5789649,63.3345887 37.9689486,62.6016592 C38.3858277,61.8188704 38.7791734,61.0410676 38.9203744,60.1602225 C39.1557094,58.6993493 39.9289529,57.4246169 40.4466899,56.0667859 C41.0720086,54.4264197 41.5880647,52.7345324 42.3327318,51.1440254 C42.9462838,49.8393775 43.2690289,48.4167296 44.0927014,47.1935183 C44.5801811,46.4705606 44.7348298,45.5847296 44.9298216,44.6473775 C44.2423072,44.6606732 43.969991,45.1094056 43.6775033,45.4467859 C41.9646007,47.4261944 40.2752316,49.4438282 38.8733074,51.639293 C37.7369755,53.4176028 36.5098716,55.1576873 35.6996468,57.1470676 C35.2256149,58.3121099 34.7549449,59.5220254 33.9228676,60.5225324 C33.3479778,61.2155746 33.2219055,62.139631 32.6571015,62.8509549 C32.2822465,63.3246169 31.9645442,63.8132366 31.268625,63.675293 C30.5895154,63.5406732 30.2146604,63.1451239 30.0818642,62.4221662 C29.9692396,61.8022507 29.8700627,61.2321944 30.0347972,60.5973211 C30.1659124,60.0937437 30.140698,59.540307 30.1238883,59.010138 C30.1053977,58.4184761 29.7507143,58.2672366 29.2329773,58.5514338 C28.9186369,58.7259408 28.821141,59.0051521 28.7387738,59.3026451 C28.4076238,60.4959408 28.0462165,61.6809268 27.7654955,62.8841944 C27.1233671,65.6380817 26.5047723,68.3986169 25.9130728,71.164138 C25.7701909,71.8322507 25.4945127,72.4272366 25.1784914,73.0122507 C24.6910118,73.9180254 23.8673393,74.0094338 23.1546105,73.2499127 C22.5427395,72.5967577 22.5208869,71.8206169 22.6973882,71.0062507 C22.9596186,69.7896873 23.4084361,68.631293 23.8101865,67.4579408 C25.0440143,63.8448141 26.471153,60.2915183 27.1889247,56.5188423 C27.3368496,55.7410394 27.5385653,54.9565887 27.8377769,54.2219972 C28.538739,52.4985324 28.916956,50.6786732 29.478398,48.9153211 C29.95243,47.4278563 30.5306817,45.9237718 30.419738,44.2950394 C30.372671,43.6302507 30.7424832,43.0119972 30.70214,42.3289268 C30.6483492,41.3915746 30.5542152,41.2270394 29.7103711,41.5610958 C27.879801,42.2857155 26.1618555,43.2297155 25.3280973,45.1426451 C25.1230196,45.6129831 24.7111834,45.853969 24.4489529,46.2628141 C23.7832911,47.3048704 23.4840795,48.4233775 23.3126211,49.5983915 C23.0789671,51.2138282 22.6049351,52.7794056 22.2603375,54.3699127 C21.9426352,55.8374338 21.8972492,57.3332085 21.5576944,58.7907577 C21.3005069,59.899293 21.0080191,60.9978563 20.728979,62.0997437 C20.4734724,63.1035746 20.4633867,64.1788704 20.1793037,65.1943352 C19.5741566,67.3632085 18.9521998,69.5270958 18.3453717,71.694307 C18.2260232,72.1181099 18.0125408,72.5302789 18.0713745,72.9873211 C18.2209803,74.1606732 17.5721281,75.0248986 16.9115092,75.8658563 C16.6106165,76.2464479 16.2088661,76.5539127 16.0172362,77.0176028 C15.7701344,77.6059408 15.2641642,77.5643915 14.7665987,77.5311521 C14.285843,77.4995746 14.1059798,77.1838 13.9866313,76.7566732 C13.6773339,75.6614338 13.5176423,74.5495746 14.048827,73.5125042 C14.3900627,72.8493775 14.1950709,72.1147859 14.4909206,71.4898845 C15.4020032,69.571969 15.8491397,67.4828704 16.775351,65.5732648 C17.0930533,64.9184479 16.9653,64.1905042 17.1855063,63.5057718 C17.9419403,61.1540817 18.4109293,58.7226169 19.2867117,56.3991803 C20.0918936,54.2618845 20.4835582,52.0132366 20.9844856,49.6997718 C20.2162849,49.7180535 19.9557354,50.2116592 19.695186,50.6304761 C18.2663664,52.9190113 16.543378,55.0031239 15.0658104,57.2550958 C14.4757919,58.1558845 13.6672481,58.8539127 12.9562002,59.6433493 C12.6233693,60.013969 12.261962,59.9774056 11.8585306,59.8444479 C11.1458017,59.6084479 10.7406893,59.7713211 10.4313919,60.547462 C9.80271125,62.1279972 9.08157757,63.6669831 8.58233119,65.3040254 C8.32010076,66.1632648 7.8242163,66.9543634 7.57375262,67.8451803 C7.31320316,68.7659127 6.66939384,69.5669831 6.69460831,70.5890958 C6.6996512,70.750307 6.59375045,70.9331239 6.49457356,71.0760535 C5.61038635,72.3790394 5.29100314,73.8964197 4.79848061,75.3506451 C4.6152555,75.887462 4.29923422,76.3927014 3.97144619,76.8630394 C3.52430969,77.5062225 2.47034509,77.5344761 1.8584741,76.8331239 C0.769209251,75.5866451 0.199362363,74.0941944 0.345606254,72.4372085 C0.401078075,71.815631 0.473359539,71.2372648 0.328796612,70.6107014 C0.212810077,70.102138 0.187595613,69.5354056 0.283410576,69.0235183 C0.913772178,65.6347577 1.17432164,62.1845042 2.0702756,58.8406169 C2.37789206,57.6921944 2.59641741,56.5205042 2.69391334,55.3188986 C2.75610902,54.5610394 3.16458334,53.8281099 3.43521859,53.0918563 C3.75292083,52.225969 4.15971419,51.3949831 4.38160147,50.4941944 C4.64215093,49.4388423 5.42548028,48.7690676 6.27604821,48.2023352 C6.94002909,47.7585887 7.4056562,47.9114901 7.8712833,48.5629831 C8.09317058,48.8721099 8.12006601,49.2028423 7.69646301,49.2809549 C6.16006167,49.5634901 5.84572135,50.8315746 5.54819068,51.988307 C4.97834379,54.2087014 4.52448343,56.4606732 4.07734694,58.7093211 C3.61171983,61.0460535 3.12087827,63.3811239 2.80485698,65.7378 C2.46866413,68.2374056 2.29384385,70.7586169 2.45185449,73.288138 C2.45857834,73.406138 2.5359027,73.5224761 2.57288391,73.6221944 C2.93933413,73.7451803 3.15281659,73.5191521 3.24358866,73.2964479 C3.88571701,71.7225606 5.03549657,70.3398 5.09937321,68.5481944 C5.11282093,68.217462 5.26578868,67.9565324 5.4624615,67.7088986 C6.08946117,66.9178 6.28445303,65.9821099 6.48953067,65.0198282 C6.71814181,63.9495183 7.12157323,62.9240817 7.52500466,61.8919972 C8.21083808,60.1369549 9.42785621,58.6312085 9.85145921,56.7581662 C10.0380462,55.9305042 10.2095046,55.1277718 10.189333,54.2735183 C10.1170516,51.3484479 10.4330728,48.4616028 10.8718045,45.5631239 C11.1189063,43.9377155 11.6400052,42.3904197 11.8921498,40.7733211 C12.0585653,39.7013493 12.8368518,38.7972366 13.0099911,37.7219408 C13.4419989,37.7003352 13.2671786,38.1091803 13.4504037,38.1607014 C14.7027221,38.5147014 14.1564087,39.4537155 14.0185696,40.1234901 C13.5630283,42.3372366 12.967967,44.5160817 12.6553076,46.7647296 C12.4552729,48.2089831 12.4351013,49.6681944 12.309029,51.1756028 C12.9410715,50.0521099 13.7865966,48.9950958 14.1547277,47.7934901 C14.7010411,46.0151803 15.8642684,44.6041662 16.6391929,42.9737718 C17.5838949,40.9877155 18.6059211,39.0382225 19.6060949,37.0787577 C19.8716872,36.5602225 20.0028024,36.1015183 19.4245507,35.6793775 C18.7790605,35.2073775 18.4983394,35.2023915 17.8041012,35.6943352 C17.4191604,35.9668986 17.0880104,36.1962507 16.49463,36.1563634 C15.8642684,36.1148141 15.2927406,36.6449831 14.9750383,37.2898282 C14.8657756,37.5141944 14.7766845,37.8499127 14.4304059,37.7651521 C14.0723605,37.6787296 13.9916742,37.3496592 13.9967171,37.0255746 C14.00176,36.8078563 14.0135267,36.5735183 14.094213,36.3757437 C14.6707838,34.9630676 15.6138047,33.8977437 17.0712008,33.3127296 C17.8679778,32.995293 18.6344975,32.9504197 19.3825266,33.4357155 C19.4564891,33.4839127 19.5405373,33.5204761 19.6229045,33.5537155 C20.8617752,34.0622789 21.1878823,34.5658563 21.8653109,32.6030676 C22.1746083,31.7089268 22.9764282,31.0275183 23.4185218,30.1483352 C24.2674088,28.4630958 25.2053869,26.8210676 26.1030218,25.1607577 C26.1248743,25.1225324 26.1147885,25.0643634 26.141684,25.0344479 C27.4612409,23.6184479 28.0529403,21.7620254 29.1489291,20.2047577 C30.4735289,18.3217437 31.6401181,16.3340254 32.9025223,14.4111239 C33.6841707,13.2228141 34.2909988,11.9497437 35.0255801,10.7597718 C35.8240382,9.46509577 36.348499,8.0889831 37.0225657,6.77103944 C37.4865118,5.86526479 37.7386565,4.91295493 38.1404069,4.00551831 C38.7405112,2.65433521 39.4313875,1.39622254 40.6063815,0.438926761 C40.9896414,0.126476056 41.3460058,0.00515211268 41.8301235,0.204588732 C42.3512224,0.417321127 42.5899194,0.748053521 42.6184958,1.3098 C42.6806914,2.5546169 42.3091983,3.63323662 41.6250459,4.68027887 C40.2718696,6.7494338 39.029637,8.88839155 37.6915895,10.9675183 C37.0427373,11.9730113 36.3653087,12.9552366 35.7786521,14.0039408 C34.3901757,16.4902507 33.2975489,19.0978845 32.446981,21.7985887 C32.1007023,22.8988141 31.502279,23.8710676 31.1072524,24.9330676 C30.4634431,26.6598563 29.6095133,28.3018845 29.1136288,30.0918282 C28.6580875,31.7371803 28.20927,33.3825324 27.6192516,34.997969 C26.8729034,37.0372085 26.0778073,39.0764479 25.6491614,41.2203915 C25.6357137,41.2852085 25.718081,41.369969 25.7937244,41.5178845 C26.3854238,41.137293 27.1149623,40.8730394 27.5301605,40.3611521 C28.3471091,39.3523352 29.5237841,39.2193775 30.6046441,38.8886451 C31.5274935,38.6077718 32.070445,39.0498563 32.4738764,39.9290394 C32.9949753,41.0625042 32.8773078,42.2558 32.9042032,43.4441099 C33.3530207,43.4723634 33.5328839,43.1665606 33.6152511,42.8989831 C33.948082,41.8137155 34.7616688,41.0043352 35.2558723,40.0138 C35.3920304,39.7445606 35.6340892,39.5251803 35.8358049,39.2908423 C36.2005742,38.8637155 36.6762871,38.7822789 37.1772144,38.9567859 C37.760509,39.1595465 37.8025331,39.6747577 37.7487423,40.1716873 C37.6915895,40.6952085 37.7067182,41.3068141 37.4344019,41.7123352 C36.8040403,42.6480254 36.6964586,43.7449268 36.398928,44.7520817 C35.6845181,47.1735746 34.3767279,49.3723634 33.8220097,51.8503634 C33.6018034,52.8276028 33.0353184,53.7217437 32.8268789,54.7205887 C32.539434,56.0917155 32.2822465,57.4678282 32.1326406,58.8904761 C32.8285598,58.0611521 33.5597793,57.2949831 33.8774815,56.239631 C34.1565216,55.3172366 34.3178942,54.3100817 35.2945344,53.7716028 C35.7030087,52.1943915 37.3974207,51.3866732 37.7420184,49.7695746 C37.7588281,49.688138 37.8193428,49.6050394 37.8832194,49.5468704 C39.3725538,48.154138 40.2231217,46.2628141 41.6737938,44.8385042 C42.2436407,44.2784197 42.6235387,43.5604479 43.0908467,42.9189268 C43.6052218,42.2125887 44.29946,41.7522225 44.911331,41.1788423 C45.2996338,40.8132085 45.7551751,40.7085042 46.2695502,40.7301099 C47.1402897,40.7683352 47.4327774,40.9827296 47.4142868,41.845293 C47.3806675,43.4042225 47.0646463,44.9199408 46.3956225,46.3409268 C46.0980918,46.9758 45.8493091,47.6156592 45.6307837,48.2837718 C45.3046767,49.2876028 44.8440925,50.2515465 44.4339372,51.2287859 C44.3515699,51.4282225 44.2154118,51.6110394 44.3868702,51.9716873 C45.2290333,51.1008141 45.995553,50.2565324 46.5351425,49.2876028 C47.170547,48.1491521 48.1824875,47.3364479 48.9086641,46.2777718 C49.5020445,45.4152085 50.4080842,44.7836592 51.0821509,43.9410394 C51.688979,43.1798563 52.5782091,42.7078563 53.6052782,42.5383352 C54.7533768,42.3472085 55.4476151,42.787631 55.5014059,43.9360535 C55.5720064,45.4584197 55.2425374,46.9325887 54.6357093,48.3236592 C53.3867529,51.1938845 52.0873675,54.0425042 50.8098347,56.9010958 C50.5358375,57.5127014 50.1744302,58.0727859 49.7205698,58.5630676 C49.5524734,58.7442225 49.4717871,58.8854901 49.5306208,59.1331239 C49.61635,59.5037437 49.7239317,59.7164761 50.1559396,59.4621944 C50.4097652,59.3126169 50.4887705,59.0816028 50.6215667,58.8505887 C51.8940566,56.6667577 53.4018816,54.6374901 54.8122106,52.5450676 C55.5182156,51.4980254 56.4242553,50.5523634 56.6125233,49.2028423 C56.6764,48.7491239 57.0092309,48.3136873 57.2798661,47.9114901 C58.7423051,45.7259972 60.1022052,43.4790113 61.3393949,41.1605606 C61.4015905,41.0442225 61.426805,40.901293 61.5091722,40.8015746 C61.8756225,40.3561662 62.2319869,39.8243352 62.9262251,39.9938563 C63.6893829,40.1799972 63.6271872,40.8298282 63.5935679,41.4032085 C63.5229674,42.6064761 63.1178551,43.7366169 62.7497239,44.8717437 C62.0168235,47.1237155 61.001521,49.279293 60.4753792,51.6043915 C60.3358592,52.2209831 60.3509879,52.7677718 60.7359287,53.2381099 C61.5579202,54.2436028 61.9361372,55.3887014 62.0050567,56.6601099 C62.0151425,56.8379408 62.085743,57.0058 62.3546973,57.1420817 C63.2708228,55.9537718 64.578613,55.0479972 65.1266074,53.5405887 C65.2022508,53.3328423 65.2795751,53.0901944 65.4342238,52.9539127 C66.8664054,51.6924761 67.7169733,50.0072366 68.7238709,48.453293 C70.0198944,46.4489549 71.6067246,44.617462 72.5396598,42.3904197 C72.716161,41.9699408 72.9733486,41.6109549 73.3347559,41.3350676 C74.0121845,40.8132085 74.7736613,41.137293 74.9098194,41.9699408 C75.0611062,42.8939972 74.506388,43.5870394 74.1113614,44.3033493 C72.7733138,46.7364761 71.352899,49.1197437 70.1257951,51.6193493 C69.4097043,53.0785606 68.6078844,54.5111803 67.8867507,55.9770394 C66.6747755,58.4417437 65.521634,60.9363634 64.5214602,63.4924761 C64.1281146,64.499631 64.1970341,65.6563634 63.6187824,66.7266732 C64.0642379,66.8197437 64.2323344,66.5887296 64.3651305,66.3095183 C64.7820097,65.4286732 65.1299693,64.5062789 65.6258538,63.671969 C66.1671242,62.7628704 66.7840381,61.8753775 67.3236277,60.9828986 C67.9506273,59.9474901 68.5591364,58.8721944 69.14075,57.7968986 C69.33238,57.4412366 69.5256909,57.1121662 69.7879213,56.8047014 C70.0451088,56.5022225 70.3426395,56.1964197 70.4838405,55.8390958 C71.2537221,53.8962507 72.4640164,52.1960535 73.5314287,50.4227296 C74.5349644,48.7541099 75.5469049,47.0838282 76.7286228,45.5248986 C77.8817643,44.0025324 78.8970667,42.3904197 79.917412,40.779969 C80.107361,40.4808141 80.3040338,40.1783352 80.5427307,39.9174056 C80.857071,39.5767014 81.2537786,39.3373775 81.7362153,39.5534338 C82.2287379,39.7728141 82.4876064,40.1700254 82.4523061,40.723462 C82.4254107,41.1239972 82.3094241,41.4996028 82.1631803,41.8768704 C81.0688725,44.673969 79.8905166,47.4345042 78.6264314,50.1618 C77.5001854,52.5965887 76.7723278,55.175969 75.9839556,57.7287577 C75.4510899,59.4572085 75.0543824,61.2238845 74.5416882,62.9589831 C74.3113961,63.7417718 74.3685489,64.5046169 74.3551012,65.4984761 C75.6191863,64.4547577 76.5790169,63.4210113 77.0866682,62.0881099 C77.518676,60.9529831 78.130547,59.9258845 78.7726753,58.9203915 C80.1762805,56.7299127 81.0251674,54.3416592 81.6034192,51.8337437 C81.9127166,50.4875465 82.4909683,49.2327577 83.1549492,48.0195183 C83.3398552,47.6838 83.6020857,47.3946169 83.9819836,47.4345042 C85.0073718,47.5425324 85.7453151,46.8893775 86.5773924,46.5220817 C87.6380809,46.0517437 88.6416166,45.4550958 89.6653238,44.9066451 C90.4637818,44.4778563 91.2924972,44.1870113 92.2203895,44.1886732 C92.8003222,44.1886732 93.3836168,44.145462 93.9601875,44.0773211 C94.8090745,43.9759408 95.5722323,43.7416028 96.2462989,43.1150394 C96.9909661,42.4219972 97.9289442,42.1843352 98.9913136,42.5217155 C99.4317262,42.6613211 99.6401658,42.9239127 99.8872675,43.374307 C101.257253,41.7090113 102.146484,39.8791803 102.956708,37.9645887 C103.899729,35.7308986 104.762064,33.462307 105.755514,31.2452366 C106.395961,29.8159408 106.95236,28.3218282 107.68358,26.9324197 C108.584577,25.2222507 109.39312,23.4638845 110.396656,21.7952648 C111.005165,20.7847859 111.647294,19.775969 112.195288,18.7256028 C112.405408,18.3217437 112.585272,17.946138 112.958446,17.6719127 C113.094604,17.5721944 113.291277,17.4076592 113.284553,17.2830113 C113.218995,16.1528704 114.096459,15.5695183 114.696563,14.8266169 C114.780611,14.7219127 114.852892,14.5906169 114.962155,14.5291239 C115.483254,14.2349549 114.792378,13.1430394 115.725313,13.2494056 C116.342227,13.3192085 116.868369,13.1314056 117.438216,13.0915183 C118.238354,13.0333493 119.231804,13.6698845 119.549507,14.4792648 C120.000005,15.6276873 119.836952,16.7412085 119.105732,17.7217718 C118.601443,18.3981944 118.107239,19.0762789 117.802985,19.8574056 C117.409639,20.8562507 116.738934,21.7055183 116.179173,22.5880254 C114.592343,25.0942789 113.094604,27.6587014 111.371615,30.0868423 C110.31597,31.577631 109.406568,33.1797718 108.476995,34.760307 C106.977575,37.3097718 105.414278,39.8243352 103.793829,42.3039972 C103.254239,43.1299972 102.615473,43.9742789 102.548234,45.0578845 C102.528062,45.3886169 102.299451,45.7193493 102.126312,46.0284761 C101.168162,47.740307 100.877355,49.6898 100.129326,51.4697718 C99.1089811,53.8929268 98.878689,56.5005606 98.1457886,58.9852085 C97.9894589,59.5120535 98.3760807,60.0073211 98.1642792,60.5524479 C98.0869548,60.7535465 98.3844855,61.0227859 98.6366301,61.1407859 C98.9509704,61.2887014 99.1678148,61.0643352 99.3106968,60.8549268 C99.8704579,60.0388986 100.611763,59.3923915 101.290873,58.6860535 C101.44384,58.5281662 101.61698,58.3553211 101.682537,58.1575465 C102.433928,55.8889549 103.877877,54.0674338 105.340316,52.2143352 C106.229546,51.0891803 107.137266,49.9125042 107.656684,48.5297437 C108.108864,47.328138 109.109038,46.5254056 109.94952,45.6428986 C112.433985,43.0286169 115.091589,40.5938282 117.982848,38.4116592 C119.191461,37.5008986 120.310983,36.4771239 121.479254,35.5148423 C121.788551,35.2605606 122.11802,35.0262225 122.459256,34.8168141 C122.918159,34.5309549 123.427491,34.5209831 123.846051,34.8417437 C124.294869,35.1857718 124.274697,35.7109549 124.081386,36.1829549 C123.951952,36.5037155 123.748555,36.8211521 123.504816,37.0687859 C122.250816,38.3335465 121.33301,39.8608986 120.205083,41.2070958 C117.870223,43.9958845 115.923667,47.0389549 113.948534,50.0587577 C112.992065,51.521293 111.949867,52.9505887 111.243862,54.5809831 C110.262179,56.8528986 108.957751,58.9752366 108.008006,61.2670958 C107.421349,62.6830958 107.170886,64.1755465 106.700216,65.6081662 C107.054899,65.7228423 107.243167,65.5666169 107.379325,65.4103915 C108.470271,64.1639127 109.714185,63.0370958 110.447085,61.5047577 C110.712677,60.9513211 111.084171,60.4427577 111.541393,60.0023352 C112.319679,59.249462 112.714706,58.2755465 113.10469,57.2949831 C113.298,56.8130113 113.531655,56.3227296 113.851038,55.9172085 C115.073099,54.353293 115.624455,52.463631 116.501918,50.7335183 C116.999484,49.7529549 117.562607,48.8089549 117.927376,47.7602507 C118.17784,47.037293 118.956126,46.6766451 119.334343,46.0002225 C121.275857,42.5233775 123.205604,39.0398845 125.234528,35.6145606 C126.362455,33.7082789 127.692098,31.9183352 128.900711,30.0585887 C130.643871,27.3794901 132.689604,24.9181099 134.51177,22.2955183 C135.241308,21.2434901 136.209544,20.3310676 136.81301,19.2192085 C137.641725,17.6901944 139.257132,16.7594901 139.84715,15.0659408 C139.998437,14.6338282 140.416997,14.2765042 140.759914,13.9274901 C142.1652,12.4981944 143.266232,10.8179408 144.65807,9.37036338 C146.076804,7.89287042 147.15094,6.15278592 148.110771,4.34954648 C148.420068,3.76619437 148.678936,3.13796901 149.290807,2.77067324 C150.217019,2.21557465 151.012115,2.58951831 151.089439,3.64320845 C151.12474,4.12518028 151.089439,4.59385634 150.785185,5.03926479 C150.336367,5.69906761 149.95815,6.40540563 149.568167,7.1034338 C149.420242,7.37267324 149.210121,7.67847606 149.230293,7.95436338 C149.279041,8.65903944 148.880652,9.16427887 148.492349,9.61301127 C147.51739,10.7348423 146.734061,11.9530676 146.212962,13.3358282 C146.096975,13.639969 145.87845,13.8576873 145.649839,14.0704197 C144.787504,14.8748141 144.120161,15.7789268 144.068051,17.0087859 C144.057966,17.2348141 144.037794,17.5007296 143.795735,17.5672085 C142.587122,17.9045887 142.264377,19.0530113 141.783621,19.9222225 C139.858917,23.4090394 137.608106,26.7097155 135.794345,30.2563634 C134.306692,33.1664761 132.871148,36.1015183 131.353238,38.9966732 C129.42181,42.6812648 127.969457,46.5686169 126.338921,50.3795183 C125.817822,51.5960817 125.286638,52.8242789 124.85463,54.054138 C124.365469,55.4485324 123.772089,56.829631 123.572054,58.3453493 C123.370338,59.8693775 122.637438,61.2986732 122.427317,62.8359972 C122.146596,64.8901944 121.447315,66.8812366 121.464125,68.9786451 C121.467487,69.3675465 121.361586,69.7730676 121.652393,70.2101662 C122.173492,70.1586451 122.476065,69.7381662 122.751744,69.3858282 C123.324952,68.6528986 123.837646,67.8717718 124.338574,67.0873211 C124.479775,66.8679408 124.538609,66.5953775 124.768901,66.4308423 C126.041391,65.5150958 126.59779,64.0891239 127.411377,62.8393211 C128.085443,61.8022507 128.905754,60.8599127 129.527711,59.7829549 C130.598485,57.9298563 132.091181,56.3825606 133.409057,54.7172648 C135.495134,52.0813775 137.487076,49.3673775 139.784955,46.8893775 C140.891029,45.6977437 141.771854,44.2900535 142.867843,43.0685042 C143.753711,42.081293 144.394159,40.9046169 145.384247,39.9938563 C145.871726,39.5467859 146.145723,38.9019408 146.503769,38.3485042 C147.544286,36.7363915 148.912591,35.413462 150.173314,33.9958 C151.941688,32.0097437 153.935312,30.2397437 155.517099,28.0708704 C156.685369,26.4670676 158.141084,25.0693493 159.322802,23.4539127 C159.941397,22.606307 162.069498,22.729293 162.723393,23.555293 C163.052862,23.9707859 162.825932,24.6870958 162.113203,25.087631 C161.397112,25.4898282 160.773474,25.9634901 160.269185,26.6033493 C159.312716,27.8182507 158.273881,28.979969 157.413227,30.2580254 C156.786227,31.1903915 156.023069,31.991462 155.269997,32.7941944 C153.758811,34.4029831 152.18879,35.9619127 150.630536,37.5258282 C148.94621,39.2177155 147.384594,41.0541944 145.989394,43.0103352 C144.39752,45.2423634 142.58376,47.3115183 140.936415,49.4936873 C139.712673,51.1124479 138.283853,52.5600254 137.139117,54.2652085 C136.172562,55.706138 135.061445,57.125462 133.883089,58.4434056 C132.578661,59.9042789 131.445691,61.4814901 130.364831,63.1035746 C129.800027,63.9495183 129.196561,64.7705324 128.606542,65.5998563 C127.018031,67.8352085 125.432882,70.0722225 123.834285,72.3009268 C123.577097,72.6582507 123.274523,72.993969 122.956821,73.3014338 C121.371672,74.8387577 119.490673,74.295293 118.935955,72.1496873 C118.767858,71.5015183 118.661957,70.8450394 118.717429,70.1752648 C118.870397,68.3271521 118.977979,66.444138 119.347791,64.6525324 C120.04371,61.2920254 120.830401,57.9381662 122.018843,54.6890113 C123.066084,51.8221099 124.249483,49.0100535 125.419434,46.1930113 C126.180911,44.3598563 126.875149,42.4768423 127.777827,40.7301099 C128.493918,39.3456873 128.786405,37.8166732 129.599992,36.4804479 C129.919375,35.9569268 130.272378,35.4500254 130.581675,34.9181944 C131.245656,33.7730958 131.91468,32.6429549 132.412245,31.3931521 C133.062778,29.7627577 133.983947,28.2370676 134.79081,26.6631803 C134.434445,26.3922789 134.299968,26.681462 134.172215,26.8908704 C132.777014,29.2043352 130.975021,31.2468986 129.653783,33.6135465 C129.225137,34.3797155 128.626714,35.056138 128.085443,35.7591521 C126.596109,37.6970113 125.389177,39.8077155 124.311678,41.9799127 C123.872947,42.8640817 123.190475,43.5571239 122.758467,44.4429549 C121.388482,47.2566732 119.60834,49.8493493 118.241716,52.6796873 C117.483602,54.2485887 116.933926,55.9787014 115.636222,57.2899972 C115.293305,57.6390113 115.244557,58.2655746 115.039479,58.7575183 C114.25615,60.6438563 113.094604,62.2792366 111.825476,63.8880254 C111.038785,64.8868704 110.344546,65.9671521 109.451954,66.8895465 C108.83504,67.5277437 108.238298,68.1759127 107.461693,68.6612085 C106.01102,69.5686451 104.444362,68.4833775 104.415785,66.9593493 C104.40738,66.5172648 104.368718,66.0519127 104.484705,65.6364197 C105.073042,63.5174056 105.560522,61.3551803 106.362342,59.3142789 C107.424711,56.6135746 108.700563,53.9627296 110.289074,51.5412366 C111.596865,49.5468704 112.615529,47.3663634 114.160335,45.5199127 C114.393989,45.2373775 114.773887,44.9565042 114.552,44.4014056 C113.968705,44.4446169 113.687984,44.9398845 113.329939,45.2722789 C111.462388,47.0123634 110.099125,49.1430113 108.655177,51.2121662 C106.520353,54.2701944 104.587244,57.4495465 102.667582,60.6405324 C101.995197,61.7557155 101.037047,62.6764479 100.087302,63.5074338 C98.7072306,64.7140254 96.8985131,63.8564479 96.3807761,62.0382507 C95.8378246,60.1269831 96.0412213,58.184138 96.4681862,56.2579127 C96.6917545,55.2507577 97.0397141,54.2585606 97.091824,53.0320254 C96.2076367,53.5405887 95.9655779,54.3582789 95.5184414,54.9582507 C93.797134,57.2634056 92.2657755,59.7114901 90.5158917,61.9933775 C89.5779137,63.2149268 88.6853216,64.4863352 87.5926949,65.5998563 C87.1068962,66.0951239 86.8144084,66.7732085 86.2411996,67.215293 C85.4948514,67.7919972 84.9317284,67.8750958 84.2727904,67.4413211 C83.6121715,67.0058845 83.4373512,66.4158845 83.5230804,65.6081662 C83.7903537,63.0869549 84.9552619,60.8964761 85.9302212,58.6228986 C86.4361914,57.4412366 87.0312528,56.3077718 87.6263141,55.177631 C88.619764,53.2979408 89.6485142,51.4348704 90.7445029,49.6133493 C91.2605589,48.7541099 92.0825504,48.0793493 92.4086575,47.0239972 C91.4152076,46.7348141 90.5780874,47.1702507 89.7745865,47.5990394 C88.3642575,48.3502507 87.0531053,49.279293 85.4746799,49.7213775 C84.7787607,49.9158282 84.5014016,50.5507014 84.2845572,51.2154901 C83.3902842,53.9461099 82.6657886,56.7398845 81.3916177,59.3358845 C80.9276715,60.2832085 80.4082536,61.2105887 79.8300018,62.0930958 C78.6398791,63.906307 77.4867377,65.7544197 76.0663228,67.4047577 C75.5334572,68.0230113 75.0745539,68.7991521 74.0642944,68.8224197 C72.9464532,68.8490113 72.1597619,68.2074901 72.1110139,67.1056028 C72.0504992,65.7278282 72.1967431,64.3633493 72.5833649,63.0337718 C72.9296435,61.8404761 73.190193,60.6438563 73.2238123,59.3874056 C73.2490267,58.4134901 73.6642249,57.4960817 73.9953749,56.5853211 C74.5215167,55.1360817 74.6912941,53.5638563 75.5469049,52.224307 C75.6763391,52.0215465 75.6259102,51.7074338 75.6595295,51.4431803 C75.7150013,51.3800254 75.777197,51.3201944 75.824264,51.2520535 C75.8377117,51.2337718 75.7956876,51.1539972 75.7940066,51.1539972 C75.635996,51.1988704 75.6914678,51.340138 75.6612105,51.4448423 M98.5441771,45.8506451 C98.5626677,45.8223915 98.5794773,45.794138 98.5979679,45.7658845 C98.5811583,45.7958 98.5660296,45.8257155 98.54922,45.855631 C97.4633171,46.1464761 96.3084946,46.4389831 95.5402939,47.2417155 C94.5720585,48.2555183 93.7366193,49.4222225 93.0003569,50.6171803 C91.9564781,52.3074056 90.9075564,53.997631 90.0485837,55.8008704 C89.231635,57.5160254 88.2499519,59.1563915 87.3892982,60.8532648 C87.1842205,61.255462 87.1724538,61.7557155 87.0514244,62.3041662 C87.9759547,61.787293 88.4936917,61.3252648 88.8013082,60.7552085 C89.4938654,59.4671803 90.3528382,58.2905042 91.2303015,57.122138 C91.5211084,56.7332366 91.9884164,56.5155183 92.1834083,56.0285606 C92.7767887,54.5460817 93.8828632,53.3644197 94.7115785,52.0198845 C95.9807066,49.9623634 97.2515156,47.8981944 98.5441771,45.8506451 M21.4988607,37.8748423 C20.5810542,39.6830676 19.7288053,41.3633211 18.8748754,43.0435746 C17.952026,44.8584479 17.0224528,46.6699972 16.1113702,48.4898563 C15.3011454,50.105293 14.379977,51.6608986 13.6588433,53.3295183 C13.3159266,54.1272648 13.2873502,55.0679408 12.6435409,55.7410394 C12.4788064,55.9122225 12.3645008,56.1249549 12.5594927,56.3210676 C12.8217231,56.5853211 13.0469723,56.3609549 13.2520499,56.1964197 C13.813492,55.7460254 14.0135267,55.0380254 14.5396686,54.5228141 C15.3582982,53.7217437 16.1029653,52.7910394 16.6560026,51.7938563 C17.6998814,49.9224761 19.1236581,48.3502507 20.4886011,46.738138 C21.6619142,45.3537155 22.7730316,44.0208141 22.3460666,42.0380817 C22.2636994,41.6508423 22.2889139,41.1888141 22.5780397,40.8929831 C23.2890876,40.1700254 23.0756051,39.3224197 23.1092244,38.3933775 C22.6873024,38.772307 22.8184176,39.3174338 22.3712811,39.5883352 C21.9157398,39.1512366 21.9712116,38.4980817 21.4988607,37.8748423 M28.2042271,26.2942225 C27.7671764,26.324138 27.6175706,26.5900535 27.5385653,26.7928141 C27.1956486,27.6653493 26.5451154,28.3484197 26.1198314,29.1694338 C25.1280625,31.0906732 24.1329317,33.0119127 23.1058625,34.9148704 C22.5410585,35.9602507 22.5225679,36.1015183 23.2806828,37.0288986 C23.4739937,37.2665606 23.6857952,37.4892648 23.931216,37.7668141 C24.2909423,37.4925887 24.8372557,37.3214056 24.8826417,36.8976028 C25.010395,35.7192648 25.7701909,34.7918845 26.0273784,33.6667296 C26.4089573,31.9931239 26.9603136,30.3560817 27.3234019,28.6808141 C27.4999031,27.8647859 28.022683,27.1817155 28.2042271,26.2942225 M34.7885642,55.3754056 C34.6187868,55.4518563 34.5347386,55.5565606 34.5582721,55.6895183 C34.5784436,55.7925606 34.6793015,55.8008704 34.7566259,55.7161099 C34.8104167,55.6546169 34.8675695,55.5814901 34.8826982,55.5067014 C34.9028698,55.4036592 34.8389931,55.3604479 34.7885642,55.3754056 M97.6364564,51.9550676 C97.5927513,52.0016028 97.5440033,52.0381662 97.5171079,52.0880254 C97.5019792,52.1146169 97.5103841,52.1678 97.5255127,52.1993775 C97.5759417,52.2957718 97.6431802,52.2907859 97.6700757,52.1810958 C97.6852043,52.1162789 97.6515851,52.0381662 97.6364564,51.9550676" id="Fill-3" fill="#C4486C" mask="url(#mask-2)"></path>
                    </g>
                    <path d="M120.580442,21.3425437 C121.084731,21.6516704 121.684836,21.6699521 122.310154,21.4339521 C122.409331,21.3957268 122.575747,21.4622056 122.683328,21.5253606 C123.249813,21.8610789 123.616263,23.2903746 123.306966,23.9069662 C122.764015,24.9922338 122.295026,25.1135577 121.177184,24.5833887 C120.47286,24.2476704 119.86267,23.8454732 119.544968,23.1225155 C119.168432,22.2616141 119.68785,21.3109662 120.580442,21.3425437" id="Fill-6" fill="#231F20"></path>
                    <path d="M78.1535762,14.417107 C78.9789296,14.2509099 79.7303207,14.5068535 80.2934437,15.2580648 C80.3976635,15.3976704 80.6010602,15.6170507 80.4817117,15.6951634 C79.9740605,16.0308817 80.04298,16.8236423 79.5302859,17.0197549 C78.9032862,17.2590789 78.2006432,17.604769 77.4963191,17.1178113 C77.1685311,16.8917831 76.8121667,16.7056423 76.4810167,16.486262 C76.1011188,16.2336423 75.7363496,15.9378113 75.904446,15.4159521 C76.0893521,14.8392479 76.4137782,14.3855296 77.1298689,14.4154451 C77.4408473,14.4270789 77.7518257,14.417107 78.1535762,14.417107" id="Fill-8" fill="#231F20"></path>
                    <path d="M62.824863,52.5543746 C62.7240051,53.6662338 62.0516194,54.3210507 61.6868502,55.1138113 C60.9623546,56.6860366 59.9689047,58.0405437 58.6930528,59.2737268 C57.460906,60.4636986 56.2623785,61.7417549 55.3092717,63.1993042 C54.9108832,63.8059239 54.356165,64.276262 53.8064897,64.7382901 C54.0115673,63.8142338 61.9490806,53.1826 62.824863,52.5543746" id="Fill-10" fill="#231F20"></path>
                    <path d="M53.1379702,65.1268592 C53.2068897,65.1567746 53.2758092,65.1850282 53.3447288,65.2149437 C53.3127905,65.2830845 53.2976618,65.3861268 53.2455519,65.4077324 C53.1984849,65.429338 53.1110747,65.3611972 53.0421552,65.3329437 C53.0740935,65.2631408 53.1060319,65.195 53.1379702,65.1268592" id="Fill-12" fill="#231F20"></path>
                    <path d="M86.6056326,46.9204563 C86.6241232,46.8855549 86.6493377,46.8190761 86.6577425,46.820738 C86.7401098,46.8390197 86.7199382,46.8755831 86.6005897,46.9154704 L86.6056326,46.9204563 Z" id="Fill-14" fill="#231F20"></path>
                    <path d="M57.5237741,46.6525465 C57.5439456,46.6176451 57.5708411,46.5495042 57.5826078,46.5511662 C57.668337,46.5727718 57.6481654,46.6109972 57.5220931,46.6508845 L57.5237741,46.6525465 Z" id="Fill-16" fill="#231F20"></path>
                    <path d="M53.4864341,41.0636676 C53.5049247,41.0287662 53.5301391,40.9639493 53.5402249,40.9656113 C53.6209112,40.983893 53.6007396,41.0204563 53.4813912,41.0586817 L53.4864341,41.0636676 Z" id="Fill-18" fill="#231F20"></path>
                    <path d="M116.219684,48.5116282 C116.202875,48.5448676 116.179341,48.6096845 116.169256,48.6063606 C116.091931,48.5930648 116.112103,48.5565014 116.226408,48.5182761 L116.219684,48.5116282 Z" id="Fill-20" fill="#231F20"></path>
                </g>
                <polygon id="Fill-23" fill="#231F20" points="51.5375211 63.4402963 51.585769 63.4861852 51.6471754 63.3703704"></polygon>
                <g id="Group-32" transform="translate(177.059444, 46.404173)" fill="#231F20">
                    <path d="M0.646847169,9.84036338 C0.697014011,9.82725227 0.762230906,9.86986338 0.740491941,9.9698356 C0.725441889,10.0452245 0.668586134,10.1173356 0.615074836,10.1763356 C0.538152344,10.2615578 0.437818659,10.2517245 0.419424151,10.1517523 C0.394340729,10.0190023 0.477952133,9.91575227 0.646847169,9.84036338" id="Fill-24"></path>
                    <path d="M63.1687794,6.46753005 C63.1821572,6.55111338 63.217274,6.62650227 63.202224,6.69041893 C63.1737961,6.80022449 63.106907,6.80514116 63.0584124,6.70844671 C63.0433623,6.67730782 63.0350012,6.62650227 63.0500512,6.59864116 C63.0768069,6.55111338 63.1236293,6.51505782 63.1687794,6.46753005" id="Fill-26"></path>
                    <path d="M41.3074073,5.96504671 C41.3375074,5.86179671 41.2823239,5.72249116 41.4395133,5.67824116 C41.4411856,5.67824116 41.4829913,5.75690782 41.4696134,5.7749356 C41.4227911,5.84213005 41.3609186,5.90113005 41.3057351,5.96340782 L41.3074073,5.96504671 Z" id="Fill-28"></path>
                    <path d="M64.0767993,0.453791157 C64.0935216,0.424291157 64.1085716,0.394791157 64.1252939,0.365291157 C64.1068994,0.393152268 64.0901771,0.421013379 64.0717826,0.448874491 L64.0767993,0.453791157 Z" id="Fill-30"></path>
                </g>
            </g>
        </g>
    </g>
</svg>