<?xml version="1.0" encoding="UTF-8"?>
<svg width="279px" height="108px" viewBox="0 0 279 108" version="1.1" xmlns="http://www.w3.org/2000/svg" xmlns:xlink="http://www.w3.org/1999/xlink">
    <!-- Generator: Sketch 47.1 (45422) - http://www.bohemiancoding.com/sketch -->
    <title>Page 1</title>
    <desc>Created with Sketch.</desc>
    <defs>
        <polygon id="path-1" points="0.204724275 0.0988732394 148.531885 0.0988732394 148.531885 70.9758602 0.204724275 70.9758602 0.204724275 0.0988732394"></polygon>
    </defs>
    <g id="Page-1" stroke="none" stroke-width="1" fill="none" fill-rule="evenodd">
        <g id="Desktop-HD-Copy-5" transform="translate(-270.000000, -477.000000)">
            <g id="Page-1" transform="translate(270.000000, 477.000000)">
                <g id="Group-22">
                    <path d="M47.3021505,57.5615662 C48.212733,57.258862 48.7508044,56.5424113 49.2168264,55.7848901 C50.0247,54.4721577 50.8479033,53.1761577 51.9409088,52.0718197 C52.9756615,51.0268056 53.653233,49.7171155 54.533156,48.5580169 C55.4789967,47.3122141 56.1994912,45.8610592 57.0993429,44.5985239 C58.4728813,42.6712563 59.5536231,40.5112563 61.3104033,38.8562704 C61.7013099,38.4881577 62.0370297,38.1580732 62.6885407,38.5322704 C63.229678,38.8441014 63.4105681,39.1209465 63.2557385,39.7202704 C62.8724967,41.2170592 62.3834802,42.6590873 61.604733,44.0128901 C61.1264473,44.8403831 60.8167879,45.763707 60.4350791,46.6459606 C60.3860242,46.7585239 60.3614967,46.9015099 60.4933319,46.9669183 C60.5899088,47.0140732 60.7478044,47.047538 60.8275187,47.0003831 C61.0360022,46.878693 61.2214912,46.7174535 61.4054473,46.5577352 C63.0549198,45.1187493 64.7105242,43.7056225 66.5730791,42.5145803 C67.928222,41.6490592 69.0595516,40.4397634 70.2874582,39.3810592 C70.3779033,39.3034817 70.4330901,39.1833127 70.5250681,39.1042141 C71.5812824,38.191538 72.2695846,38.3497352 72.8061231,39.6366085 C73.1203813,39.5864113 73.4392385,39.487538 73.7550297,39.4966648 C74.5552385,39.5210028 74.6640791,39.8495662 74.5368429,40.6496789 C74.2624418,42.3685521 73.0912549,43.6021859 72.2956451,45.0396507 C71.1980407,47.0216789 70.068244,48.9839324 69.0135626,50.9918197 C68.2240846,52.4916507 67.4790626,54.0203831 66.7463044,55.5399887 C65.9047055,57.2816789 65.0952989,59.047707 64.3058209,60.8182986 C64.2291725,60.9901859 64.2674967,61.2122704 64.3318813,61.4526085 C65.1719473,60.4730028 66.0580022,59.6090028 66.5930077,58.338862 C67.2199912,56.8420732 67.975744,55.3574535 69.0365571,54.0508056 C69.9486725,52.926693 70.5679912,51.595707 71.2394308,50.3057915 C71.7207824,49.3779042 72.2159308,48.4500169 72.8628429,47.599707 C74.0892165,45.9903549 75.2205462,44.3079887 76.3902,42.6560451 C76.5297,42.4567775 76.6354747,42.2240451 76.810233,42.0612845 C77.7775352,41.1486085 78.7341066,40.2222423 79.7489308,39.3643268 C80.529211,38.7056789 81.3432165,39.0798761 81.4535901,40.1081577 C81.5608978,41.1029746 81.1945187,42.0262986 80.947711,42.9633127 C80.8572659,43.3025239 80.5920626,43.6158761 80.9323813,44.1132845 C81.7448538,43.0758761 82.5833868,42.1114817 83.2885516,41.0603831 C83.7177824,40.4184676 84.2251945,39.8419606 84.6574912,39.2046085 C85.0744582,38.5900732 85.7520297,38.4014535 86.248711,38.635707 C86.7407934,38.8684394 86.9952659,39.3764958 86.8404363,40.0975099 C86.4510626,41.9046085 85.9451835,43.6691155 85.037667,45.3134535 C84.6866176,45.9538479 84.200667,46.5972845 84.1899363,47.371538 C84.576244,47.5723268 84.714211,47.3152563 84.8690407,47.1540169 C85.8838648,46.1013972 86.9094198,45.0579042 87.8859198,43.9733408 C88.249233,43.5687211 88.6891945,43.2812282 89.1076945,42.9678761 C89.9707549,42.3244394 90.8077549,42.6712563 91.0101066,43.7238761 C91.0867549,44.1239324 91.0530297,44.5331155 90.9043319,44.9240451 C90.6743868,45.5294535 90.4858319,46.1561577 90.2068319,46.7387493 C89.595178,48.019538 89.0233813,49.3170592 88.4577165,50.6176225 C87.9778978,51.7204394 87.2482055,52.7167775 86.6150901,53.7526648 C86.4311341,54.055369 86.1873923,54.3261296 86.1935242,54.8554817 C86.9523429,54.5603831 87.4275626,54.283538 87.8552604,53.5549183 C88.6631341,52.1737352 89.6273703,50.8503549 90.803156,49.7186366 C90.9487879,49.578693 91.1404088,49.4524394 91.2139912,49.2805521 C92.0755187,47.2559324 93.8614253,45.9082141 95.0326121,44.1148056 C96.0566341,42.5465239 97.4654308,41.2779042 98.477189,39.7050592 C98.7776505,39.2365521 99.1992165,39.1285521 99.6330462,39.3141296 C100.109799,39.5179606 100.36887,39.9423549 100.247766,40.5021296 C100.051546,41.4163268 99.5134747,42.1905803 99.1486286,43.0348056 C98.7362604,43.9900732 98.3238923,44.9620732 97.7107055,45.8291155 C97.5390132,46.0724958 97.3106011,46.3691155 97.6110626,46.7691718 C98.1552659,46.1242141 98.802178,45.5568338 99.1946176,44.8495099 C99.9718319,43.4500732 101.089365,42.3442141 102.167041,41.2094535 C102.774096,40.5705803 103.497656,40.0092845 104.474156,39.9712563 C105.649942,39.9241014 106.468546,40.7363831 106.220205,41.8726648 C106.034716,42.7199324 106.039315,43.5595944 105.993326,44.406862 C105.889085,44.4418479 105.870689,44.4753127 105.941205,44.4874817 C105.950403,44.4890028 105.971865,44.4312 105.987195,44.4007775 C106.764409,44.203031 107.192107,43.5641577 107.621337,42.9998197 C108.58864,41.7251155 109.758293,40.6709746 111.02759,39.7217915 C111.648442,39.2578479 112.347475,38.9429746 113.179876,39.2304676 C114.015343,39.5210028 114.124184,39.6335662 114.156376,40.531031 C114.167107,40.8474254 114.157909,41.1638197 114.157909,41.4923831 C114.574876,41.5167211 114.633129,41.1851155 114.781826,40.9706366 C115.845705,39.438862 116.963238,37.939031 117.846227,36.2931718 C118.473211,35.1264676 119.011282,33.9110873 119.586145,32.7170028 C119.690387,32.4994817 119.751705,32.2500169 119.897337,32.0644394 C120.044502,31.878862 120.277513,31.7389183 120.542716,31.7982423 C120.818651,31.8590873 120.925958,32.0887775 120.961216,32.3382423 C121.025601,32.7808901 121.060859,33.2281014 120.872304,33.655538 C120.134947,35.322693 119.604541,37.0689465 118.822727,38.7208901 C117.933607,40.6025239 116.624453,42.2057915 115.479326,43.9185803 C114.738903,45.0259606 114.049068,46.1683268 113.30098,47.2711437 C111.475216,49.9559324 109.710771,52.6848338 108.275914,55.5901859 C107.579947,56.9987493 106.784337,58.3692845 106.240134,59.8599887 C105.92281,60.7285521 105.467519,61.5514817 105.038288,62.3774535 C104.892656,62.6573408 104.665777,62.9159324 104.423568,63.1243268 C103.986673,63.4954817 103.424074,63.3251155 103.290705,62.7759887 C103.057695,61.8161577 103.097552,60.8806648 103.548244,59.958862 C104.589129,57.8262423 105.694398,55.7270873 106.502271,53.4819042 C106.897777,52.386693 107.587612,51.3979606 108.122618,50.3499042 C108.887568,48.847031 109.537546,47.2772282 110.417469,45.8458479 C111.093508,44.7491155 111.372508,43.5489465 111.783343,42.3776789 C111.835464,42.2270873 111.870722,42.0612845 111.695964,41.8422423 C111.090442,42.2727211 110.45426,42.6925521 109.997436,43.279707 C108.772596,44.8555944 107.173711,46.0953127 105.993326,47.7031437 C104.464958,49.7810028 102.703579,51.6778479 101.586046,54.067538 C100.634074,56.1043268 99.6637055,58.1624113 98.1874582,59.9314817 C97.7091725,60.5064676 97.4945571,61.2959324 97.1419747,61.9789183 C96.7740626,62.6908056 96.292711,63.0117634 95.8558154,62.8642141 C95.2625571,62.6649465 94.9207055,61.8496225 95.1583154,61.1453408 C95.2610242,60.8395944 95.3974582,60.5414535 95.5446231,60.2524394 C96.0413044,59.2789183 96.6483593,58.3616789 97.0040077,57.3166648 C97.2722769,56.5302423 97.8900626,55.9613408 98.386744,55.3255099 C99.5502659,53.8378479 100.183381,52.0687775 101.09703,50.4487775 C101.576848,49.6015099 102.041337,48.7512 102.216096,47.7776789 C102.251354,47.5814535 102.285079,47.335031 102.415381,47.2102986 C103.465464,46.2033127 103.465464,44.7278197 104.100112,43.5382986 C104.23348,43.2873127 104.104711,43.0500169 103.934552,42.8796507 C103.700008,42.6453972 103.450134,42.8401014 103.284574,42.9846085 C102.645326,43.542862 101.978486,44.1421859 101.518596,44.8008338 C100.821096,45.798693 99.9135791,46.615538 99.2865956,47.6712 C98.3821451,49.1968901 97.3182659,50.6267493 96.3448319,52.1128901 C95.6350681,53.1974535 94.9237714,54.2850592 94.2799253,55.4091718 C93.3800736,56.9820169 92.4940187,58.5655099 91.7076066,60.1946366 C91.4010132,60.8289465 90.9871121,61.3643831 90.6161341,61.939369 C90.2850132,62.4535099 89.7530736,62.5554254 89.2058044,62.4215662 C88.6125462,62.275538 88.5788209,61.7522704 88.5420297,61.2533408 C88.4960407,60.6342423 88.5175022,59.9847211 88.8654857,59.4857915 C89.8481176,58.0696225 90.2804143,56.4161577 90.993244,54.8859042 C91.7965187,53.1639887 92.5599363,51.4253408 93.5364363,49.7901296 C93.6636725,49.5756507 93.8016396,49.3246648 93.5165077,49.1664676 C93.3080242,49.050862 93.1102714,49.254693 93.0136945,49.4174535 C92.2027549,50.7727775 91.0208374,51.8542986 90.2144967,53.2202704 C89.8067275,53.910862 89.2333978,54.5132282 88.6891945,55.1125521 C88.1511231,55.7042704 87.5134088,56.1697352 87.2788648,57.030693 C87.130167,57.5782986 86.4663923,57.8810028 86.0754857,58.3495099 C85.0667934,59.5664113 84.4750681,61.0966648 83.1735791,62.0899606 C82.7290187,62.4291718 82.3672385,63.0072 81.7233923,62.766862 C81.0458209,62.5128338 81.1899198,61.8465803 81.1822549,61.2852845 C81.1699912,60.5125521 81.4060681,59.8432563 81.6942659,59.107031 C82.0759747,58.1365521 82.6048484,57.2406085 82.994222,56.2792563 C83.3866615,55.314862 84.0627,54.4675944 84.5639802,53.5412282 C85.3687879,52.0550873 86.2563758,50.611538 86.8956231,49.0371718 C87.1408978,48.4332845 87.7939418,47.9952 87.6728374,47.106862 C86.3544857,48.3283268 85.3090022,49.6577915 84.1822714,50.9127211 C82.3304473,52.975369 80.7714198,55.2570592 79.3595571,57.6208901 C78.6743209,58.7662986 77.8664473,59.8295662 77.2302659,61.0038761 C76.8087,61.782693 76.3028209,62.5158761 75.8459967,63.2779606 C75.7141615,63.4970028 75.5455352,63.6582423 75.320189,63.7677634 C74.8173758,64.0126648 74.435667,63.8270873 74.3329582,63.2733972 C74.2164527,62.6436507 74.4249363,62.0610592 74.6916725,61.5134535 C75.3462495,60.1718197 76.0084912,58.8332282 76.7243868,57.5250592 C76.9803923,57.0565521 77.1428868,56.5545803 77.7100846,56.2016789 C78.1776396,55.9096225 78.2910791,55.0927775 78.4888319,54.5132282 C78.7923593,53.6218479 79.2522495,52.8110873 79.7213374,52.0413972 C81.0534857,49.8616225 81.7709143,47.3867493 83.1613154,45.2450028 C83.2762879,45.0685521 83.4065901,44.8647211 83.1705132,44.7293408 C82.9727604,44.6167775 82.7872714,44.7491155 82.669233,44.9438197 C81.8077055,46.3691155 80.762222,47.6696789 79.736667,48.9748056 C77.3375736,52.0322704 75.6620407,55.471538 73.9834418,58.9427493 C73.2721451,60.4121577 72.4627385,61.8724394 71.6609967,63.3159887 C71.412656,63.7647211 71.0861341,64.0111437 70.5695242,63.8316507 C70.1464253,63.6841014 69.8291011,62.9646085 70.0099912,62.491538 C70.483678,61.2442141 70.8853154,59.9542986 71.5122989,58.7845521 C72.717211,56.5378479 73.8286121,54.2439887 75.0304582,51.9957634 C75.7570846,50.6389183 76.4760462,49.279031 77.086167,47.8704676 C77.6457,46.5759887 78.0120791,45.2008901 78.8046231,44.0052845 C79.0177055,43.6828056 78.9763154,43.3055662 78.9763154,42.9404958 C79.085156,42.9039887 79.1035516,42.8690028 79.0284363,42.8537915 C79.0192385,42.8507493 78.996244,42.9115944 78.9809143,42.943538 C78.108656,43.2538479 77.7729363,44.0813408 77.2501945,44.7232563 C75.4857495,46.8923831 74.2256505,49.3992 72.5807769,51.6519887 C71.9415297,52.5296789 71.5429582,53.5701296 70.997222,54.5162704 C70.7274198,54.9832563 70.3273154,55.3042141 70.0483154,55.7483831 C68.8035462,57.7380169 67.8209143,59.8706366 66.5408868,61.843538 C65.9476286,62.7577352 65.2915187,63.4985239 64.2935571,63.9563831 C63.7064308,64.2256225 63.3477165,64.1084958 62.9430132,63.5958761 C62.4555297,62.9798197 62.2163868,62.4519887 62.441733,61.6168901 C62.624156,60.9384676 63.0702495,60.1855099 62.5582385,59.3184676 C61.8929308,60.0942423 61.1877659,60.7620169 60.672689,61.5545239 C59.9843868,62.611707 59.1289912,63.5441577 58.4774802,64.6195944 C57.9424747,65.503369 57.1499308,66.1528901 56.4539637,66.8906366 C56.0860516,67.2800451 55.6322934,67.4625803 55.1233484,67.2754817 C54.5990736,67.0807775 54.4519088,66.5803268 54.4135846,66.0874817 C54.3859912,65.7300169 54.3691286,65.3162704 54.5193593,65.0105239 C55.4621341,63.0893408 56.1397055,61.0586366 57.1437989,59.1541859 C57.7140626,58.0696225 58.3195846,56.9394254 58.627711,55.7057915 C58.7626121,55.1688338 59.0646066,54.6638197 59.3420736,54.1709746 C60.0962934,52.8262986 60.3385022,51.2656225 61.1908319,49.9741859 C60.9332934,49.6958197 60.7585352,49.8312 60.5699802,50.0259042 C59.4723758,51.1561014 58.3655736,52.278693 57.2679692,53.4088901 C57.1284692,53.5518761 56.998167,53.7161577 56.904656,53.8926085 C55.8453758,55.8883268 54.8412824,57.9159887 53.7268154,59.8828056 C52.4513868,62.1340732 51.4273648,64.5131155 50.0476945,66.7172282 C48.8504473,68.6292845 47.9505956,70.7223549 46.8238648,72.6815662 C46.0405187,74.0429746 45.4089363,75.4804394 44.582667,76.8281577 C43.9526176,77.8579606 43.4191451,78.9988056 42.9239967,80.1335662 C42.5284912,81.0355944 42.1605791,81.9513127 41.5473923,82.7772845 C41.0093209,83.5043831 40.6521396,84.3896789 40.215244,85.2050028 C39.0011341,87.4730028 38.2821725,89.9935099 36.6480297,92.0485521 C36.1022934,93.8799887 34.9357055,95.4239324 34.2489363,97.2021296 C33.6848044,98.659369 32.8937934,100.045115 32.076722,101.386749 C31.1523429,102.904834 30.5652165,104.610017 29.4154912,105.994242 C28.9739967,106.525115 28.5371011,107.060552 28.0741451,107.571651 C27.7154308,107.967144 27.2248813,108.035594 26.7190022,107.985397 C26.1134802,107.926073 25.9203264,107.699425 26.0444967,107.104665 C26.308167,105.840608 26.5457769,104.571989 26.774189,103.30489 C26.9688758,102.221848 27.1819582,100.98213 28.0971396,100.119651 C28.3178868,99.9127775 28.4067989,99.6450592 28.3914692,99.3469183 C28.3270846,98.0372282 28.7793099,96.7959887 28.8912165,95.5106366 C28.9188099,95.2109746 29.0123209,94.9752 29.2223374,94.7546366 C29.4492165,94.5158197 29.5396615,94.2085521 29.6163099,93.8815099 C29.9167714,92.6037634 30.1344527,91.3123268 30.9055352,90.1669183 C31.2734473,89.6208338 31.4006835,88.8830873 31.5141231,88.2107493 C31.6459582,87.4380169 31.9295571,86.7489465 32.2514802,86.0446648 C32.4860242,85.5305239 33.1068758,85.1243831 32.8340077,84.4246648 C32.8232769,84.3942423 32.8401396,84.3242704 32.864667,84.3105803 C33.7859802,83.8086085 33.6326835,82.7210028 34.0634473,81.9513127 C34.4543538,81.2500732 34.7762769,80.4119324 35.1058648,79.6285521 C35.6684637,78.2930028 36.2985132,76.9772282 37.006744,75.7101296 C38.5443099,72.9584113 40.7057934,70.5808901 41.9520956,67.6512 C42.1007934,67.302862 42.3951231,67.0822986 42.6557275,66.8252282 C44.4799582,65.022693 46.0328538,62.9919887 47.5903484,60.9688901 C47.654733,60.8852282 47.6470681,60.7483268 47.6700626,60.6494535 C47.4784418,60.4775662 47.282222,60.4927775 47.0737385,60.5216789 C45.7415901,60.6981296 44.8586011,59.9056225 45.1314692,58.6552563 C45.4733209,57.0930592 45.5269747,55.422862 46.6061835,54.0888338 C46.6414418,52.7182986 47.6409363,51.7858479 48.1866725,50.6450028 C48.6480956,49.6836507 49.422244,48.9139606 49.8821341,47.9891155 C50.7559253,46.2337352 52.2076451,44.7475944 52.4575187,42.6971155 C52.5724912,42.6606085 52.5908868,42.6256225 52.5127055,42.6058479 C52.5019747,42.6043268 52.4774473,42.666693 52.4590516,42.6986366 C52.0911396,42.715369 51.9133154,42.9602704 51.6987,43.2279887 C50.1320077,45.1917634 48.5039967,47.1038197 46.7978044,48.9504676 C43.9434198,52.0398761 41.749744,55.5399887 40.1799857,59.4295099 C39.9224473,60.066862 39.6403813,60.6966085 39.3797769,61.3339606 C39.2080846,61.7522704 38.9536121,62.0625803 38.4584637,61.902862 C37.9924418,61.7507493 37.7425681,61.4358761 37.7824253,60.8913127 C37.9173264,59.0294535 38.5228484,57.3349183 39.5882604,55.8092282 C40.3762055,54.6775099 40.8360956,53.3556507 41.6485681,52.2543549 C42.5208264,51.0739606 43.0221066,49.698862 43.7824582,48.4591437 C44.352722,47.526693 44.7896176,46.4755944 45.468722,45.5887775 C45.8642275,45.0746366 45.7998429,44.4464113 46.0589143,43.8912 C46.860656,42.1723268 47.9153374,40.5736225 48.5055297,38.7589183 C48.6297,38.3755944 48.8044582,37.9998761 48.7737989,37.5800451 C48.8826396,37.543538 48.9010352,37.5100732 48.8259198,37.494862 C48.816722,37.4918197 48.7937275,37.5526648 48.7768648,37.5830873 C48.2863154,37.6119887 47.9459967,37.939031 47.6394033,38.2462986 C46.2045462,39.6776789 44.8402055,41.2018479 43.7226725,42.8690028 C42.6940516,44.4007775 41.6684967,45.955369 40.5524967,47.4019606 C38.863167,49.590862 37.4022495,51.9288338 35.7420462,54.1344676 C34.4727495,55.8213972 33.2019198,57.4931155 31.7318044,59.0112 C31.100222,59.6637634 30.3613319,60.1398761 29.5013374,60.4623549 C28.0833429,60.9932282 26.7159363,60.4288901 26.1119473,59.023369 C26.0184363,58.8058479 25.8988648,58.6004958 25.7700956,58.3479887 C24.4931341,58.8621296 23.5856176,59.8143549 22.5539308,60.5779606 C21.054689,61.686862 19.6198319,62.8687775 17.9029088,63.6643268 C16.8788868,64.1389183 15.8839912,64.5465803 14.7541945,64.1328338 C14.1410077,63.907707 13.6412604,64.0476507 13.195167,64.4872563 C13.1369143,64.5450592 13.0801945,64.6348056 13.012744,64.6454535 C11.5395626,64.8949183 10.9769637,66.1224676 10.2442055,67.1690028 C9.66167802,67.999538 9.06995275,68.8224676 8.48895824,69.6530028 C8.27894176,69.9541859 8.04593077,70.2644958 8.04133187,70.638693 C8.03366703,71.1802141 7.9002989,71.5802704 7.31163956,71.7491155 C6.99431538,71.838862 7.03110659,72.2176225 6.88547473,72.4533972 C6.38266154,73.2732845 5.90130989,73.2976225 5.29118901,72.5324958 C4.50630989,71.5468056 4.78990879,70.5200451 5.26972747,69.5617352 C5.70509011,68.6886085 6.06073846,67.9052282 5.42149121,66.966693 C5.1148978,66.5149183 5.21147473,65.9368901 5.39236484,65.4303549 C5.79706813,64.2986366 6.27995275,63.2216789 6.87014505,62.1492845 C7.72860659,60.5886085 8.59473297,59.0035944 9.2723044,57.3303549 C9.9698044,55.6084394 10.8880516,53.9747493 11.6790626,52.2893408 C12.6417659,50.2342986 13.6581231,48.2035944 14.6284912,46.1546366 C15.2094857,44.9270873 15.333656,43.5033127 16.2764308,42.4309183 C16.5048429,42.1708056 16.6060187,41.7783549 16.7087275,41.431538 C17.1379582,39.991031 17.9121066,38.7330592 18.7215132,37.4857352 C19.1614747,36.8088338 19.520189,36.078693 19.8957659,35.3622423 C20.0643923,35.0412845 20.0582604,34.6792563 19.6704198,34.5423549 C19.0495681,34.3248338 18.4900352,34.0632 18.5559527,33.3056789 C18.6218703,32.5527211 19.0035791,31.9229746 19.6489582,31.5122704 C20.404711,31.0315944 21.1558648,30.511369 21.9775352,30.1767211 C23.242233,29.6610592 24.0470407,28.6799324 24.6433648,27.5923268 C25.5723429,25.8993127 26.6484857,24.3173408 27.7828813,22.7627493 C27.8518648,22.6684394 27.8855901,22.5406648 27.9116505,22.423538 C28.3056231,20.6879324 29.6898923,19.8072 31.0251066,18.8914817 C31.5294527,18.5461859 32.2576121,18.5933408 32.5963978,18.9994817 C32.9980352,19.4801577 32.9489802,20.0368901 32.5212824,20.4262986 C31.9586835,20.9389183 32.1457055,21.6401577 31.9188264,22.2303549 C31.7808593,22.5878197 32.1303758,22.7232 32.446167,22.6806085 C32.8616011,22.6258479 33.2249143,22.4098479 33.5039143,22.1071437 C34.1646231,21.3891718 34.9801615,20.8780732 35.7451121,20.2893972 C37.3179363,19.0801014 38.8463044,17.7734535 40.1140681,16.2203831 C41.2637934,14.8118197 42.4119857,13.4017352 43.5172549,11.9566648 C44.1718319,11.1002704 44.6117934,10.1054535 45.1467989,9.17300282 C45.6450132,8.30443944 45.9746011,7.33852394 46.6261121,6.55514366 C46.8315297,6.3072 47.1043978,6.03187606 46.9434363,5.69266479 C46.7426176,5.26827042 46.2980571,5.4203831 45.9592714,5.44928451 C45.516244,5.4888338 45.0670846,5.58010141 44.6439857,5.71852394 C42.4349802,6.44410141 40.1937824,7.09058028 38.0828868,8.07779155 C36.540722,8.80032676 34.8713209,9.22167887 33.3996725,10.1008901 C31.5877055,11.1839324 29.7604088,12.2395944 27.9637714,13.3500169 C25.1293154,15.1008338 22.3607769,16.9657352 19.7746615,19.0557634 C18.2095022,20.322862 16.7255901,21.714693 15.3658484,23.2251718 C13.6841835,25.0915944 12.0653703,26.9975662 10.5538648,29.0100169 C9.53904066,30.3638197 8.24828242,31.5092282 7.35456264,32.9801577 C6.41025495,34.5332282 5.28659011,35.9782986 4.48638132,37.6211155 C4.46798571,37.6576225 4.44652418,37.6910873 4.42966154,37.7291155 C4.16292527,38.3314817 4.26716703,39.0357634 4.07401319,39.5909746 C3.92684835,40.0123268 3.25080989,40.2754817 2.8920956,40.8124394 C2.24978242,41.7707493 2.64375495,42.4491718 3.14196923,43.147369 C3.36424945,43.4607211 3.66164505,43.6371718 3.35811758,44.0585239 C3.07911758,44.4479324 2.82157912,44.7962704 2.27124396,44.5072563 C2.20226044,44.4707493 2.11641429,44.4585803 2.0367,44.443369 C0.324375824,44.1148056 -0.754832967,43.2279887 0.638634066,41.0801577 C0.870112088,40.722693 0.914568132,40.3226366 1.05713407,39.9514817 C1.72704066,38.2021859 2.92888681,36.7525521 3.75515604,35.0945239 C4.33155165,33.9399887 4.91407912,32.7884958 5.47361209,31.6248338 C5.59624945,31.3692845 5.72655165,31.1365521 5.89671099,30.9038197 C6.64786484,29.8724958 7.22885934,28.6814535 8.12411209,27.7992 C8.83234286,27.1010028 9.32902418,26.3602141 9.7092,25.4886085 C9.79351319,25.2939042 9.95907363,25.1646085 10.1522275,25.087031 C11.1302604,24.6976225 11.6392055,23.9112 11.9841231,22.9802704 C12.0255132,22.867707 12.0807,22.7536225 12.1573484,22.6638761 C12.6494308,22.0904113 13.4235791,21.7010028 13.7822934,21.1488338 C14.1992604,20.5099606 14.6330901,19.9897352 15.2554747,19.627707 C15.8318703,19.291538 16.1491945,18.7089465 16.5079088,18.2373972 C16.7930407,17.8616789 17.0229857,17.551369 17.4583484,17.4464113 C18.2309637,17.2593127 18.6004088,16.5717634 19.1752714,16.1412845 C19.4665352,15.9237634 19.6734857,15.6271437 20.1287769,15.7838197 C20.5258154,15.9192 20.8186121,15.6028056 21.1052769,15.3883268 C22.2733978,14.5182423 23.5396286,13.7804958 24.6219033,12.7917634 C24.9147,12.5240451 25.3178703,12.3658479 25.6888484,12.2000451 C27.2831341,11.4896789 28.7394527,10.5252845 30.2555571,9.68410141 C31.0680297,9.23384789 31.8053868,8.54021408 32.6377879,8.04889014 C33.8641615,7.32331268 35.190178,6.8076507 36.5330571,6.3467493 C39.2663374,5.40973521 42.0011505,4.4712 44.7574253,3.60263662 C45.559167,3.35012958 46.4329582,3.26342535 47.279156,3.22387606 C48.8688429,3.14781972 49.6751835,4.35711549 49.1953648,6.02731268 C48.7998593,7.40849577 48.2725187,8.7227493 47.326678,9.8483831 C46.4406231,10.9055662 45.8964198,12.1848338 45.1023429,13.3104676 C44.1978923,14.5927775 43.2581835,15.8264113 42.1989033,16.9931155 C41.3940956,17.8814535 40.4957769,18.6846085 39.7415571,19.6185803 C39.5100791,19.9075944 39.2157495,20.119031 38.910689,20.3289465 C37.1355132,21.5534535 35.5734198,23.0411155 33.8733593,24.3538479 C32.7297659,25.2376225 31.6965462,26.2674254 30.4149857,26.971707 C29.7358813,27.3474254 29.0767055,27.7550873 28.5386341,28.3209465 C28.3424143,28.5278197 27.8396011,28.5947493 28.0925407,29.0419606 C28.2826286,29.3766085 28.5938209,29.5880451 29.0184527,29.4526648 C29.9780901,29.1453972 30.9653209,29.3066366 31.9402879,29.2792563 C33.100744,29.2473127 34.1171011,29.7219042 34.8728538,30.5144113 C35.5350956,31.2110873 35.6056121,32.1693972 35.3572714,33.127707 C34.7854747,35.347031 33.7445901,37.3366648 32.5550077,39.2897915 C32.0368648,40.1401014 31.5815736,41.0862423 31.0266396,41.8924394 C29.9029747,43.5261296 29.2483978,45.4321014 27.9423099,46.9425803 C27.6219198,47.3122141 27.4425626,47.7792 27.2233484,48.1914254 C26.216189,50.0821859 24.7399418,51.6474254 23.6469363,53.4819042 C22.9126451,54.7140169 21.7935791,55.7210028 20.8400736,56.8222986 C19.3301011,58.5655099 17.8124637,60.3041577 16.3040242,62.0504113 C16.267233,62.0930028 16.2994253,62.1933972 16.2994253,62.3059606 C17.3725022,62.2299042 18.2018374,61.6260169 18.962189,60.9780169 C20.2054253,59.9193127 21.6402824,59.1359324 22.9095791,58.1091718 C23.8017659,57.3881577 24.6019747,56.5758761 25.4144473,55.7864113 C25.8682055,55.3483268 25.9969747,54.5786366 26.2698429,53.9580169 C26.8600352,52.6224676 27.4486945,51.2869183 28.0388868,49.951369 C28.1722549,49.6501859 28.3638758,49.3931155 28.6198813,49.1771155 C28.7716451,49.0493408 29.0199857,48.8972282 29.0230516,48.7512 C29.0445132,47.8339606 29.7665407,47.2483268 30.0685352,46.4634254 C30.5774802,45.1385239 31.6275626,44.1208901 32.2806066,42.8644394 C32.8968593,41.6779606 33.887156,40.7333408 34.633711,39.654862 C35.4446505,38.4851155 36.3491011,37.399031 37.2872769,36.367707 C38.2683758,35.2892282 39.0471231,33.9977915 40.3102879,33.1763831 C40.3777385,33.1322704 40.4513209,33.0744676 40.4850462,33.0060169 C41.234667,31.5183549 42.865744,31.2764958 44.1105132,30.4961577 C44.6117934,30.1812845 46.120233,30.570693 46.5862549,31.0209465 C47.2914198,31.7039324 47.5627549,32.4508056 47.1841121,33.4258479 C46.6399088,34.8298479 45.8121066,36.0300169 44.7758209,37.1039324 C44.7191011,37.1617352 44.6639143,37.2286648 44.6347879,37.3016789 C43.9710132,38.8912563 42.5668154,39.8617352 41.4400846,41.0634254 C40.4574527,42.1114817 39.5514692,43.2097352 38.6853429,44.3612282 C37.6459912,45.7469746 36.3751615,46.9623549 35.2009088,48.247707 C34.448222,49.0736789 33.7032,49.9072563 32.9275187,50.7104113 C32.1089143,51.5576789 31.284178,52.4034254 30.4088538,53.191369 C29.7972,53.743538 29.3097165,54.379369 28.8452275,55.0425803 C28.589222,55.4076507 28.356211,55.7757634 28.0020956,56.0739042 C27.4149692,56.5713127 27.378178,57.2771155 27.473222,57.9737915 C27.5376066,58.4499042 27.9683703,58.6856789 28.3608099,58.6811155 C29.0859033,58.6735099 29.8615846,58.6081014 30.2816176,57.8718761 C30.4241835,57.6224113 30.539156,57.3912 30.7828978,57.211707 C32.354189,56.0541296 33.3184253,54.4021859 34.3347824,52.8065239 C34.8605901,51.979031 35.4921725,51.2504113 36.1160901,50.5050592 C36.6817549,49.8296789 37.1493099,49.0706366 37.7241725,48.402862 C39.1191725,46.782862 39.8749253,44.7552 41.2438648,43.1123831 C42.9193978,41.0999324 44.4293703,38.9505803 46.1493593,36.9792 C46.8713868,36.1532282 47.8816121,35.4991437 48.9822824,35.1629746 C50.4248044,34.7203268 51.3031945,35.5752 50.9644088,37.0887211 C50.5735022,38.839538 49.886733,40.4914817 48.9761505,42.0323831 C48.6542275,42.5769465 48.5453868,43.1352 48.3139088,43.8394817 C49.046667,43.6782423 49.3563264,43.1914817 49.653722,42.7686085 C50.4523978,41.6399324 51.2970626,40.5538479 52.2796945,39.5772845 C52.4529198,39.4053972 52.5862879,39.1802704 52.7855736,39.0509746 C53.3052495,38.7163268 53.8525187,38.4379606 54.490233,38.7923831 C55.141744,39.1559324 55.4314747,39.7765521 55.3027055,40.4291155 C55.0252385,41.8437634 54.8290187,43.2857915 53.9567604,44.5346366 C53.5014692,45.1872 53.2454637,45.9751437 52.8882824,46.6961577 C52.7457165,46.9821296 52.630744,47.4841014 52.3348813,47.4384676 C51.4334967,47.3046085 51.5208758,47.8567775 51.4273648,48.4226366 C51.3200571,49.0736789 50.6578154,48.5777915 50.348156,48.7953127 C50.2638429,49.0204394 50.351222,49.1527775 50.4968538,49.2455662 C50.8341066,49.4570028 51.0042659,49.6821296 50.5796341,49.9726648 C50.4018099,50.0943549 50.3006341,50.2495099 50.257711,50.4624676 C49.9158593,52.1615662 48.9255626,53.5594817 48.1284198,55.0532282 C47.7160516,55.8259606 47.2868209,56.6321577 47.3021505,57.5615662 L47.2239692,57.6117634 L47.2576945,57.6421859 L47.3021505,57.5615662 Z M19.937156,49.963538 C19.1982659,49.9681014 18.7629033,50.3331718 18.4915681,50.9309746 C17.8753154,52.2878197 17.3249802,53.682693 16.5983538,54.9802141 C15.9299802,56.1758197 15.5482714,57.5189746 14.6560846,58.6020169 C14.407744,58.9032 14.2268538,59.2910873 14.2069253,59.7154817 C14.1946615,59.9908056 14.311167,60.1687775 14.5518429,60.2995944 C14.7971176,60.4334535 15.0255297,60.4425803 15.2232824,60.2478761 C15.6555791,59.8234817 16.1032055,59.4097352 16.4925791,58.9503549 C18.0117495,57.1569465 19.5431835,55.3741859 21.0056341,53.5381859 C22.216678,52.0201014 23.3526066,50.4366085 24.4778044,48.8561577 C25.3132714,47.683369 26.2085242,46.5303549 26.8063813,45.1811155 C27.2923319,44.0859042 27.9913648,43.0819606 28.6229473,42.0552 C29.4078264,40.7820169 30.1099253,39.4616789 30.8840736,38.1854535 C31.4528044,37.2484394 31.9602165,36.306862 32.2882714,35.2694535 C32.3618538,35.0367211 32.4155077,34.8192 32.588733,34.6229746 C33.0593538,34.087538 33.1865901,33.3999887 33.4012055,32.7474254 C33.5790297,32.202862 33.3858758,31.9260169 32.9152549,31.6811155 C31.5953703,30.9966085 30.2233648,31.2217352 28.8498264,31.3951437 C27.5943264,31.5533408 26.9290187,32.4340732 26.3142989,33.4091155 C25.6781176,34.4161014 25.5355516,35.6010592 25.0266066,36.6597634 C24.6402989,37.4644394 24.0163813,38.1595944 23.8048319,39.0296789 C23.4599143,40.4458479 22.8482604,41.7753127 22.2611341,43.0743549 C21.4088044,44.9575099 20.9397165,47.0003831 19.8283154,48.7664113 C19.5723099,49.1725521 19.6980132,49.5163268 19.937156,49.963538 L19.937156,49.963538 Z M51.3139253,60.3695662 C50.0614912,61.0023549 49.3333319,62.1401577 48.5484527,63.1927775 C47.4799747,64.6226366 46.396167,66.0342423 45.2065846,67.3697915 C44.3450571,68.3372282 43.4145462,69.2788056 42.8074912,70.4287775 C41.329711,73.2215662 39.3859088,75.739031 38.0016396,78.5850592 C37.2428209,80.1472563 36.1160901,81.5755944 35.608678,83.2032 C34.727222,86.0385803 32.9336505,88.5925521 32.8922604,91.6880451 C32.8907275,91.7580169 32.8370736,91.8371155 32.7880187,91.8964394 C31.5463154,93.3825803 31.1078868,95.2398761 30.727711,97.0211155 C30.4717055,98.2243268 29.8385901,99.2541296 29.6255077,100.437566 C29.5549912,100.826975 28.915744,101.258975 29.423156,101.558637 C29.8033319,101.782242 30.1114582,101.125115 30.4640407,100.881735 C30.5544857,100.819369 30.5928099,100.677904 30.6479967,100.569904 C31.4604692,98.9909746 32.3005352,97.4257352 33.0746835,95.8285521 C33.7430571,94.4519324 34.1707549,92.9292845 35.0077549,91.6682704 C36.0701011,90.0650028 36.5959088,88.2320451 37.5800736,86.6120451 C38.1610681,85.6537352 38.726733,84.6817352 39.2326121,83.6838761 C39.746156,82.6738479 40.400733,81.7216225 40.8330297,80.6963831 C41.4600132,79.2072 42.0900626,77.7393127 42.9883813,76.3915944 C43.6782165,75.3572282 43.9066286,74.1099042 44.5842,73.0572845 C44.9030571,72.5613972 45.0778154,71.959031 45.4288648,71.4540169 C45.9608044,70.687369 46.584722,69.9496225 46.9403703,69.1038761 C47.3787989,68.0634254 47.930667,67.0777352 48.4779363,66.114862 C49.2566835,64.747369 49.8422769,63.2840451 50.6716121,61.9408901 C50.9490791,61.4921577 51.2403429,60.9825803 51.3139253,60.3695662 L51.3139253,60.3695662 Z M30.1758429,50.6252282 C30.7200462,50.6495662 30.8595462,50.3225239 31.0649637,50.083707 C32.7113703,48.1655662 34.356244,46.2474254 36.1084253,44.4235944 C37.1186505,43.3724958 38.2959692,42.4659042 38.958211,41.1181859 C39.0271945,40.9797634 39.1774253,40.879369 39.2923978,40.7652845 C41.3910297,38.6889465 43.1401451,36.3251155 44.9321835,33.9977915 C45.1789912,33.6768338 45.4595242,33.331538 45.2234473,32.8949746 C45.0778154,32.6257352 44.2868044,32.6363831 43.8529747,32.8964958 C43.7150077,32.9786366 43.6122989,33.1201014 43.4727989,33.2007211 C43.1922659,33.3604394 42.8964033,33.6205521 42.6082055,33.619031 C41.8156615,33.6129465 41.4446835,34.0023549 41.2147385,34.6944676 C41.1181615,34.9865239 40.9050791,35.3242141 40.6475407,35.4641577 C39.885656,35.8794254 39.514678,36.6202141 39.0118648,37.2423549 C38.072156,38.4090592 36.8933044,39.3749746 36.1283538,40.6907493 C35.8309582,41.2018479 35.4967714,41.6870873 35.053744,42.126693 C34.4007,42.7762141 33.7859802,43.5413408 33.4196011,44.3718761 C33.0240956,45.2693408 32.5504088,46.0831437 31.9770791,46.8680451 C31.1661396,47.9784676 30.4901011,49.1649465 30.1758429,50.6252282 L30.1758429,50.6252282 Z M71.3022824,42.2970592 C70.6078484,42.2301296 70.2874582,42.631707 69.9410077,42.9404958 C69.0304253,43.7497352 68.0937824,44.5589746 67.0268374,45.1126648 C66.2557549,45.5127211 65.7054198,46.0451155 65.2685242,46.7159324 C64.9420022,47.2163831 64.7135901,47.7928901 64.5143044,48.3617915 C64.3502769,48.8272563 64.1279967,49.2349183 63.8428648,49.6380169 C62.9491451,50.899031 62.4003429,52.3425803 61.8561396,53.7633127 C61.5633429,54.5269183 61.3012055,55.302693 60.810656,55.9339606 C60.1714088,56.7584113 60.2587879,57.859707 59.6118758,58.662862 C59.5290956,58.7662986 59.5689527,59.0127211 59.7176505,59.1024676 C59.9353319,59.2348056 60.1208209,59.0902986 60.2158648,58.9062423 C60.5178593,58.3190873 61.0114747,57.859707 61.4453044,57.4079324 C62.1964582,56.623031 62.4831231,55.5567211 63.2342769,54.8098479 C63.7984088,54.2500732 64.2138429,53.6188056 64.4713813,52.879538 C64.5526286,52.6437634 64.6369418,52.4186366 64.8285626,52.2558761 C65.9031725,51.3477634 66.580744,50.1399887 67.3272989,48.9854535 C67.506656,48.7101296 67.6522879,48.4302423 67.9680791,48.2766085 C68.486222,48.0241014 68.7299637,47.5327775 68.9001231,47.0384113 C69.1530626,46.3006648 69.5286396,45.6389746 69.9548044,44.9940169 C70.486744,44.1862986 70.9313044,43.3314254 71.3022824,42.2970592 L71.3022824,42.2970592 Z M57.2940297,48.1001577 C56.4953538,48.6751437 49.2551505,58.4057915 49.0696615,59.2530592 C49.5709418,58.8301859 50.0768209,58.3981859 50.4386011,57.8429746 C51.3093264,56.5104676 52.4007989,55.3407211 53.5244637,54.2500732 C54.6895187,53.1213972 55.5939692,51.8816789 56.254678,50.442693 C56.5888648,49.7171155 57.2020516,49.1193127 57.2940297,48.1001577 L57.2940297,48.1001577 Z M48.4595407,59.6074817 C48.4304143,59.6698479 48.4012879,59.7337352 48.3721615,59.7961014 C48.4350132,59.8219606 48.5147275,59.8843268 48.5576505,59.8660732 C48.6051725,59.8447775 48.6189692,59.7504676 48.6480956,59.6881014 C48.585244,59.6607211 48.5223923,59.634862 48.4595407,59.6074817 L48.4595407,59.6074817 Z" id="Fill-1" fill="#231F20"></path>
                    <g id="Group-5" transform="translate(130.302198, 0.000000)">
                        <mask id="mask-2" fill="white">
                            <use xlink:href="#path-1"></use>
                        </mask>
                        <g id="Clip-4"></g>
                        <path d="M68.9997659,47.0851099 C68.5061505,47.1429127 68.3497879,47.5779549 68.1734967,47.9110817 C66.8152879,50.4924338 65.2210022,52.9292789 63.6895681,55.4071944 C62.7299308,56.9587437 61.5219527,58.3931662 61.0881231,60.2976169 C60.8627769,61.2863493 59.9644582,62.1427437 59.4677769,63.1177859 C59.0630736,63.9133352 58.5372659,64.631307 58.0007275,65.3431944 C57.3921396,66.1493915 57.1437989,66.2437014 56.3727165,65.9698986 C55.7855901,65.7615042 55.1509418,64.8807718 55.2674473,64.2647155 C55.5065901,62.9930535 55.7288703,61.7046592 56.1397055,60.4847155 C56.4248374,59.6404901 56.7207,58.7947437 56.9031231,57.9307437 C57.0840132,57.0804338 57.5316396,56.3548563 57.8198374,55.559307 C57.8918868,55.3600394 57.9470736,55.1775042 57.7738484,55.0056169 C57.5822275,54.9523775 57.4565242,55.0588563 57.370678,55.2003211 C55.8300462,57.7223493 54.3124088,60.2580676 52.7426505,62.7618423 C52.3364143,63.4098423 51.792211,63.9787437 51.2756011,64.5506873 C50.9245516,64.9400958 50.2469802,65.0191944 49.9419198,64.7317014 C49.5786066,64.3864056 49.4590352,63.9315887 49.7794253,63.5239268 C50.4508648,62.6675324 50.7881176,61.6240394 51.5086121,60.7706873 C52.2536341,59.8899549 52.6445407,58.7202085 53.3159802,57.7634197 C53.9874198,56.806631 54.4319802,55.7798704 54.5929418,54.6511944 C54.815222,53.0798704 54.951656,51.514631 53.792733,50.147138 C53.3405077,49.6132225 53.3175132,48.8754761 53.2638593,48.1864056 C53.234733,47.7985183 53.3834308,47.3710817 53.0093868,47.0060113 C52.4069308,47.4258423 52.2061121,48.1301239 51.7615516,48.6138423 C50.5198484,49.9661239 49.931189,51.767138 48.5898429,53.0433634 C48.398222,53.2258986 48.352233,53.5529408 48.212733,53.7993634 C47.6731286,54.7470254 47.1227934,55.6764338 46.3839033,56.5054479 C45.5177769,57.4774479 44.9720407,58.6730535 44.3419912,59.8047718 C44.0323319,60.3630254 43.6843484,60.8193634 42.9377934,60.7858986 C42.353733,60.7600394 41.9428978,60.5349127 41.978156,59.9355887 C42.0410077,58.9057859 41.7129527,57.8394761 42.3414692,56.8461803 C42.5622165,56.4963211 42.4687055,55.9654479 42.6158703,55.5517014 C43.4712659,53.1620113 44.3082659,50.758631 45.7507879,48.6320958 C46.164689,48.0221239 46.3609088,47.3224056 46.5985187,46.6576732 C46.8207989,46.0400958 47.0246835,45.4057859 47.4079253,44.9007718 C48.1468154,43.9287718 48.166744,42.8137859 48.3261725,41.6942366 C47.794233,41.5208282 47.6026121,41.9224056 47.3941286,42.1597014 C46.3241176,43.3781239 45.047156,44.4489972 44.2193538,45.8362648 C43.5341176,46.9847155 42.5530187,47.9141239 41.9658923,49.114293 C41.9291011,49.1857859 41.889244,49.2618423 41.8325242,49.3166028 C40.3378813,50.7434197 39.467156,52.6052789 38.3296945,54.2800394 C37.6275956,55.3144056 37.0420022,56.4080958 36.5667824,57.5732789 C35.7098538,59.6709127 34.7624802,61.7320394 33.8518978,63.8068563 C33.7859802,63.9559268 33.7169967,64.1049972 33.6296176,64.2418986 C33.2555736,64.8290535 32.8554692,65.0359268 32.4446341,64.7636451 C31.7639967,64.3088282 31.4620022,64.1141239 31.8130516,63.4113634 C32.4752934,62.0818986 32.7021725,60.5881521 33.657211,59.3453915 C34.0695791,58.8099549 34.2703978,57.9672507 34.6260462,57.2964338 C35.006222,56.5799831 35.3649363,55.8680958 35.4937055,55.0618986 C35.7083209,53.7248282 36.4134857,52.5581239 36.8856396,51.3153634 C37.4559033,49.8140113 37.9265242,48.2655042 38.6056286,46.8097859 C39.1651615,45.6157014 39.4594912,44.3136169 40.2106451,43.1940676 C40.6552055,42.5323775 40.7962385,41.7216169 40.9740626,40.8637014 C40.3470791,40.8758704 40.0987385,41.2865746 39.8320022,41.5953634 C38.2699088,43.4070254 36.7292769,45.2536732 35.4507824,47.2630817 C34.4144967,48.8906873 33.2954308,50.483307 32.5565407,52.3040958 C32.124244,53.3704056 31.6950132,54.4777859 30.9361945,55.3935042 C30.4119198,56.0278141 30.2969473,56.8735606 29.7818703,57.5246028 C29.4400187,57.9581239 29.1502879,58.4053352 28.5156396,58.2790817 C27.8963209,58.1558704 27.5544692,57.7938423 27.4333648,57.1321521 C27.330656,56.5647718 27.240211,56.0430254 27.3904418,55.4619549 C27.5100132,55.0010535 27.4870187,54.4945183 27.471689,54.0092789 C27.4548264,53.4677577 27.1313703,53.3293352 26.6592165,53.5894479 C26.3725516,53.7491662 26.2836396,54.0047155 26.2085242,54.2769972 C25.9065297,55.3691662 25.5769418,56.4537296 25.3209363,57.5550254 C24.7353429,60.0755324 24.171211,62.6021239 23.6316066,65.1332789 C23.5013044,65.7447718 23.2498978,66.2893352 22.9617,66.8247718 C22.5171396,67.6537859 21.7659857,67.7374479 21.1160077,67.042293 C20.5580077,66.4444901 20.5380791,65.7341239 20.6990407,64.9887718 C20.9381835,63.875307 21.3474857,62.8150817 21.7138648,61.7411662 C22.8390626,58.4342366 24.1405516,55.1820676 24.7951286,51.7291099 C24.9300297,51.0172225 25.1139857,50.2992507 25.3868538,49.6269127 C26.0261011,48.0495042 26.3710187,46.3838704 26.8830297,44.7699549 C27.3153264,43.4085465 27.842667,42.0319268 27.7414912,40.5412225 C27.6985681,39.9327718 28.0358209,39.3669127 27.9990297,38.7417296 C27.9499747,37.8838141 27.8641286,37.7332225 27.0945791,38.038969 C25.425178,38.7021803 23.8584857,39.5661803 23.0981341,41.3169972 C22.9111121,41.7474761 22.5355352,41.9680394 22.2963923,42.3422366 C21.6893374,43.2959831 21.4164692,44.3197014 21.2601066,45.395138 C21.0470242,46.8736732 20.6147275,48.3065746 20.3004692,49.762293 C20.0107385,51.1054479 19.9693484,52.474462 19.659689,53.8084901 C19.4251451,54.8230817 19.1584088,55.8285465 18.9039363,56.8370535 C18.6709253,57.7558141 18.6617275,58.7399831 18.402656,59.6693915 C17.8507879,61.654462 17.2835901,63.634969 16.730189,65.6185183 C16.6213484,66.0064056 16.4266615,66.3836451 16.4803154,66.8019549 C16.6167495,67.8758704 16.0250242,68.6668563 15.4225681,69.4365465 C15.148167,69.7848845 14.7817879,70.066293 14.6070297,70.4906873 C14.3816835,71.0291662 13.9202604,70.991138 13.4665022,70.9607155 C13.0280736,70.9318141 12.8640462,70.6428 12.7552055,70.2518704 C12.4731396,69.2494479 12.3275077,68.2318141 12.8119253,67.282631 C13.1231176,66.6757014 12.9452934,66.0033634 13.2150956,65.4314197 C14.0459637,63.6760394 14.453733,61.7639831 15.2983978,60.0162085 C15.5881286,59.4168845 15.4716231,58.750631 15.6724418,58.1239268 C16.3622769,55.9715324 16.7899747,53.7461239 17.5886505,51.6195887 C18.3229418,49.6634197 18.6801231,47.6053352 19.1369473,45.4879268 C18.4363813,45.5046592 18.1987714,45.9564338 17.9611615,46.3397577 C16.6581396,48.4343493 15.0868484,50.3418423 13.7393703,52.402969 C13.2012989,53.2274197 12.4639418,53.866293 11.8154967,54.5888282 C11.5119692,54.9280394 11.1823813,54.8945746 10.8144692,54.7728845 C10.1644912,54.5568845 9.79504615,54.7059549 9.51298022,55.4163211 C8.93965055,56.8629127 8.28200769,58.2714761 7.82671648,59.7697859 C7.58757363,60.5562085 7.13534835,61.2802648 6.90693626,62.0955887 C6.66932637,62.938293 6.0822,63.6714761 6.10519451,64.606969 C6.10979341,64.7545183 6.01321648,64.9218423 5.92277143,65.0526592 C5.11643077,66.2452225 4.82516703,67.6340113 4.37600769,68.9649972 C4.20891429,69.4563211 3.92071648,69.9187437 3.62178791,70.3492225 C3.21401868,70.9378986 2.25284835,70.9637577 1.69484835,70.3218423 C0.701485714,69.1809972 0.18180989,67.8150254 0.315178022,66.298462 C0.365765934,65.7295606 0.431683516,65.2002085 0.299848352,64.6267437 C0.194073626,64.1612789 0.171079121,63.6425746 0.258458242,63.1740676 C0.833320879,60.0724901 1.07093077,56.914631 1.8880022,53.8541239 C2.16853516,52.8030254 2.36782088,51.730631 2.45673297,50.6308563 C2.51345275,49.9372225 2.88596374,49.2664056 3.13277143,48.5925465 C3.4225022,47.8000394 3.79348022,47.0394761 3.99583187,46.2150254 C4.23344176,45.2491099 4.9478044,44.6360958 5.72348571,44.1173915 C6.32900769,43.7112507 6.75363956,43.8511944 7.17827143,44.4474761 C7.38062308,44.7304056 7.40515055,45.0331099 7.01884286,45.1046028 C5.61771099,45.3631944 5.33104615,46.5238141 5.05971099,47.5825183 C4.54003516,49.6147437 4.12613407,51.6758704 3.71836484,53.7339549 C3.29373297,55.8726592 2.84610659,58.0098423 2.55790879,60.1668 C2.25131538,62.4545746 2.09188681,64.7621239 2.23598571,67.0772789 C2.24211758,67.1852789 2.31263407,67.2917577 2.34635934,67.3830254 C2.68054615,67.4955887 2.87523297,67.2887155 2.95801319,67.0848845 C3.54360659,65.6443775 4.59215604,64.3788 4.65040879,62.7390254 C4.66267253,62.4363211 4.80217253,62.1975042 4.98152967,61.9708563 C5.55332637,61.2468 5.73115055,60.3904056 5.91817253,59.5096732 C6.12665604,58.5300676 6.49456813,57.5915324 6.86248022,56.6469127 C7.48793077,55.0406028 8.5977989,53.662462 8.98410659,51.9481521 C9.15426593,51.190631 9.31062857,50.4559268 9.29223297,49.6740676 C9.22631538,46.9968845 9.51451319,44.3546873 9.91461758,41.7018423 C10.1399637,40.2141803 10.6151835,38.7980113 10.8451286,37.3179549 C10.9968923,36.3368282 11.706656,35.5093352 11.8645516,34.5251662 C12.2585242,34.5053915 12.0990956,34.8795887 12.266189,34.9267437 C13.4082495,35.2507437 12.9100352,36.1101803 12.7843319,36.7231944 C12.3688978,38.7493352 11.8262275,40.7435324 11.5410956,42.8016169 C11.3586725,44.1234761 11.3402769,45.4590254 11.2253044,46.8386873 C11.8017,45.8104056 12.5727824,44.842969 12.9085022,43.7431944 C13.4067165,42.1155887 14.4675297,40.8241521 15.1742275,39.3319268 C16.0357549,37.5141803 16.9677989,35.7298986 17.8799143,33.9364901 C18.1221231,33.4618986 18.2416945,33.0420676 17.7143538,32.6557014 C17.1256945,32.2237014 16.869689,32.219138 16.2365736,32.6693915 C15.8855242,32.9188563 15.5835297,33.1287718 15.0423923,33.0922648 C14.4675297,33.0542366 13.9463209,33.5394761 13.6565901,34.1296732 C13.5569473,34.3350254 13.4757,34.642293 13.1599088,34.5647155 C12.8333868,34.4856169 12.7598044,34.1844338 12.7644033,33.8878141 C12.7690022,33.6885465 12.779733,33.4740676 12.8533154,33.2930535 C13.3791231,32.0000958 14.2391176,31.0250535 15.5682,30.4896169 C16.2948264,30.1990817 16.9938593,30.1580113 17.6760297,30.6021803 C17.7434802,30.646293 17.8201286,30.6797577 17.895244,30.7101803 C19.0250407,31.1756451 19.3224363,31.6365465 19.940222,29.8400958 C20.2222879,29.0217296 20.9535132,28.3980676 21.3566835,27.5933915 C22.1308319,26.050969 22.9862275,24.5480958 23.8048319,23.0284901 C23.8247604,22.9935042 23.8155626,22.9402648 23.8400901,22.9128845 C25.0434692,21.6168845 25.5830736,19.9177859 26.5825681,18.4924901 C27.7905462,16.7690535 28.8544253,14.9497859 30.0056835,13.1898423 C30.7185132,12.1022366 31.2719143,10.9370535 31.9418209,9.84792676 C32.6699802,8.66296901 33.1482659,7.40347606 33.7629857,6.19722254 C34.1860846,5.36820845 34.4160297,4.49660282 34.7824088,3.66606761 C35.329678,2.42939155 35.9597275,1.27789859 37.0312714,0.401729577 C37.3807879,0.115757746 37.7057769,0.00471549296 38.1472714,0.187250704 C38.6224912,0.38195493 38.8401725,0.684659155 38.866233,1.1988 C38.9229527,2.33812394 38.584167,3.32533521 37.9602495,4.28364507 C36.726211,6.17744789 35.5933484,8.13513803 34.3731066,10.0380676 C33.7813813,10.9583493 33.1635956,11.8573352 32.6285901,12.8171662 C31.3623593,15.0927718 30.3659308,17.4794197 29.5902495,19.9512507 C29.2744582,20.9582366 28.728722,21.8480958 28.3684747,22.8200958 C27.7813484,24.4005465 27.0026011,25.9034197 26.5503758,27.5416732 C26.1349418,29.0475887 25.7256396,30.5535042 25.1875681,32.0320394 C24.5069308,33.898462 23.7818374,35.7648845 23.3909308,37.727138 C23.378667,37.786462 23.4537824,37.8640394 23.5227659,37.9994197 C24.0623703,37.6510817 24.727678,37.4092225 25.1063209,36.9407155 C25.8513429,36.0173915 26.9244198,35.8957014 27.9101176,35.5929972 C28.7517165,35.3359268 29.2468648,35.7405465 29.6147769,36.5452225 C30.0899967,37.582631 29.982689,38.6748 30.0072165,39.7624056 C30.4165187,39.7882648 30.5805462,39.5083775 30.6556615,39.2634761 C30.959189,38.2701803 31.7011451,37.5293915 32.1518374,36.6228 C32.2760077,36.3763775 32.4967549,36.1755887 32.680711,35.9611099 C33.0133648,35.5701803 33.4471945,35.4956451 33.9040187,35.6553634 C34.4359582,35.8409408 34.4742824,36.3124901 34.4252275,36.767307 C34.3731066,37.246462 34.3869033,37.8062366 34.1385626,38.1773915 C33.5637,39.0337859 33.4655901,40.0377296 33.1942549,40.9595324 C32.542744,43.1758141 31.3500956,45.1882648 30.8442165,47.4562648 C30.6433978,48.3506873 30.1267879,49.1690535 29.9367,50.0832507 C29.6745626,51.3381803 29.4400187,52.5976732 29.3035846,53.8997577 C29.938233,53.1407155 30.6050736,52.4394761 30.8948044,51.4735606 C31.1492769,50.6293352 31.2964418,49.7075324 32.1870956,49.2146873 C32.5596066,47.771138 34.1048374,47.0318704 34.4190956,45.5518141 C34.4344253,45.4772789 34.4896121,45.4012225 34.5478648,45.3479831 C35.9060736,44.0732789 36.6817549,42.3422366 38.0047055,41.038631 C38.5243813,40.5260113 38.8708319,39.8688845 39.2969967,39.2817296 C39.7660846,38.6352507 40.3992,38.2138986 40.9572,37.6891099 C41.3113154,37.354462 41.7267495,37.258631 42.1958374,37.2784056 C42.9899143,37.3133915 43.2566505,37.5096169 43.2397879,38.2990817 C43.2091286,39.7258986 42.9209308,41.1131662 42.3108099,42.4137296 C42.0394747,42.9948 41.8125956,43.5804338 41.6133099,44.1919268 C41.3159143,45.1106873 40.8958813,45.9929408 40.5218374,46.8873634 C40.446722,47.0698986 40.3225516,47.2372225 40.4789143,47.567307 C41.2469308,46.7702366 41.9459637,45.9975042 42.4380462,45.1106873 C43.0175077,44.0687155 43.9403538,43.3248845 44.6025956,42.3559268 C45.143733,41.566462 45.9700022,40.9884338 46.584722,40.2172225 C47.1381231,39.5205465 47.9490626,39.0885465 48.8857055,38.9333915 C49.932722,38.758462 50.5658374,39.1615606 50.6148923,40.2126592 C50.6792769,41.6060113 50.3788154,42.9552507 49.8254143,44.2284338 C48.6864198,46.8554197 47.5014363,49.462631 46.3363813,52.078969 C46.0865077,52.6387437 45.7569198,53.1513634 45.3430187,53.6000958 C45.189722,53.7658986 45.1161396,53.8951944 45.1697934,54.1218423 C45.2479747,54.4610535 45.3460846,54.6557577 45.7400571,54.4230254 C45.9715352,54.2861239 46.0435846,54.0746873 46.164689,53.8632507 C47.3251451,51.8644901 48.7002165,50.0071944 49.9863758,48.0920958 C50.630222,47.1337859 51.4564912,46.2682648 51.6281835,45.0331099 C51.6864363,44.6178423 51.9899637,44.219307 52.2367714,43.8511944 C53.5704527,41.8509127 54.8106231,39.7943493 55.9388868,37.6723775 C55.9956066,37.5658986 56.0186011,37.4350817 56.0937165,37.3438141 C56.4279033,36.9361521 56.7528923,36.4493915 57.3860077,36.6045465 C58.0819747,36.7749127 58.0252549,37.3696732 57.9945956,37.894462 C57.930211,38.9957577 57.5607659,40.0301239 57.2250462,41.0690535 C56.5566725,43.1301803 55.6307604,45.1030817 55.1509418,47.231138 C55.0237055,47.7954761 55.0375022,48.2959268 55.3885516,48.7264056 C56.1381725,49.6466873 56.4830901,50.6947437 56.5459418,51.8584056 C56.5551396,52.0211662 56.6195242,52.1748 56.8647989,52.2995324 C57.7002659,51.2119268 58.8929143,50.3829127 59.3926615,49.0032507 C59.4616451,48.8131099 59.5321615,48.5910254 59.6731945,48.466293 C60.9792824,47.3117577 61.7549637,45.7693352 62.673211,44.3470817 C63.8551286,42.5126028 65.3022495,40.8363211 66.1530462,38.7980113 C66.3140077,38.4131662 66.5485516,38.0846028 66.8781396,37.8320958 C67.4959253,37.354462 68.1903593,37.6510817 68.3145297,38.4131662 C68.4524967,39.2589127 67.9466176,39.8932225 67.5863703,40.5488282 C66.3661286,42.7757577 65.0707714,44.9570535 63.9517055,47.2448282 C63.2986615,48.5803775 62.5674363,49.8915887 61.9097934,51.2332225 C60.8045242,53.4890535 59.7529088,55.7722648 58.8407934,58.1117577 C58.4820791,59.0335606 58.5449308,60.0922648 58.0175901,61.0718704 C58.4238264,61.1570535 58.5771231,60.9456169 58.6982275,60.6900676 C59.0784033,59.8838704 59.3957275,59.0396451 59.8479527,58.2760394 C60.3415681,57.4439831 60.904167,56.6317014 61.3962495,55.8148563 C61.9680462,54.8671944 62.5229802,53.8830254 63.0533868,52.8988563 C63.2281451,52.5733352 63.4044363,52.2721521 63.6435791,51.9907437 C63.8781231,51.7138986 64.1494582,51.4340113 64.2782275,51.106969 C64.9803264,49.3287718 66.0840626,47.7726592 67.0574967,46.1496169 C67.972678,44.6224056 68.8955242,43.0936732 69.9732,41.6668563 C71.0248154,40.2735042 71.9507275,38.7980113 72.8812385,37.3240394 C73.0544637,37.0502366 73.2338209,36.7733915 73.4515022,36.5345746 C73.738167,36.2227437 74.0999473,36.0037014 74.5399088,36.2014479 C74.9890681,36.4022366 75.2251451,36.7657859 75.1929527,37.2723211 C75.1684253,37.6389127 75.0626505,37.9826873 74.9292824,38.3279831 C73.9313209,40.8880394 72.856711,43.414631 71.7039198,45.9108 C70.6768319,48.1392507 70.0130571,50.5000394 69.2940956,52.8364901 C68.8081451,54.418462 68.4463648,56.0354197 67.9788099,57.6234761 C67.7687934,58.3399268 67.8209143,59.0381239 67.8086505,59.9477577 C68.9614418,58.9924901 69.8367659,58.0463493 70.299722,56.8264056 C70.6936945,55.7874761 71.2516945,54.8474197 71.8372879,53.927138 C73.1173154,51.922293 73.8914637,49.7364338 74.4188044,47.4410535 C74.7008703,46.2089408 75.228211,45.0604901 75.833733,43.9500676 C76.0023593,43.6428 76.2415022,43.3781239 76.5879527,43.414631 C77.5230626,43.5135042 78.1960352,42.9157014 78.9548538,42.5795324 C79.922156,42.1490535 80.8373374,41.602969 81.7709143,41.1009972 C82.4990736,40.7085465 83.2548264,40.4423493 84.1010242,40.4438704 C84.6298978,40.4438704 85.1618374,40.4043211 85.6876451,40.3419549 C86.4617934,40.2491662 87.1577604,40.0346873 87.7724802,39.4612225 C88.4515846,38.8269127 89.3069802,38.6093915 90.2758154,38.9181803 C90.6774527,39.0459549 90.8675407,39.286293 91.0928868,39.6985183 C92.3422549,38.1743493 93.1531945,36.4995887 93.8920846,34.7472507 C94.7520791,32.7028563 95.5384912,30.6265183 96.4444747,28.5973352 C97.0285352,27.2891662 97.5359473,25.9216732 98.2027879,24.6500113 C99.0244582,23.0847718 99.7618154,21.4754197 100.676997,19.9482085 C101.231931,19.0233634 101.817524,18.1000394 102.317271,17.1386873 C102.508892,16.7690535 102.67292,16.4252789 103.013238,16.174293 C103.137409,16.0830254 103.316766,15.9324338 103.310634,15.8183493 C103.250848,14.7839831 104.051057,14.2500676 104.598326,13.5701239 C104.674975,13.474293 104.740892,13.3541239 104.840535,13.2978423 C105.315755,13.0286028 104.685705,12.0292225 105.536502,12.1265746 C106.099101,12.190462 106.57892,12.0185746 107.098596,11.9820676 C107.828288,11.9288282 108.734271,12.5114197 109.024002,13.2522085 C109.434837,14.303307 109.28614,15.322462 108.619299,16.2199268 C108.159409,16.8390254 107.708716,17.4596451 107.431249,18.1745746 C107.072535,19.0887718 106.460881,19.8660676 105.950403,20.6737859 C104.503282,22.9676451 103.137409,25.3147437 101.566118,27.5371099 C100.603414,28.9015606 99.7740791,30.3679268 98.9263484,31.8145183 C97.5589418,34.1479268 96.1332824,36.4493915 94.6555022,38.7189127 C94.1634198,39.4749127 93.5808923,40.2476451 93.5195736,41.2394197 C93.501178,41.5421239 93.2926945,41.8448282 93.1347989,42.1277577 C92.2610077,43.6945183 91.9958044,45.4788 91.3136341,47.1079268 C90.3831231,49.3257296 90.1731066,51.7123775 89.504733,53.986462 C89.362167,54.4686592 89.7147495,54.9219549 89.5215956,55.4208845 C89.4510791,55.6049408 89.7224143,55.8513634 89.9523593,55.9593634 C90.2390242,56.0947437 90.4367769,55.8893915 90.5670791,55.6977296 C91.0775571,54.9508563 91.7535956,54.359138 92.3729143,53.7126592 C92.5124143,53.5681521 92.6703099,53.4099549 92.7300956,53.2289408 C93.4153319,51.1526028 94.7321505,49.4854479 96.0658319,47.7893915 C96.8767714,46.7595887 97.7045736,45.682631 98.1782604,44.4170535 C98.5906286,43.3172789 99.502744,42.5825746 100.269227,41.7748563 C102.534953,39.3821239 104.958574,37.1536732 107.595277,35.1564338 C108.69748,34.3228563 109.718436,33.3858423 110.783848,32.5051099 C111.065914,32.2723775 111.366376,32.0578986 111.677568,31.8662366 C112.096068,31.6046028 112.560557,31.5954761 112.942266,31.8890535 C113.351568,32.2039268 113.333173,32.6846028 113.156881,33.1166028 C113.038843,33.4101803 112.853354,33.7007155 112.631074,33.9273634 C111.48748,35.0849408 110.65048,36.4828563 109.621859,37.714969 C107.492568,40.2674197 105.717392,43.0526028 103.916156,45.8164901 C103.043898,47.1550817 102.093458,48.4632507 101.449612,49.9554761 C100.554359,52.0348563 99.3647769,53.9773352 98.4986505,56.074969 C97.9636451,57.370969 97.735233,58.7369408 97.3060022,60.0481521 C97.6294582,60.1531099 97.8011505,60.0101239 97.9253209,59.867138 C98.9202165,58.726293 100.054612,57.694969 100.722986,56.2924901 C100.965195,55.7859549 101.30398,55.3204901 101.720947,54.9173915 C102.430711,54.2283211 102.790958,53.3369408 103.146607,52.4394761 C103.322898,51.9983493 103.53598,51.5496169 103.827244,51.178462 C104.941711,49.7470817 105.444524,48.0175606 106.244733,46.4340676 C106.698491,45.5366028 107.212035,44.6726028 107.544689,43.7127718 C107.773101,43.0510817 108.482865,42.7209972 108.827782,42.1018986 C110.598359,38.9197014 112.358205,35.7314197 114.208497,32.5963775 C115.237118,30.8516451 116.449695,29.2133915 117.551898,27.5112507 C119.141585,25.0591944 121.007205,22.8064056 122.668942,20.4060676 C123.334249,19.4431944 124.217238,18.6080958 124.767574,17.590462 C125.523326,16.1910254 126.996508,15.3391944 127.534579,13.7891662 C127.672546,13.3936732 128.054255,13.066631 128.36698,12.7471944 C129.648541,11.4390254 130.652634,9.9011662 131.921931,8.57626479 C133.215755,7.2239831 134.195321,5.63136338 135.070645,3.98094085 C135.352711,3.44702535 135.588788,2.87203944 136.146788,2.53587042 C136.991453,2.02781408 137.716546,2.37006761 137.787063,3.33446197 C137.819255,3.77558873 137.787063,4.20454648 137.509596,4.61220845 C137.100293,5.21609577 136.755376,5.86257465 136.399727,6.50144789 C136.264826,6.74787042 136.073205,7.02775775 136.091601,7.28026479 C136.136057,7.92522254 135.772744,8.38764507 135.418629,8.7983493 C134.529508,9.82510986 133.815145,10.9400958 133.339925,12.2056732 C133.234151,12.4840394 133.034865,12.683307 132.826381,12.8780113 C132.039969,13.6142366 131.431381,14.4417296 131.383859,15.5673634 C131.374662,15.7742366 131.356266,16.0176169 131.135519,16.078462 C130.033315,16.3872507 129.738986,17.4383493 129.300557,18.2338986 C127.54531,21.4252225 125.492667,24.4461803 123.838596,27.6922648 C122.48192,30.3557577 121.172766,33.0420676 119.788497,35.6918704 C118.027118,39.0642085 116.702634,42.6221239 115.215656,46.1100676 C114.740436,47.2235324 114.256019,48.3476451 113.862046,49.4732789 C113.415953,50.7495042 112.874815,52.0135606 112.692392,53.4008282 C112.508436,54.7957014 111.840063,56.1038704 111.648442,57.5109127 C111.392436,59.3910254 110.754722,61.2133352 110.770052,63.1329972 C110.773118,63.4889408 110.676541,63.8600958 110.941744,64.2601521 C111.416964,64.2129972 111.692898,63.8281521 111.944304,63.5056732 C112.467046,62.8348563 112.934601,62.1199268 113.391425,61.4019549 C113.520195,61.2011662 113.573848,60.9517014 113.783865,60.8011099 C114.944321,59.962969 115.451733,58.6578423 116.193689,57.5139549 C116.808409,56.5647718 117.556497,55.702293 118.123695,54.7166028 C119.100195,53.0205465 120.461469,51.6043775 121.663315,50.0802085 C123.565727,47.6677014 125.382293,45.1837014 127.477859,42.9157014 C128.486552,41.8250535 129.289826,40.5366592 130.289321,39.418631 C131.097195,38.5150817 131.681255,37.4381239 132.584173,36.6045465 C133.028733,36.1953634 133.278607,35.6051662 133.605129,35.098631 C134.554035,33.623138 135.80187,32.4123211 136.951596,31.1148 C138.564277,29.2970535 140.382376,27.6770535 141.824898,25.6919831 C142.89031,24.2240958 144.217859,22.9448282 145.295535,21.466293 C145.859667,20.6905183 147.800403,20.8030817 148.396727,21.5590817 C148.697189,21.9393634 148.490238,22.594969 147.84026,22.9615606 C147.187216,23.3296732 146.618486,23.7631944 146.158596,24.3488282 C145.286337,25.4607718 144.338964,26.5240394 143.554085,27.6937859 C142.982288,28.547138 142.286321,29.2803211 141.599552,30.0150254 C140.221414,31.4874761 138.789623,32.914293 137.368563,34.3456732 C135.83253,35.8941803 134.408403,37.5750254 133.136041,39.3653915 C131.684321,41.4082648 130.030249,43.3020676 128.527942,45.299307 C127.411942,46.7808845 126.10892,48.1057859 125.064969,49.666462 C124.183513,50.9852789 123.170222,52.2843211 122.095612,53.4905746 C120.90603,54.8276451 119.87281,56.2711944 118.887112,57.7558141 C118.372035,58.5300676 117.8217,59.2815042 117.283629,60.0405465 C115.834975,62.086462 114.389387,64.1338986 112.931535,66.1737296 C112.696991,66.5007718 112.421057,66.8080394 112.131326,67.0894479 C110.685738,68.4964901 108.970348,67.9990817 108.464469,66.035307 C108.311173,65.4420676 108.214596,64.8412225 108.265184,64.2282085 C108.404684,62.5367155 108.502793,60.8132789 108.840046,59.1735042 C109.474695,56.0977859 110.192123,53.0281521 111.275931,50.0543493 C112.230969,47.4304056 113.310178,44.8566592 114.377123,42.2783493 C115.071557,40.6005465 115.704673,38.8771099 116.527876,37.2784056 C117.18092,36.011307 117.447656,34.6118704 118.189612,33.3888845 C118.480876,32.9097296 118.802799,32.4457859 119.084865,31.9590254 C119.690387,30.910969 120.300508,29.8766028 120.754266,28.7327155 C121.347524,27.2404901 122.18759,25.8440958 122.923414,24.4035887 C122.598425,24.1556451 122.475788,24.4203211 122.359282,24.6119831 C121.08692,26.7293915 119.443579,28.5988563 118.238667,30.7649408 C117.84776,31.4661803 117.302024,32.0852789 116.808409,32.7287155 C115.4502,34.5023493 114.34953,36.4341803 113.366898,38.422293 C112.966793,39.2315324 112.344409,39.8658423 111.950436,40.6766028 C110.701068,43.2518704 109.077656,45.6248282 107.831354,48.215307 C107.139986,49.6512507 106.638705,51.2347437 105.455255,52.4349127 C105.14253,52.7543493 105.098074,53.3278141 104.911052,53.7780676 C104.196689,55.5045465 103.137409,57.0013352 101.980019,58.4737859 C101.26259,59.3879831 100.629475,60.3767155 99.8154692,61.2209408 C99.2528703,61.8050535 98.708667,62.398293 98.0004363,62.842462 C96.6774857,63.6729972 95.2487604,62.6797014 95.2227,61.2848282 C95.2150352,60.8802085 95.1797769,60.454293 95.2855516,60.0740113 C95.8220901,58.1345746 96.2666505,56.1555887 96.9978758,54.2876451 C97.966711,51.8158141 99.130233,49.3896169 100.578887,47.1733352 C101.771535,45.3479831 102.700513,43.3522648 104.10931,41.662293 C104.322392,41.4037014 104.668843,41.146631 104.466491,40.6385746 C103.934552,40.6781239 103.678546,41.1314197 103.352024,41.4356451 C101.648898,43.0282648 100.405662,44.9783493 99.0888429,46.8721521 C97.1419747,49.6710254 95.3790626,52.5809408 93.6284143,55.5015042 C93.0152275,56.5221803 92.1414363,57.3648845 91.2753099,58.1254479 C90.016744,59.2297859 88.3672714,58.4448845 87.8951176,56.7807718 C87.3999692,55.0314761 87.5854582,53.2532789 87.9748319,51.490293 C88.1787165,50.5684901 88.4960407,49.6603775 88.5435626,48.5377859 C87.737222,49.0032507 87.5164747,49.7516451 87.1087055,50.3007718 C85.5389473,52.4105746 84.1424143,54.6511944 82.5465956,56.7397014 C81.6912,57.8577296 80.8771945,59.0213915 79.8807659,60.0405465 C79.4377385,60.4938423 79.1710022,61.114462 78.6482604,61.5190817 C77.9676231,62.0469127 77.4540791,62.122969 76.853156,61.7259549 C76.2507,61.3274197 76.0912714,60.7874197 76.1694527,60.0481521 C76.4131945,57.7406028 77.4755407,55.7357577 78.3646615,53.6548563 C78.8260846,52.5733352 79.3687549,51.5359268 79.9114253,50.5015606 C80.8174088,48.7811662 81.7555846,47.0759831 82.7550791,45.4088282 C83.2257,44.6224056 83.9753209,44.0048282 84.2727165,43.0389127 C83.366733,42.7742366 82.6033154,43.1727718 81.8705571,43.5652225 C80.5843978,44.2527718 79.3886835,45.1030817 77.9492275,45.5077014 C77.3145791,45.6856732 77.0616396,46.2667437 76.8638868,46.8751944 C76.0483484,49.3744056 75.3876396,51.9314197 74.2256505,54.3074197 C73.8025516,55.174462 73.3288648,56.0232507 72.8015242,56.830969 C71.7161835,58.4905183 70.6645681,60.1820113 69.369211,61.6924901 C68.8832604,62.2583493 68.4647604,62.9687155 67.5434473,62.9900113 C66.5240242,63.0143493 65.8065956,62.4271944 65.7621396,61.4186873 C65.7069527,60.1576732 65.8403209,58.9088282 66.1929033,57.6919268 C66.5086945,56.5997577 66.7463044,55.5045465 66.7769637,54.3545746 C66.7999582,53.4631944 67.1786011,52.6235324 67.4805956,51.7899549 C67.9604143,50.4635324 68.115244,49.0245465 68.8955242,47.7985183 C69.0135626,47.6129408 68.9675736,47.3254479 68.998233,47.0835887 C69.0488209,47.0257859 69.1055407,46.9710254 69.1484637,46.9086592 C69.1607275,46.8919268 69.1224033,46.8189127 69.1208703,46.8189127 C68.9767714,46.8599831 69.0273593,46.9892789 68.9997659,47.0851099 M89.8680462,41.9649972 C89.8849088,41.939138 89.9002385,41.9132789 89.9171011,41.8874197 C89.9017714,41.9148 89.8879747,41.9421803 89.8726451,41.9695606 C88.8823484,42.2357577 87.8292,42.5034761 87.1286341,43.2381803 C86.2456451,44.1660676 85.4837604,45.2338986 84.8123209,46.3275887 C83.8603484,47.8745746 82.9037769,49.4215606 82.1204308,51.0719831 C81.3754088,52.6417859 80.480156,54.143138 79.6952769,55.6962085 C79.5082549,56.0643211 79.4975242,56.5221803 79.3871505,57.0241521 C80.2302824,56.5510817 80.7024363,56.1282085 80.9829692,55.606462 C81.6145516,54.4275887 82.3978978,53.350631 83.1981066,52.2812789 C83.4633099,51.9253352 83.8894747,51.7260676 84.0672989,51.2803775 C84.6084363,49.9235324 85.6171286,48.8420113 86.3728813,47.6114197 C87.5302714,45.7282648 88.6891945,43.8390254 89.8680462,41.9649972 M19.6060352,34.6651099 C18.7690352,36.3200958 17.9918209,37.8579549 17.2130736,39.3958141 C16.3714747,41.0568845 15.523744,42.7149127 14.6928758,44.3805465 C13.9539857,45.8590817 13.1139198,47.2828563 12.4562769,48.8100676 C12.1435516,49.5402085 12.1174912,50.4011662 11.5303648,51.0172225 C11.3801341,51.1738986 11.2758923,51.3686028 11.4537165,51.5480958 C11.6928593,51.7899549 11.8982769,51.5846028 12.0852989,51.4340113 C12.5973099,51.0217859 12.779733,50.3737859 13.2595516,49.9022366 C14.0061066,49.1690535 14.685211,48.3172225 15.1895571,47.4045465 C16.1415297,45.6917577 17.4399527,44.2527718 18.684722,42.7772789 C19.754733,41.5101803 20.7680242,40.2902366 20.3786505,38.4755324 C20.3035352,38.1211099 20.3265297,37.6982366 20.5902,37.4274761 C21.2386451,36.7657859 21.0439582,35.9900113 21.0746176,35.1397014 C20.6898429,35.4865183 20.8094143,35.9854479 20.4016451,36.2333915 C19.986211,35.8333352 20.0367989,35.2355324 19.6060352,34.6651099 M25.7210407,24.0658986 C25.3224692,24.0932789 25.1860352,24.3366592 25.1139857,24.5222366 C24.8012604,25.3208282 24.2080022,25.9460113 23.8201615,26.6974479 C22.915711,28.4558704 22.0081945,30.214293 21.0715516,31.9559831 C20.5564747,32.9127718 20.5396121,33.0420676 21.2309802,33.8908563 C21.4072714,34.1083775 21.6004253,34.3122085 21.8242385,34.5662366 C22.1522934,34.3152507 22.6505077,34.1585746 22.6918978,33.7706873 C22.8084033,32.6922085 23.5013044,31.8434197 23.7358484,30.8136169 C24.0838319,29.2818423 24.5866451,27.7835324 24.9177659,26.2502366 C25.0787275,25.5033634 25.5554802,24.8781803 25.7210407,24.0658986 M31.7256725,50.6825746 C31.5708429,50.7525465 31.4941945,50.8483775 31.515656,50.9700676 C31.5340516,51.0643775 31.6260297,51.0719831 31.6965462,50.9944056 C31.7456011,50.9381239 31.797722,50.8711944 31.8115187,50.8027437 C31.8299143,50.7084338 31.7716615,50.6688845 31.7256725,50.6825746 M89.040244,47.5520958 C89.0003868,47.5946873 88.9559308,47.6281521 88.9314033,47.6737859 C88.9176066,47.6981239 88.9252714,47.7468 88.9390681,47.7757014 C88.9850571,47.8639268 89.0463758,47.8593634 89.0709033,47.758969 C89.0847,47.6996451 89.0540407,47.6281521 89.040244,47.5520958" id="Fill-3" fill="#231F20" mask="url(#mask-2)"></path>
                    </g>
                    <path d="M109.964171,19.5338535 C110.424061,19.8167831 110.97133,19.8335155 111.541594,19.6175155 C111.632039,19.5825296 111.783803,19.6433746 111.881913,19.7011775 C112.398523,20.0084451 112.732709,21.3166141 112.450643,21.8809521 C111.955495,22.8742479 111.527797,22.9852901 110.508374,22.5000507 C109.866061,22.1927831 109.309594,21.8246704 109.019863,21.1629803 C108.676479,20.3750366 109.150165,19.5049521 109.964171,19.5338535" id="Fill-6" fill="#231F20"></path>
                    <path d="M71.2726962,13.1953183 C72.025383,13.0432056 72.7106192,13.2774592 73.2241632,13.9650085 C73.3192071,14.0927831 73.5046962,14.2935718 73.3958555,14.3650648 C72.9328995,14.6723324 72.9957511,15.3979099 72.5281962,15.5774028 C71.9563995,15.7964451 71.3156192,16.1128394 70.673306,15.6671493 C70.3743775,15.4602761 70.0493885,15.2899099 69.747394,15.0891211 C69.4009434,14.8579099 69.0682896,14.5871493 69.2215863,14.1095155 C69.3902126,13.5816845 69.6860753,13.1664169 70.3391192,13.1937972 C70.6227181,13.2044451 70.906317,13.1953183 71.2726962,13.1953183" id="Fill-8" fill="#231F20"></path>
                    <path d="M57.2935698,48.1006141 C57.2015918,49.1182479 56.5884049,49.7175718 56.2557511,50.4431493 C55.5950423,51.8821352 54.6890588,53.1218535 53.5255368,54.2505296 C52.401872,55.3396563 51.3088665,56.5094028 50.4396742,57.843431 C50.076361,58.3986423 49.5704819,58.8291211 49.0692016,59.2519944 C49.2562236,58.4062479 56.494894,48.6756 57.2935698,48.1006141" id="Fill-10" fill="#231F20"></path>
                    <path d="M48.4595407,59.6076338 C48.5223923,59.6350141 48.585244,59.6608732 48.6480956,59.6882535 C48.6189692,59.7506197 48.6051725,59.8449296 48.5576505,59.8647042 C48.5147275,59.8844789 48.4350132,59.8221127 48.3721615,59.7962535 C48.4012879,59.7323662 48.4304143,59.67 48.4595407,59.6076338" id="Fill-12" fill="#231F20"></path>
                    <path d="M78.9806077,42.9441465 C78.9974703,42.9122028 79.0204648,42.8513577 79.0281297,42.8528789 C79.1032451,42.8696113 79.0848495,42.9030761 78.9760088,42.9395831 L78.9806077,42.9441465 Z" id="Fill-14" fill="#231F20"></path>
                    <path d="M52.4592049,42.6989408 C52.4776005,42.6669972 52.502128,42.604631 52.5128588,42.6061521 C52.5910401,42.6259268 52.5726445,42.6609127 52.457672,42.6974197 L52.4592049,42.6989408 Z" id="Fill-16" fill="#231F20"></path>
                    <path d="M48.7773247,37.5836958 C48.7941874,37.5517521 48.8171819,37.4924282 48.8263797,37.4939493 C48.8999621,37.5106817 48.8815665,37.5441465 48.7727258,37.5791324 L48.7773247,37.5836958 Z" id="Fill-18" fill="#231F20"></path>
                    <path d="M105.987348,44.4004732 C105.972018,44.4308958 105.950557,44.4902197 105.941359,44.4871775 C105.870842,44.4750085 105.889238,44.4415437 105.99348,44.4065577 L105.987348,44.4004732 Z" id="Fill-20" fill="#231F20"></path>
                </g>
                <polygon id="Fill-23" fill="#231F20" points="47 58.064 47.044 58.106 47.1 58"></polygon>
                <g id="Group-32" transform="translate(161.000000, 42.000000)" fill="#231F20">
                    <path d="M1.060485,9.47805 C1.106235,9.46605 1.16571,9.50505 1.145885,9.59655 C1.13216,9.66555 1.08031,9.73155 1.03151,9.78555 C0.96136,9.86355 0.86986,9.85455 0.853085,9.76305 C0.83021,9.64155 0.90646,9.54705 1.060485,9.47805" id="Fill-24"></path>
                    <path d="M58.077795,6.39105 C58.089995,6.46755 58.12202,6.53655 58.108295,6.59505 C58.08237,6.69555 58.02137,6.70005 57.977145,6.61155 C57.96342,6.58305 57.955795,6.53655 57.96952,6.51105 C57.99392,6.46755 58.03662,6.43455 58.077795,6.39105" id="Fill-26"></path>
                    <path d="M38.141165,5.93115 C38.168615,5.83665 38.11829,5.70915 38.26164,5.66865 C38.263165,5.66865 38.30129,5.74065 38.28909,5.75715 C38.24639,5.81865 38.189965,5.87265 38.13964,5.92965 L38.141165,5.93115 Z" id="Fill-28"></path>
                    <path d="M58.90587,0.88695 C58.92112,0.85995 58.934845,0.83295 58.950095,0.80595 C58.93332,0.83145 58.91807,0.85695 58.901295,0.88245 L58.90587,0.88695 Z" id="Fill-30"></path>
                </g>
            </g>
        </g>
    </g>
</svg>