<?xml version="1.0" encoding="UTF-8"?>
<svg width="255px" height="116px" viewBox="0 0 255 116" version="1.1" xmlns="http://www.w3.org/2000/svg" xmlns:xlink="http://www.w3.org/1999/xlink">
    <!-- Generator: Sketch 47.1 (45422) - http://www.bohemiancoding.com/sketch -->
    <title>Page 1 Copy 2</title>
    <desc>Created with Sketch.</desc>
    <defs>
        <polygon id="path-1" points="4.79178884e-17 11.7281061 4.79178884e-17 0.17092217 5.10064524 0.17092217 5.10064524 11.7281061 0 11.7281061"></polygon>
    </defs>
    <g id="Page-1" stroke="none" stroke-width="1" fill="none" fill-rule="evenodd">
        <g id="Desktop-HD-Copy-12" transform="translate(-961.000000, -1053.000000)">
            <g id="Page-1-Copy-2" transform="translate(961.000000, 1053.000000)">
                <path d="M58.1363866,76.9999245 L58.1363866,76.9999245 C58.2482718,76.8883019 58.3579631,76.7329057 58.4698482,76.6037736 C58.3579631,76.7329057 58.2482718,76.8883019 58.1363866,76.9999245" id="Fill-1" fill="#FEFEFE"></path>
                <g id="Group-5" transform="translate(173.828441, 45.962264)" fill="#66CBE2">
                    <path d="M80.4099009,10.3507367 C79.8620279,10.3507367 79.2913998,10.248018 78.7697827,10.3681467 C75.8798838,11.0297247 72.8639566,11.4092616 70.1508475,12.5165343 C65.5263091,14.4020317 60.7179795,15.5928722 55.9674129,17.020488 C54.5093355,17.4592187 53.1247746,18.1486527 51.7157082,18.7440729 C46.8041054,20.8210798 41.6439468,22.1755738 36.9721479,24.9959854 C31.6754586,28.190711 25.9376703,30.6785926 20.3101568,33.2987899 C18.4144812,34.1814743 16.2667489,34.5244503 14.2345426,35.1146475 C14.147023,34.959699 14.0595033,34.8064914 13.9719837,34.6532839 C14.3815756,34.0334897 14.7281535,33.3597247 15.2130123,32.8043473 C17.9348735,29.6844846 20.5867189,26.496723 23.4591138,23.5196218 C26.6028197,20.2604794 29.9110625,17.1528036 33.24031,14.0782067 C36.6413236,10.935711 40.1771175,7.93771784 43.5956351,4.81437307 C43.6498972,4.76562521 43.6971578,4.70991338 43.7409177,4.65071955 C43.8266869,4.5323319 43.8949523,4.39305232 43.9527152,4.24332676 C44.0104782,4.0936012 44.0594892,3.93342967 44.1049994,3.76977616 C44.1750151,3.52603688 44.2397797,3.27881561 44.3272993,3.05422727 L44.3272993,3.05422727 C44.1662632,3.05422727 43.9929743,3.03855832 43.817935,3.01940738 C43.2910667,2.96021355 42.7431937,2.87316381 42.4176206,3.09949314 C41.297369,3.87771784 40.357408,4.91012779 39.3351785,5.82937307 C37.346732,7.61563379 35.3565351,9.40189451 33.3575863,11.1759683 C30.03359,14.1252136 26.6973409,17.0570489 23.3768453,20.0097762 C21.6509578,21.5453336 19.709772,22.4019031 16.9651557,22.0154022 C19.1023856,19.5449305 20.9788069,17.1545446 23.0897809,14.987006 C27.423754,10.5422461 31.8925074,6.22806089 36.2684899,1.82334391 C36.6308213,1.45947599 36.7148401,0.820530875 36.9283881,0.308678388 C36.3175009,0.225110635 35.5245729,-0.140498285 35.1307344,0.110204974 C33.8827042,0.902357633 32.7677039,1.90865266 31.6299484,2.86619983 C30.3101521,3.97521355 28.9465959,5.04766638 27.735324,6.26810377 C26.0969561,7.9185669 24.5373559,9.65433877 23.0285171,11.4249305 C20.8090188,14.0329408 18.7190495,16.7541158 16.4680441,19.3342702 C14.7876668,21.2615515 13.0477762,23.1627178 11.1328462,24.8497419 C9.53473739,26.2582067 7.71607905,27.4612341 5.85891206,28.514536 C4.77716918,29.1273662 3.42586577,29.2701278 2.05005687,29.6670746 C2.05005687,29.0316115 2.0167994,28.8366201 2.05705844,28.6590386 C2.12007259,28.3822204 2.19358909,28.0932153 2.33187014,27.849476 C4.19253792,24.5798877 6.18448517,21.406054 8.86083608,18.707512 C9.65551451,17.9066544 10.4221867,17.0692358 11.136347,16.1952564 C13.0810336,13.8066115 14.9837108,11.3866286 16.9143943,8.98579674 C18.0906584,7.52510206 19.2844265,6.07833533 20.462441,4.6350506 C19.153147,3.24225472 18.3584686,4.16846398 17.7475814,4.85615695 C16.5835701,6.17060806 15.6051004,7.64348971 14.4918504,9.00494768 C11.087336,13.1607024 7.59180115,17.2433353 4.26605442,21.4582839 C2.82723136,23.2811055 1.57570036,25.2902136 0.527214944,27.3585154 C0.0948678692,28.2098619 0.0598600089,29.6427007 0.5132118,30.4313714 C0.861540009,31.0372376 2.34587329,31.4324434 3.16505722,31.240934 C4.75441407,30.8701021 6.37352761,30.229416 7.72308062,29.3223576 C10.0528537,27.7572033 12.1813316,25.8995617 14.4060812,24.1759768 C14.6161283,24.0140643 14.9119447,23.8277779 15.1464974,23.8538928 C16.5730677,24.0088413 17.9943868,24.2195017 19.504976,24.4249391 C19.1163888,24.9246046 18.7172991,25.4469031 18.3094576,25.9604966 C16.1792293,28.6451106 14.0052412,31.2966458 11.9537805,34.0369717 C11.5301854,34.604536 11.1696045,35.8597933 11.4601697,36.1749134 C11.9800364,36.7372547 13.0197699,37.0715257 13.8407042,37.0697847 C18.1484214,37.0628208 21.9327711,35.1790643 25.6908649,33.4102136 C29.8830562,31.4359254 33.8827042,29.0594674 38.0783963,27.0956252 C42.664426,24.9489786 47.3397257,22.9799134 52.0465325,21.1100849 C55.5070595,19.73644 59.0953652,18.6813971 62.6049032,17.4261398 C65.8868901,16.2509683 69.1268676,14.9608911 72.4141056,13.8013885 C74.03672,13.2268602 75.7451035,12.8908482 77.3747194,12.3319889 C78.4809678,11.952452 79.5154501,11.3744417 80.5831898,10.8852221 C80.5254269,10.7058997 80.4676639,10.5283182 80.4099009,10.3507367" id="Fill-3"></path>
                </g>
                <path d="M212.250211,19.8340711 C209.251786,22.4471378 206.286774,25.102266 203.4009,27.8380119 C201.399605,29.7377868 199.54955,31.7970446 197.611565,33.7651693 C196.401643,34.9937137 195.133687,36.1661763 193.927283,37.3999784 C190.675618,40.7228319 187.41516,44.0386751 184.214495,47.4088477 C181.766514,49.9886158 179.348429,52.5981774 177.021791,55.2830991 C174.385639,58.3237904 171.855003,61.4556148 169.297988,64.564656 C164.27013,70.6775847 159.180721,76.7431944 154.267172,82.9455036 C151.68202,86.2105226 149.425727,89.7349205 146.998849,93.1261238 C144.774211,96.2334124 142.5144,99.3161651 140.279211,102.416444 C138.831877,104.424877 137.417957,106.459599 135.951278,108.455765 C135.189801,109.489775 134.42129,110.537806 133.517366,111.442127 C132.625752,112.33418 131.558277,113.054482 130.566423,113.850144 C130.43101,113.732722 130.295597,113.613548 130.160185,113.496127 C130.339563,112.670671 130.387045,111.789134 130.72118,111.032028 C131.625104,108.988543 132.564201,106.948563 133.649261,104.996212 C135.326973,101.976551 137.092614,99.0024569 138.909256,96.0616615 C140.277452,93.8464259 141.791613,91.7188182 143.226636,89.5438915 C144.74959,87.2340176 146.244406,84.9066181 147.772636,82.6020019 C149.744035,79.6279079 151.715433,76.6538138 153.732556,73.7112658 C154.311138,72.866532 155.049753,72.133962 155.719782,71.3435575 C155.800678,71.6152042 155.881574,71.8798408 156.110193,72.6386992 C158.508933,70.8984073 160.919984,69.5980079 162.741901,67.7280265 C166.041048,64.3438335 169.078163,60.6914987 172.04845,57.0111231 C173.654059,55.0219676 174.941359,52.7681757 176.279659,50.5792284 C176.865275,49.6240833 177.007723,48.2991481 176.036971,47.6980201 C175.379252,47.2896736 174.15702,47.5858562 173.253096,47.8189467 C170.588806,48.5059501 169.77633,51.3188087 167.734587,52.7944641 C166.586216,53.6251774 165.86167,55.0429984 164.961263,56.2084507 C162.441179,59.4769748 159.847233,62.6929221 157.437941,66.0420639 C155.434888,68.8303867 153.671005,71.7922128 151.766433,74.654143 C149.853068,77.5300937 147.920359,80.3955291 145.947202,83.2329235 C144.53504,85.2641403 142.966362,87.1919561 141.598166,89.251214 C138.659533,93.674675 135.778935,98.1349398 132.928232,102.614483 C130.761628,106.019707 128.707575,109.472249 128.357612,113.65561 C128.192303,115.604456 129.124365,116.545581 130.877696,115.672806 C132.115756,115.057658 133.304574,114.128801 134.190912,113.070255 C136.865754,109.878843 139.424528,106.589288 141.941094,103.271693 C143.699702,100.953056 145.277172,98.5012248 147.000607,96.1545472 C149.807345,92.3304616 152.663323,88.5414272 155.506991,84.74363 C157.545216,82.0254097 159.504305,79.2423447 161.663874,76.6222677 C164.315854,73.4063204 167.159522,70.3463509 169.885363,67.1882381 C174.5615,61.769323 179.0565,56.1821623 183.913773,50.9297404 C189.601109,44.7782554 195.555753,38.8686236 201.469949,32.9274457 C205.449677,28.9281041 209.568335,25.0689673 213.586753,21.1064295 C213.859337,20.8365353 213.803062,20.2354073 213.898026,19.7885045 C213.338789,19.7920097 212.568519,19.5554141 212.250211,19.8340711 M159.945715,64.8170246 L165.181089,57.9259593 C167.56576,55.135884 170.122775,52.4930238 172.658687,49.8361431 C173.078994,49.3962505 173.768368,49.2087266 174.332881,48.9055338 C174.468294,49.0019246 174.605465,49.0983154 174.742636,49.1947062 C174.528086,49.8186175 174.440156,50.5301568 174.077883,51.050667 C171.67035,54.5119727 169.38416,58.0801846 166.702284,61.3171626 C164.305303,64.2106389 161.475704,66.7518507 158.770966,69.3806904 C158.194142,69.9415096 157.330666,70.2114038 156.597327,70.6144926 C156.460156,70.4515045 156.321226,70.290269 156.184054,70.1272809 C157.436183,68.3554429 158.658415,66.5625742 159.945715,64.8170246" id="Fill-6" fill="#66CBE2"></path>
                <path d="M90.2437558,4.12708107 C90.7228005,3.349843 90.9605617,2.34830133 91.036293,1.42674389 C91.1190691,0.419985855 90.5114573,-0.251186168 89.3913381,0.0896162064 C88.4350099,0.37999374 87.4575474,0.732967628 86.6297863,1.27199179 C85.8337267,1.78841172 85.2173089,2.5778213 84.5233986,3.24725453 C84.6678165,3.42287208 84.8104732,3.59848963 84.9548911,3.7723684 C85.6276671,3.40374542 86.372652,3.12206182 86.9556071,2.64563402 C87.663607,2.06835652 88.1127114,0.823384584 89.2169799,1.49977297 C89.4617858,1.64930871 89.0831292,3.26464241 88.6252188,3.97406776 C86.4008311,7.41338968 84.1341748,10.8318462 81.7283842,14.1494529 C78.2095191,19.0006704 74.5867436,23.7823364 70.9534009,28.5500921 C69.3788937,30.6157718 67.6317895,32.5493036 66.0238197,34.5889015 C63.5792828,37.6908986 61.1752533,40.8241939 58.7782687,43.9627056 C56.9941794,46.2996361 55.2911051,48.6974243 53.4770755,51.0100118 C51.5062997,53.5225599 49.4685986,55.9846832 47.4220915,58.4381125 C45.1836143,61.1228006 42.9011072,63.772713 40.6379732,66.4382744 C40.4688986,66.3339471 40.299824,66.2278811 40.1289882,66.1235538 C40.7348389,64.7499116 41.2579134,63.3327997 41.9659133,62.0113211 C43.3801519,59.3770579 44.8613158,56.7758316 46.381226,54.2006871 C48.1001511,51.2882178 49.7873747,48.3514055 51.6788967,45.5484799 C54.0987769,41.9630998 56.7018212,38.4976961 59.236179,34.9870838 C61.990686,31.170445 64.7663273,27.3677165 67.5120284,23.5458613 C67.9223865,22.9720614 68.126685,22.238293 68.5898789,21.7218731 C71.4025053,18.5937941 74.2820571,15.524834 77.0964446,12.4002326 C78.5318175,10.8057643 79.8879367,9.14174458 81.2616678,7.4951127 C81.8851304,6.7509116 82.4663243,5.97367353 83.0668914,5.21208455 C82.9330407,5.1060185 82.7991899,4.99995246 82.6653392,4.89388641 C81.8833692,5.74241478 81.1049216,6.59442071 80.3159068,7.43599392 C77.6882057,10.2406584 75.0059077,12.9966367 72.4468932,15.86042 C70.6733711,17.8426379 69.0583565,19.96222 67.390506,22.0348548 C65.3281481,24.596089 63.2023873,27.1121147 61.2527458,29.7550719 C58.1671344,33.9420725 55.190717,38.2107961 52.1931653,42.4603931 C49.4492255,46.350061 46.4587185,50.1041035 44.0881518,54.2041647 C41.5925402,58.5198356 39.6957346,63.1728312 37.5594066,67.6884627 C36.9341828,69.0082025 36.6206903,70.5418132 35.7488994,71.6633312 C34.4121534,73.384731 32.7073179,74.8244471 31.1715569,76.3980499 C28.0489605,79.6026355 24.7291103,82.5533581 20.4934394,84.2695415 C19.9157678,84.5042778 19.2130515,84.4382039 18.5684546,84.5094942 C18.5490815,83.8713591 18.4152308,83.2106198 18.5279472,82.595089 C19.4120664,77.7942964 21.1873497,73.2925752 23.2532299,68.8795322 C24.4226626,66.384372 25.535737,63.8492196 26.4374682,61.2532097 C26.8302144,60.1195202 27.8922142,58.9075852 26.890095,57.4974284 C24.8189312,61.9574187 22.6244838,66.2991714 20.7769915,70.7782883 C19.253559,74.4714732 18.1299174,78.3246266 16.8512907,82.1134448 C16.4303654,83.3601556 16.0974998,84.6781566 17.1947235,85.7370783 C18.3412606,86.8429472 19.6920962,86.4586751 20.9918572,85.9700758 C21.3493795,85.8361891 21.6910511,85.6640492 22.0362451,85.5006031 C25.7118564,83.7461664 28.517438,80.9536735 31.3194972,78.1107557 C32.399109,77.0135807 33.4558252,75.6799306 35.4072279,75.2904422 C35.3596756,75.93901 35.2892279,76.3910948 35.3015562,76.8414408 C35.3649592,79.2705271 35.972571,80.7867499 37.9838543,81.7622097 C40.3403315,82.906332 45.3474053,81.4127134 47.2952855,79.4426671 C47.2530169,79.3105192 47.2107482,79.1801101 47.1684796,79.0479623 C46.4111663,79.2253186 45.6556142,79.4078913 44.8965397,79.5765537 C43.3202713,79.9295276 41.7545701,80.433776 40.1571673,80.5798342 C38.672481,80.7171984 37.0750783,79.3018253 37.0504216,77.9212279 C37.0063918,75.5164846 37.2670484,73.0526225 38.7675855,71.1034416 C41.0870776,68.0901226 43.7183011,65.31154 46.1205693,62.3590786 C48.1371361,59.8813063 49.9934343,57.28008 51.9624489,54.7657931 C54.9617618,50.9335052 57.9962986,47.1290378 61.0185071,43.3158766 C63.3608947,40.3616764 65.7473122,37.442252 68.0439089,34.4550148 C71.5522068,29.8889585 75.0059077,25.2811713 78.4736981,20.6838168 C80.5836082,17.8861075 82.7093691,15.098831 84.7646821,12.2611296 C85.6118163,11.0891867 86.2423237,9.76423055 87.0595176,8.56620588 C88.0862935,7.06215458 89.29095,5.67286327 90.2437558,4.12708107" id="Fill-8" fill="#66CBE2"></path>
                <path d="M139.304787,61.4709725 C140.748775,57.5996412 142.263029,53.7526252 143.675396,49.8708731 C144.636298,47.2326712 145.477746,44.5510492 146.364867,41.8867952 C147.397792,38.7813935 148.37099,35.6551502 149.474183,32.572327 C150.081993,30.871998 150.900603,29.2446147 151.687594,27.4383408 C152.335807,28.2094808 152.699439,28.6402077 153.112258,29.1317226 C153.904519,27.7909116 153.607641,25.9707433 152.652009,25.3993355 C151.712188,24.8383485 150.681019,25.3038114 150.004699,26.8165658 C148.571251,30.0157547 147.100914,33.2114701 145.887051,36.4940255 C144.420227,40.4539337 143.215147,44.5076291 141.873047,48.5126941 C141.328478,50.1383406 140.624051,51.7170935 140.162045,53.3618448 C139.032502,57.3721202 137.344337,61.1496641 135.25565,64.7309495 C134.359745,66.2662823 133.133586,67.6904598 131.798512,68.8819058 C128.7823,71.5774222 125.330432,73.4097482 121.130221,73.7414773 C119.234768,73.8908423 117.399041,74.7314543 115.500075,74.927713 C111.189193,75.3723342 106.858987,75.8186923 102.532295,75.8603755 C99.8340413,75.8864276 96.9689033,75.6068025 94.4673971,74.6949815 C90.8310785,73.3663281 89.1481832,70.0907199 88.7019875,66.4416993 C88.0362075,61.01072 89.2448003,55.7308425 90.6729777,50.5239106 C91.3370011,48.1045457 92.0344013,45.6747599 92.9847629,43.3578663 C93.9526912,40.9992894 95.1770941,38.7327631 96.4331172,36.5044463 C97.2622681,35.0333752 98.2460065,33.6196185 99.3421721,32.3309116 C100.17835,31.3496185 101.279785,30.5802153 102.305684,29.7708657 C102.683369,29.4721358 103.184022,29.3245076 103.721565,29.0639873 C103.963986,30.986627 102.822147,32.8380577 104.584092,34.7485397 C104.856377,32.7112712 105.119878,30.9657853 105.311356,29.2133523 C105.42554,28.1625872 104.684223,27.5529698 103.812912,27.7926484 C102.572699,28.1347984 101.060201,28.5568412 100.325911,29.4669254 C97.7664341,32.6400623 95.1156105,35.8392512 93.1973206,39.3962214 C90.1336782,45.0720897 88.3278156,51.2498938 87.3194838,57.6413245 C86.58695,62.2890061 85.9475201,66.8654789 88.3664625,71.2856395 C89.6470791,73.6251116 91.2157904,75.5442776 93.8789108,76.3866265 C96.905663,77.3418675 99.8814716,77.8854864 103.173482,77.6388606 C109.992897,77.1299777 116.803528,76.7721965 123.53511,75.4261751 C127.749375,74.5838262 131.229349,72.5621889 134.301775,69.7173075 C136.757607,67.4438339 138.161191,64.5346909 139.304787,61.4709725" id="Fill-10" fill="#66CBE2"></path>
                <path d="M151.457001,57.7138572 C151.877084,59.3205257 152.562575,60.9289089 151.819081,62.5801595 C151.107225,64.1611077 150.347911,65.735197 149.444469,67.2184075 C148.00318,69.5846856 146.774568,72.1807328 144.224189,73.6485111 C143.30317,74.1783516 142.051709,74.6070252 141.058626,74.4475586 C139.893291,74.2589422 140.202641,72.9317689 140.241309,72.0332691 C140.392469,68.4478433 141.751148,65.2293622 143.459603,62.1137627 C144.067757,61.0060702 144.554631,59.8332193 145.104782,58.6929476 C145.203211,58.4871843 145.285822,58.2179773 145.461589,58.1116662 C146.913424,57.2320281 148.384594,56.3832544 149.973528,55.4538901 C149.470834,54.1318608 147.681526,53.9038065 146.662077,55.2687031 C144.561662,58.0790871 142.373363,60.8603212 140.624481,63.8747537 C139.060155,66.5736825 138.163744,69.6224089 138.212958,72.7911639 C138.263931,76.1365325 140.802006,77.4842822 143.870898,76.0113598 C146.839602,74.5847341 148.845103,72.2287442 150.41646,69.5555358 C151.913995,67.0057855 153.251582,64.3342918 154.31673,61.5890662 C155.104166,59.5622976 155.418789,57.3434832 155.756261,55.1812537 C155.828326,54.7217157 155.160411,53.771775 154.698144,53.6791815 C152.599486,53.250508 152.369232,55.3681554 151.316387,56.3643928 C151.108982,56.5615826 151.339237,57.266322 151.457001,57.7138572" id="Fill-12" fill="#66CBE2"></path>
                <path d="M24.792008,54.3786067 C25.5468373,53.2925601 26.6399156,52.4357117 27.8469303,51.1998049 C27.6884873,53.4988385 27.5656496,55.2760055 27.4410315,57.0937231 C27.713411,57.0813816 27.9662075,57.1043014 27.9768891,57.063751 C28.5572531,54.8563967 29.3049613,52.668436 29.6040446,50.4205312 C29.7553665,49.288645 28.5145269,48.8743253 27.4784169,49.6236269 C26.6986641,50.1860439 25.9669781,50.8560077 25.3421077,51.5859156 C23.9339238,53.232616 22.5827082,54.9304453 21.2475149,56.6388529 C19.4156298,58.9837262 17.5695025,61.3233102 15.8230697,63.7316537 C14.3864017,65.713336 13.0636703,67.7796454 11.7320375,69.8336133 C10.354118,71.9563406 9.02604577,74.10904 7.67839069,76.249398 C7.75138125,76.3675232 7.82437182,76.4856484 7.89558213,76.6037736 C8.32462424,76.3692863 8.90498825,76.2405827 9.15422433,75.882681 C10.5446056,73.8904203 11.8495345,71.8399785 13.1954093,69.8159826 C14.6463194,67.6315481 16.0545032,65.4171415 17.5801841,63.2855989 C19.8037259,60.1790826 22.6040713,57.5256734 24.792008,54.3786067" id="Fill-14" fill="#66CBE2"></path>
                <g id="Group-18" transform="translate(0.000000, 82.075472)">
                    <mask id="mask-2" fill="white">
                        <use xlink:href="#path-1"></use>
                    </mask>
                    <g id="Clip-17"></g>
                    <path d="M4.96535931,0.17092217 C4.71672571,0.466120283 4.43335653,0.741757075 4.22677126,1.06185142 C3.64723558,1.96522877 3.25965967,3.04465802 2.50827429,3.77020519 C0.665460526,5.55206368 0.360153087,7.82473349 0.0201100709,10.1116297 C-0.0457047065,10.5562052 0.0658147773,11.0274552 0.0950657895,11.4862571 C0.235836285,11.5662807 0.376606781,11.6463042 0.519205466,11.7281061 C0.994534413,11.2052854 1.56127277,10.7322571 1.8994876,10.1347476 C2.02563259,9.91245991 1.6197748,9.40386557 1.47169155,9.058875 C2.65635754,6.2278184 3.8775873,3.309625 5.10064524,0.391431604 C5.05494054,0.318521226 5.01106402,0.243832547 4.96535931,0.17092217" id="Fill-16" fill="#231F20" mask="url(#mask-2)"></path>
                </g>
                <path d="M6.58147773,78.6326133 C6.76356528,78.6858932 6.94784666,78.739173 7.12993421,78.7924528 C7.59063765,78.140476 8.04914727,77.487097 8.67,76.6037736 C6.29408654,76.9641135 6.95223431,77.9539966 6.58147773,78.6326133" id="Fill-19" fill="#231F20"></path>
                <path d="M5.75068196,82.0754717 C6.32327053,81.1745933 6.72035302,80.5533588 7.12840464,79.9108856 C5.41283277,79.7923024 5.20880696,80.0507076 5.75068196,82.0754717" id="Fill-21" fill="#231F20"></path>
                <path d="M58.7819983,76.6480898 C58.6670836,76.6590332 58.558437,76.7619011 58.4518797,76.8932219 C58.3474118,77.022354 58.2429439,77.1777502 58.1363866,77.2893728 L58.1363866,77.2893728 C58.2095142,77.3353351 58.2868204,77.3900521 58.3620373,77.4491464 C58.476952,77.5366936 58.5918667,77.6286181 58.704692,77.6964672 C58.7778195,77.7402408 58.8509471,77.7730709 58.9219853,77.786203 C58.955415,77.7927691 58.9909341,77.7949577 59.0243638,77.7883917 C59.8371241,77.663637 60.6269014,77.383486 61.4271255,77.1646181 C61.4062319,76.9829577 61.3874277,76.7991087 61.3665341,76.6174483 C60.5036293,76.6174483 59.638635,76.571486 58.7819983,76.6480898" id="Fill-23" fill="#231F20"></path>
            </g>
        </g>
    </g>
</svg>