<?xml version="1.0" encoding="UTF-8"?>
<svg width="232px" height="106px" viewBox="0 0 232 106" version="1.1" xmlns="http://www.w3.org/2000/svg" xmlns:xlink="http://www.w3.org/1999/xlink">
    <!-- Generator: Sketch 47.1 (45422) - http://www.bohemiancoding.com/sketch -->
    <title>Page 1</title>
    <desc>Created with Sketch.</desc>
    <defs>
        <polygon id="path-1" points="73.9340426 0.0216532708 73.9340426 33.8741198 0.641816299 33.8741198 0.641816299 0.0216532708"></polygon>
        <polygon id="path-3" points="4.36843125e-17 10.7170625 4.36843125e-17 0.1561875 4.65 0.1561875 4.65 10.7170625 0 10.7170625"></polygon>
    </defs>
    <g id="Page-1" stroke="none" stroke-width="1" fill="none" fill-rule="evenodd">
        <g id="Desktop-HD-Copy-5" transform="translate(-909.000000, -466.000000)">
            <g id="Page-1" transform="translate(909.000000, 466.000000)">
                <path d="M53,70.362 L53,70.362 C53.102,70.26 53.202,70.118 53.304,70 C53.202,70.118 53.102,70.26 53,70.362" id="Fill-1" fill="#FEFEFE"></path>
                <g id="Group-5" transform="translate(158.000000, 42.000000)">
                    <mask id="mask-2" fill="white">
                        <use xlink:href="#path-1"></use>
                    </mask>
                    <g id="Clip-4"></g>
                    <path d="M73.7762234,9.45843182 C73.2767553,9.45843182 72.7565426,9.36456818 72.2810106,9.47434091 C69.6464362,10.0788864 66.8969681,10.4257045 64.4235638,11.4375227 C60.2076064,13.1604773 55.8240957,14.2486591 51.4932447,15.5532045 C50.1639894,15.9541136 48.9017553,16.5841136 47.6171809,17.1282045 C43.1395213,19.0261591 38.435266,20.2638864 34.1762234,22.8411591 C29.3475,25.7604773 24.1166489,28.0338864 18.9863298,30.4282045 C17.2581383,31.2347955 15.3001596,31.5482045 13.4475,32.0875227 C13.3677128,31.9459318 13.2879255,31.8059318 13.2081383,31.6659318 C13.5815426,31.0995682 13.8975,30.4838864 14.3395213,29.9763864 C16.8209043,27.1254773 19.2384574,24.2125227 21.8570745,21.4920682 C24.7230319,18.5138864 27.7389894,15.6741136 30.7740957,12.8645682 C33.8746277,9.99297727 37.0980319,7.25343182 40.2145213,4.39934091 C40.2639894,4.35479545 40.3070745,4.30388636 40.3469681,4.24979545 C40.4251596,4.14161364 40.4873936,4.01434091 40.5400532,3.87752273 C40.5927128,3.74070455 40.6373936,3.59434091 40.678883,3.44479545 C40.7427128,3.22206818 40.8017553,2.99615909 40.8815426,2.79093182 L40.8815426,2.79093182 C40.734734,2.79093182 40.5767553,2.77661364 40.4171809,2.75911364 C39.9368617,2.70502273 39.4373936,2.62547727 39.1405851,2.83229545 C38.1193085,3.54343182 37.2623936,4.48684091 36.3304787,5.32684091 C34.5177128,6.95911364 32.7033511,8.59138636 30.8810106,10.2125227 C27.8506915,12.9075227 24.8092021,15.5866136 21.7820745,18.2847955 C20.2086702,19.6879773 18.4389894,20.4707045 15.9368617,20.1175227 C17.885266,17.8600227 19.5959043,15.6757045 21.5203723,13.6950227 C25.4714362,9.63343182 29.5453723,5.69115909 33.534734,1.66615909 C33.8650532,1.33365909 33.9416489,0.749795455 34.1363298,0.282068182 C33.5794149,0.205704545 32.8565426,-0.128386364 32.4975,0.100704545 C31.359734,0.824568182 30.3432447,1.74411364 29.3060106,2.61911364 C28.1028191,3.63252273 26.859734,4.61252273 25.7554787,5.72775 C24.2618617,7.23593182 22.8400532,8.82206818 21.4645213,10.4400227 C19.441117,12.8232045 17.5357979,15.3097955 15.4836702,17.6675227 C13.9517553,19.4286591 12.3655851,21.1659318 10.6198404,22.7075227 C9.16292553,23.9945682 7.50494681,25.0938864 5.8118617,26.0563864 C4.82569149,26.6163864 3.5937766,26.7468409 2.33952128,27.1095682 C2.33952128,26.5288864 2.30920213,26.3507045 2.34590426,26.1884318 C2.40335106,25.9354773 2.47037234,25.6713864 2.59643617,25.4486591 C4.29271277,22.4609318 6.10867021,19.5607045 8.54856383,17.0947955 C9.27303191,16.3629773 9.97196809,15.59775 10.6230319,14.7991136 C12.3959043,12.6163864 14.1304787,10.4050227 15.8905851,8.21115909 C16.9629255,6.87638636 18.0512234,5.55434091 19.1251596,4.23547727 C17.9315426,2.96275 17.2070745,3.80911364 16.6501596,4.43752273 C15.5889894,5.63865909 14.6969681,6.98456818 13.6820745,8.22865909 C10.5783511,12.0261591 7.39164894,15.7568409 4.35973404,19.6084318 C3.04803191,21.2741136 1.90707447,23.1100227 0.951223404,25.0000227 C0.557074468,25.7779773 0.525159574,27.0872955 0.938457447,27.8079773 C1.25601064,28.3616136 2.60920213,28.72275 3.35601064,28.54775 C4.80494681,28.2088864 6.28101064,27.6234318 7.51132979,26.7945682 C9.63526596,25.3643409 11.5756915,23.6668409 13.603883,22.0918409 C13.7953723,21.9438864 14.0650532,21.7736591 14.278883,21.7975227 C15.5794149,21.9391136 16.8751596,22.1316136 18.2522872,22.3193409 C17.8980319,22.7759318 17.5342021,23.2532045 17.1623936,23.7225227 C15.2203723,26.1757045 13.2384574,28.5986591 11.3682447,31.10275 C10.9820745,31.6213864 10.6533511,32.7684318 10.9182447,33.0563864 C11.3921809,33.57025 12.3400532,33.8757045 13.0884574,33.8741136 C17.0155851,33.86775 20.4655851,32.1463864 23.8916489,30.5300227 C27.7134574,28.7259318 31.359734,26.5543409 35.184734,24.7597955 C39.3655851,22.7982045 43.6278191,20.9988864 47.9187766,19.29025 C51.0735638,18.0350227 54.3448404,17.0709318 57.5443085,15.9238864 C60.5363298,14.8500227 63.4900532,13.6711591 66.4868617,12.6116136 C67.966117,12.0866136 69.5235638,11.7795682 71.0092021,11.2688864 C72.0177128,10.9220682 72.9607979,10.3938864 73.9342021,9.94684091 C73.8815426,9.78297727 73.828883,9.62070455 73.7762234,9.45843182" id="Fill-3" fill="#231F20" mask="url(#mask-2)"></path>
                </g>
                <path d="M193.497771,18.1242374 C190.764258,20.5120397 188.061207,22.9382775 185.430301,25.4381833 C183.605822,27.1741845 181.919221,29.0559201 180.152458,30.8543788 C179.049433,31.9770143 177.893502,33.0484025 176.793684,34.1758423 C173.829306,37.2122429 170.856912,40.2422376 167.939027,43.3218781 C165.707327,45.6792523 163.502881,48.0638517 161.381804,50.5173147 C158.978557,53.2958774 156.671505,56.157717 154.340404,58.9987374 C149.75676,64.5846895 145.117003,70.1274017 140.63757,75.7950292 C138.280817,78.778581 136.223869,81.9991515 134.011407,85.0980097 C131.983317,87.9374286 129.923163,90.7544268 127.885453,93.5874398 C126.565992,95.4227325 125.276993,97.2820474 123.939897,99.1061298 C123.245697,100.051001 122.545084,101.008685 121.721022,101.835047 C120.908183,102.650199 119.93502,103.308406 119.030797,104.035476 C118.907348,103.928177 118.783899,103.819277 118.66045,103.711978 C118.82398,102.957682 118.867267,102.152139 119.171881,101.460301 C119.995943,99.5929789 120.852069,97.7288595 121.841264,95.944814 C123.370749,93.185469 124.980395,90.4677624 126.636535,87.7804838 C127.88385,85.7562167 129.264234,83.8120235 130.572472,81.8245905 C131.960872,79.7138437 133.32362,77.5870821 134.71683,75.4811397 C136.514054,72.763433 138.311279,70.0457264 140.150187,67.3568464 C140.677651,66.5849344 141.351009,65.915517 141.961841,65.1932508 C142.035589,65.4414797 142.109338,65.6833028 142.317758,66.3767424 C144.504568,64.7864756 146.702601,63.5981796 148.363551,61.8894035 C151.371216,58.7969513 154.14,55.459473 156.84786,52.0963711 C158.311612,50.2786946 159.485179,48.219195 160.705239,46.2189501 C161.239116,45.3461451 161.368978,44.1354284 160.483993,43.5861218 C159.884384,43.2129776 158.770137,43.4836272 157.946075,43.6966237 C155.517177,44.3244027 154.776483,46.8947735 152.915129,48.2432172 C151.868218,49.0023173 151.207686,50.2979123 150.386831,51.3628946 C148.089398,54.3496494 145.724629,57.2883598 143.528199,60.3487826 C141.702117,62.8967326 140.094074,65.6032289 138.357772,68.218441 C136.613455,70.846465 134.851501,73.46488 133.052674,76.0576714 C131.765278,77.9137834 130.335194,79.6754082 129.087878,81.5571438 C126.408876,85.599272 123.78278,89.6750312 121.183939,93.7684067 C119.208755,96.8800767 117.336179,100.034987 117.017136,103.857712 C116.866432,105.638555 117.716145,106.498548 119.314569,105.701013 C120.443245,105.138894 121.527031,104.290111 122.33506,103.322819 C124.773578,100.406529 127.106282,97.4005567 129.400509,94.3689606 C131.003742,92.2502064 132.441842,90.0097399 134.013011,87.8653621 C136.571771,84.3709391 139.175421,80.9085456 141.767849,77.4381447 C143.625997,74.9542537 145.411998,72.4111081 147.380769,70.0168998 C149.798444,67.0781893 152.390872,64.2820103 154.875884,61.3961486 C159.138881,56.4443814 163.236745,51.3388724 167.664875,46.5392455 C172.849731,40.9180609 178.278278,35.5178802 183.669951,30.0888728 C187.298068,26.434302 191.05284,22.9078495 194.716228,19.2869098 C194.964729,19.0402823 194.913425,18.4909756 195,18.082599 C194.490172,18.0858019 193.787956,17.8696025 193.497771,18.1242374 M145.81441,59.2293501 L150.587235,52.9323421 C152.761219,50.3827906 155.09232,47.9677631 157.404182,45.5399238 C157.787355,45.1379531 158.415822,44.966595 158.93046,44.6895395 C159.053909,44.7776207 159.178961,44.865702 159.304014,44.9537832 C159.108419,45.5239091 159.028258,46.1741088 158.697992,46.6497475 C156.503165,49.8126647 154.418962,53.0732721 151.974032,56.0312003 C149.788825,58.675239 147.209223,60.9973808 144.74345,63.3995964 C144.21759,63.9120691 143.430402,64.1586966 142.761854,64.5270363 C142.636802,64.378099 142.510146,64.2307631 142.385094,64.0818257 C143.526596,62.4627323 144.640843,60.8244213 145.81441,59.2293501" id="Fill-6" fill="#231F20"></path>
                <path d="M82.2706628,3.77129822 C82.7073836,3.06106343 82.9241384,2.14586156 82.9931788,1.30374873 C83.0686416,0.383780178 82.5147126,-0.229532188 81.4935566,0.0818906714 C80.6217207,0.347235659 79.7306176,0.669780763 78.9759897,1.16233733 C78.2502625,1.63423829 77.6883056,2.35559532 77.0557027,2.9673188 C77.1873612,3.1277969 77.3174141,3.28827501 77.4490725,3.44716422 C78.0624084,3.11031909 78.7415734,2.85291856 79.2730241,2.41756212 C79.9184717,1.89004993 80.3278975,0.752403155 81.3346031,1.3704822 C81.5577803,1.50712692 81.2125782,2.98320772 80.7951245,3.63147571 C78.7672629,6.77430437 76.7008671,9.89806631 74.5076296,12.9296725 C71.2996585,17.3626816 67.9969575,21.732135 64.6846229,26.0888772 C63.2492244,27.9764811 61.656478,29.7433291 60.1905733,31.6070996 C57.9620128,34.4416832 55.7703809,37.3048668 53.5851713,40.1728172 C51.9587075,42.3082882 50.4061009,44.4993704 48.752342,46.612597 C46.9556855,48.9085461 45.0980165,51.1584174 43.2323196,53.4003442 C41.1916133,55.8535937 39.1107671,58.2750653 37.0475825,60.710837 C36.8934458,60.6155034 36.739309,60.518581 36.5835667,60.4232475 C37.13589,59.1680227 37.6127506,57.8730756 38.2581982,56.6655176 C39.5474879,54.258346 40.8977901,51.8813633 42.2834153,49.5282141 C43.8504722,46.8668197 45.3886285,44.1831809 47.1130334,41.6218868 C49.3191157,38.3455912 51.6921794,35.1789292 54.002625,31.9709559 C56.5137696,28.4833377 59.0441812,25.0084306 61.5472978,21.5160456 C61.9214006,20.9917112 62.1076491,20.3211988 62.5299196,19.8492978 C65.0940487,16.9908808 67.7191902,14.1864862 70.2849248,11.331247 C71.5934816,9.87423293 72.8297868,8.35366315 74.0821479,6.8489823 C74.6505272,6.16893646 75.1803723,5.45870167 75.7278788,4.76276692 C75.6058539,4.6658445 75.483829,4.56892208 75.3618041,4.47199965 C74.6489216,5.24737902 73.9392503,6.02593617 73.2199455,6.79495996 C70.8244035,9.35784299 68.3790882,11.876237 66.0461642,14.4931424 C64.4293339,16.3044794 62.9570069,18.2413389 61.436512,20.1352984 C59.5563648,22.4757365 57.6184163,24.7748634 55.8410269,27.1899795 C53.0280312,31.0160317 50.3145822,34.916762 47.581866,38.8000143 C45.080355,42.3543661 42.3540613,45.7847842 40.1929356,49.5313919 C37.9178129,53.4750221 36.1885913,57.7268975 34.2410092,61.8532504 C33.6710243,63.0592195 33.3852291,64.4606224 32.5904615,65.4854578 C31.3718178,67.0584611 29.8176056,68.3740637 28.4175301,69.8120111 C25.570817,72.7403393 22.5442777,75.4366893 18.682831,77.0049259 C18.1561971,77.2194263 17.5155662,77.1590484 16.9279199,77.224193 C16.9102584,76.6410696 16.7882334,76.0372905 16.8909913,75.4748227 C17.696998,71.0878915 19.3154339,66.9742498 21.1987923,62.9416415 C22.2649048,60.6615813 23.2796384,58.3449766 24.1017011,55.9727606 C24.4597479,54.9368029 25.4279194,53.8293451 24.514338,52.5407536 C22.6261628,56.6162619 20.6255963,60.5837256 18.9413312,64.6767117 C17.5524948,68.0515186 16.5281277,71.5725036 15.3624685,75.0346996 C14.9787322,76.1739353 14.6752755,77.3783155 15.6755588,78.3459508 C16.7207986,79.3564862 17.952287,79.0053411 19.1372133,78.5588624 C19.4631483,78.4365177 19.774633,78.2792173 20.0893288,78.1298615 C23.4401976,76.5266693 25.9979042,73.9749085 28.5523998,71.3770699 C29.5366271,70.374479 30.4999818,69.1557987 32.2789768,68.7998868 C32.2356259,69.3925436 32.1714022,69.8056556 32.1826413,70.2171786 C32.2404426,72.436861 32.7943716,73.8223749 34.6279567,74.7137434 C36.7762376,75.7592344 41.3409332,74.3943761 43.1167171,72.5941613 C43.0781829,72.4734055 43.0396487,72.3542386 43.0011145,72.2334828 C42.3107103,72.3955498 41.6219117,72.5623834 40.9299019,72.716506 C39.4928978,73.0390511 38.0655273,73.4998298 36.6092561,73.6332967 C35.2557428,73.7588192 33.7994716,72.465461 33.7769934,71.2038806 C33.7368536,69.0064428 33.9744811,66.7549827 35.3424447,64.9738346 C37.4570083,62.2202845 39.8557614,59.6812348 42.0457878,56.983296 C43.8841896,54.7191247 45.5764827,52.3421421 47.3715336,50.044604 C50.1058553,46.5426857 52.8722889,43.0661897 55.6274833,39.5817493 C57.7629195,36.8822215 59.9384955,34.2144716 62.0321864,31.4847549 C65.2305239,27.3123242 68.3790882,23.10176 71.5404971,18.9007292 C73.4639953,16.3442017 75.4019438,13.7972076 77.2756687,11.2041357 C78.047958,10.1332224 78.6227597,8.92248654 79.367754,7.82773985 C80.3038136,6.45334815 81.4020379,5.18382333 82.2706628,3.77129822" id="Fill-8" fill="#231F20"></path>
                <path d="M126.997121,56.1717507 C128.313531,52.6341549 129.694,49.1187782 130.981584,45.5716599 C131.857589,43.1608892 132.624694,40.7104415 133.433438,38.2758645 C134.375104,35.4381699 135.262319,32.5814304 136.268044,29.7643678 C136.822153,28.2106189 137.568439,26.7235273 138.285899,25.0729666 C138.876842,25.777629 139.208347,26.1712243 139.584693,26.6203672 C140.306957,25.3951434 140.036308,23.7318861 139.165107,23.2097376 C138.30832,22.6971116 137.368255,23.1224483 136.751688,24.5047929 C135.444887,27.4281897 134.104455,30.3484123 132.997837,33.3479888 C131.660608,36.9665256 130.561998,40.6707645 129.338473,44.3305653 C128.842017,45.8160699 128.199827,47.2587233 127.778639,48.7616857 C126.748893,52.4262477 125.209878,55.8781414 123.305727,59.1506952 C122.488976,60.5536717 121.371149,61.8550753 120.15403,62.9438105 C117.404302,65.4069548 114.257409,67.0813216 110.428289,67.3844534 C108.7003,67.5209421 107.026762,68.2890876 105.29557,68.4684274 C101.365557,68.8747192 97.4179281,69.2825981 93.4735019,69.320688 C91.0136405,69.3444941 88.4016392,69.0889747 86.1211427,68.255759 C82.8060951,67.0416447 81.2718846,64.0484164 80.8651107,60.7139666 C80.2581527,55.7511752 81.3599656,50.9264595 82.6619626,46.1684011 C83.2673191,43.9576021 83.9031036,41.7372806 84.7695001,39.6201192 C85.6519113,37.4648679 86.7681375,35.3937318 87.9131901,33.3575113 C88.669085,32.0132566 89.5659095,30.7213755 90.5652282,29.543764 C91.327529,28.6470652 92.3316521,27.9439899 93.2669119,27.2044117 C93.6112285,26.9314344 94.0676481,26.7965328 94.5576986,26.5584712 C94.7787018,28.315366 93.7377448,30.0071906 95.3440215,31.7529759 C95.5922497,29.891334 95.8324705,28.2963211 96.007031,26.6949599 C96.1111267,25.734778 95.4353054,25.1777137 94.6409751,25.3967304 C93.5103357,25.7093847 92.1314681,26.0950446 91.4620527,26.9266732 C89.1287076,29.8262638 86.7120859,32.7496606 84.9632782,35.9999954 C82.1703106,41.1865647 80.5239971,46.8317995 79.604752,52.6722448 C78.9369381,56.9192642 78.3540022,61.1012135 80.5592295,65.1403258 C81.7267028,67.2781192 83.1568175,69.0318399 85.5846495,69.8015725 C88.3439862,70.6744651 91.0568802,71.1712204 94.0580392,70.9458554 C100.274955,70.4808417 106.483863,70.1539037 112.620704,68.9239186 C116.462636,68.154186 119.635153,66.3068278 122.436128,63.7071948 C124.674986,61.6297103 125.954562,58.9713555 126.997121,56.1717507" id="Fill-10" fill="#231F20"></path>
                <path d="M138.075679,52.7385247 C138.458647,54.2066873 139.083575,55.6764168 138.405769,57.1853182 C137.756805,58.6299777 137.064578,60.0683697 136.240955,61.4237172 C134.927005,63.5860058 133.806942,65.9582558 131.481891,67.2995015 C130.642244,67.7836661 129.501351,68.1753851 128.596007,68.0296656 C127.53363,67.8573093 127.815648,66.6445474 127.850901,65.8235045 C127.988705,62.5471672 129.227344,59.6061413 130.784856,56.759128 C131.339279,55.7469262 131.783138,54.6751832 132.284682,53.6332107 C132.374416,53.4451856 132.449727,53.1991861 132.609965,53.1020398 C133.93353,52.2982326 135.274721,51.522629 136.723271,50.6733824 C136.264991,49.4653211 134.633769,49.2569266 133.70439,50.5041598 C131.789547,53.0722692 129.794586,55.6137418 128.200219,58.3683094 C126.774102,60.8345719 125.956889,63.6204771 126.001756,66.5160636 C126.048225,69.5730383 128.36206,70.8046027 131.159813,69.4586564 C133.86623,68.1550157 135.694544,66.0021283 137.127071,63.559369 C138.492297,61.2294246 139.711707,58.7882321 140.682749,56.279664 C141.400614,54.4276168 141.68744,52.4000795 141.995097,50.4242491 C142.060794,50.0043264 141.451891,49.1362772 141.030465,49.0516659 C139.117225,48.6599469 138.907313,50.5950386 137.947489,51.5053934 C137.758408,51.6855841 137.968319,52.3295701 138.075679,52.7385247" id="Fill-12" fill="#231F20"></path>
                <path d="M22.6016184,49.6907958 C23.289758,48.6983739 24.2862621,47.9153918 25.3866363,46.7860286 C25.2421919,48.8868696 25.1302069,50.5108327 25.016599,52.1718504 C25.2649135,52.1605729 25.4953754,52.1815168 25.5051132,52.1444621 C26.0342017,50.1273969 26.7158494,48.1280536 26.9885085,46.0739337 C27.126461,45.0396239 25.9952504,44.6610214 25.0506814,45.345728 C24.3398201,45.8596608 23.6727791,46.4718691 23.1031164,47.1388539 C21.8193465,48.6435974 20.5875116,50.1950621 19.3702835,51.7561932 C17.7002466,53.8989222 16.0172258,56.0368179 14.4250915,58.2375456 C13.115354,60.0483933 11.9094867,61.9365725 10.6955045,63.8134742 C9.43932513,65.7532078 8.2285889,67.7203297 7,69.676174 C7.0665418,69.784116 7.13308361,69.892058 7.19800244,70 C7.5891384,69.7857271 8.11822689,69.6681187 8.3454428,69.3410706 C9.61298301,67.5205565 10.8026206,65.6468769 12.0295865,63.7973635 C13.3523078,61.8012422 14.6360777,59.7777328 16.0269637,57.8299438 C18.0540542,54.9912306 20.6069873,52.5665636 22.6016184,49.6907958" id="Fill-14" fill="#231F20"></path>
                <g id="Group-18" transform="translate(0.000000, 75.000000)">
                    <mask id="mask-4" fill="white">
                        <use xlink:href="#path-3"></use>
                    </mask>
                    <g id="Clip-17"></g>
                    <path d="M4.52666667,0.1561875 C4.3,0.4259375 4.04166667,0.6778125 3.85333333,0.9703125 C3.325,1.7958125 2.97166667,2.7821875 2.28666667,3.4451875 C0.606666667,5.0734375 0.328333333,7.1501875 0.0183333333,9.2399375 C-0.0416666667,9.6461875 0.06,10.0768125 0.0866666667,10.4960625 C0.215,10.5691875 0.343333333,10.6423125 0.473333333,10.7170625 C0.906666667,10.2393125 1.42333333,9.8070625 1.73166667,9.2610625 C1.84666667,9.0579375 1.47666667,8.5931875 1.34166667,8.2779375 C2.42166667,5.6909375 3.535,3.0243125 4.65,0.3576875 C4.60833333,0.2910625 4.56833333,0.2228125 4.52666667,0.1561875" id="Fill-16" fill="#231F20" mask="url(#mask-4)"></path>
                </g>
                <path d="M6,71.8539398 C6.166,71.9026265 6.334,71.9513133 6.5,72 C6.92,71.4042281 7.338,70.8071749 7.904,70 C5.738,70.3292761 6.338,71.2338245 6,71.8539398" id="Fill-19" fill="#231F20"></path>
                <path d="M5.24260556,75 C5.76460556,74.1767835 6.12660556,73.6091037 6.49860556,73.0220161 C4.93460556,72.9136556 4.74860556,73.1497845 5.24260556,75" id="Fill-21" fill="#231F20"></path>
                <path d="M53.5885714,70.0404959 C53.4838095,70.0504959 53.3847619,70.1444959 53.287619,70.2644959 C53.192381,70.3824959 53.0971429,70.5244959 53,70.6264959 L53,70.6264959 C53.0666667,70.6684959 53.1371429,70.7184959 53.2057143,70.7724959 C53.3104762,70.8524959 53.4152381,70.9364959 53.5180952,70.9984959 C53.5847619,71.0384959 53.6514286,71.0684959 53.7161905,71.0804959 C53.7466667,71.0864959 53.7790476,71.0884959 53.8095238,71.0824959 C54.5504762,70.9684959 55.2704762,70.7124959 56,70.5124959 C55.9809524,70.3464959 55.9638095,70.1784959 55.9447619,70.0124959 C55.1580952,70.0124959 54.3695238,69.9704959 53.5885714,70.0404959" id="Fill-23" fill="#231F20"></path>
            </g>
        </g>
    </g>
</svg>