<svg xmlns="http://www.w3.org/2000/svg" viewBox="0 0 40.06 128.1"><defs><style>.cls-1{isolation:isolate;}.cls-2{fill:#63cbe3;}.cls-3{fill:#c5496c;mix-blend-mode:multiply;}.cls-4{fill:#231f20;}.cls-5{fill:#78496b;}</style></defs><title>Asset 1</title><g class="cls-1"><g id="Layer_2" data-name="Layer 2"><g id="Layer_1-2" data-name="Layer 1"><path class="cls-2" d="M39.05,42.41c-1.16-7.81-9.63-1.4-18-2.9l-3.21-.58c-.27.55-.54,1.09-.78,1.6C12,51,1.62,47.56,1.06,45.17a5.73,5.73,0,0,1,.37-3.43s0,0,0,0C0,45.45,1.1,48.2,6.21,48.1c6.14-.12,9.14-1.94,17.46-.88C27.75,47.74,40.17,50,39.05,42.41Z"/><path class="cls-3" d="M17.88,38.93A48.54,48.54,0,0,1,24,29.2C28.87,23.29,39.21,17,36.06,8,33.51.68,18.17-1.8,11.1,1.32,5.67,3.71-2.6,12.81,3.42,17.64c5.8,4.66,5.09-4,10-7.75,5.6-4.32,14-2.14,13.59,4.5-.28,4.25-13.23,15.32-16.09,17.36-3.68,2.64-8,6.37-9.48,10C3.4,36.79,8,37.19,17.88,38.93Z"/><path class="cls-2" d="M1.06,45.17C1.62,47.56,12,51,17.1,40.53c.24-.51.51-1.05.78-1.6C8,37.19,3.4,36.79,1.43,41.74A5.73,5.73,0,0,0,1.06,45.17Z"/><path class="cls-4" d="M11,60.23,3.78,73.1h7.14v3H0V73.44L7.11,60.57H.23v-3H11Z"/><path class="cls-4" d="M26.53,57.57,24.45,76.1H21.61l-1.8-10.58L18,76.1H15.17L13.09,57.57h3.07l1.12,11.31,1.33-7.74H21l1.33,7.74,1.12-11.31Z"/><path class="cls-4" d="M32.51,60.57v4.51h6.35v3H32.51v5h6.75v3H29.33V57.57h9.93v3Z"/><path class="cls-4" d="M7.06,86.59V99.1H10.5v3H.44v-3H3.88V86.59H.44v-3H10.5v3Z"/><path class="cls-4" d="M17.2,85.34V91.7h7.17v1.75H17.2v6.88h7.59v1.77H15.33V83.57h9.46v1.77Z"/><path class="cls-4" d="M33.5,93.92H31.15v8.18H29.27V83.57H34c3.65,0,5.5,2.4,5.5,5.16a4.9,4.9,0,0,1-4,5l4.58,8.34H37.85Zm-2.35-1.78H34a3.24,3.24,0,0,0,3.6-3.41c0-2-1.28-3.39-3.6-3.39H31.15Z"/><path class="cls-4" d="M3.6,126.33h7.24v1.77H1.72V109.57H3.6Z"/><path class="cls-4" d="M17.2,111.34v6.36h7.17v1.75H17.2v6.88h7.59v1.77H15.33V109.57h9.46v1.77Z"/><path class="cls-4" d="M35.82,111.37v15h3.75v1.77H30.19v-1.77h3.75v-15H30.19V109.6h9.38v1.77Z"/><path class="cls-5" d="M1.06,45.17C1.62,47.56,12,51,17.1,40.53c.24-.51.51-1.05.78-1.6C8,37.19,3.4,36.79,1.43,41.74A5.73,5.73,0,0,0,1.06,45.17Z"/></g></g></g></svg>