<?xml version="1.0" encoding="UTF-8"?>
<svg width="115px" height="365px" viewBox="0 0 115 365" version="1.1" xmlns="http://www.w3.org/2000/svg" xmlns:xlink="http://www.w3.org/1999/xlink">
    <!-- Generator: Sketch 47.1 (45422) - http://www.bohemiancoding.com/sketch -->
    <title>Page 1</title>
    <desc>Created with Sketch.</desc>
    <defs>
        <polygon id="path-1" points="0 0.335505263 0 52.9997158 30.9202455 52.9997158 30.9202455 0.335505263 7.63869712e-20 0.335505263"></polygon>
        <polygon id="path-3" points="31.3451667 52.9997158 31.3451667 0.335505263 0.777466667 0.335505263 0.777466667 52.9997158 31.3451667 52.9997158"></polygon>
        <polygon id="path-5" points="0.391509091 53 27.0515091 53 27.0515091 0.336357895 0.391509091 0.336357895"></polygon>
    </defs>
    <g id="Page-1" stroke="none" stroke-width="1" fill="none" fill-rule="evenodd">
        <g id="Desktop-HD-Copy-5" transform="translate(-662.000000, -334.000000)">
            <g id="Page-1" transform="translate(662.000000, 334.000000)">
                <path d="M110.79683,120.070982 C107.502264,98.246199 83.3810269,116.168908 59.664136,111.967749 C56.4350624,111.394736 53.4280944,110.863652 50.5264841,110.357724 C49.751962,111.897869 49.00022,113.404472 48.2940381,114.830015 C33.7546643,144.098369 4.2231629,134.466171 2.62855864,127.808046 C1.88535916,124.716575 2.36658795,121.482549 3.69352649,118.214981 C3.67928895,118.251318 3.66220391,118.276475 3.64511886,118.312812 C-0.449597078,128.571131 2.73961144,136.277449 17.2903753,135.99234 C34.774072,135.654123 43.3279849,130.555711 67.0107056,133.518604 C78.6199942,134.969303 113.991734,141.241692 110.79683,120.070982" id="Fill-1" fill="#63CAE2"></path>
                <path d="M51.3559662,110.986377 C55.346379,102.938543 60.4230073,93.4681567 68.8440359,83.2508581 C82.7561699,66.3826227 112.326958,48.3655114 103.325662,22.7281882 C96.0308669,1.94864312 52.1906371,-5.1213626 31.989887,3.75605588 C16.4427128,10.5837429 -7.1967669,36.5061469 10.0140321,50.2955089 C26.6045448,63.5831285 24.5864707,38.9749473 38.5900754,28.1960394 C54.597462,15.8776947 78.6714279,22.0867562 77.4165631,41.0132756 C76.6133353,53.1434668 39.6191217,84.684815 31.4382038,90.5204205 C20.9133472,98.0323016 8.47332111,108.67152 4.3428437,119 C9.96829667,104.871392 23.2058336,106.020268 51.3559662,110.986377" id="Fill-3" fill="#C4486C"></path>
                <path d="M3.34794357,127.9327 C4.93719532,134.643975 34.317106,144.346175 48.7790136,114.856556 C49.4815705,113.423053 50.2294537,111.90506 51,110.353271 C23.1045241,105.447253 9.98257387,104.312279 4.40744474,118.267112 C3.08731762,121.559383 2.60855907,124.820674 3.34794357,127.9327" id="Fill-5" fill="#63CAE2"></path>
                <g id="Group-9" transform="translate(0.000000, 163.000000)">
                    <mask id="mask-2" fill="white">
                        <use xlink:href="#path-1"></use>
                    </mask>
                    <g id="Clip-8"></g>
                    <polygon id="Fill-7" fill="#231F20" mask="url(#mask-2)" points="30.9202455 7.88982105 10.6490636 44.4819263 30.7737 44.4819263 30.7737 52.9997158 -0.000845454545 52.9997158 -0.000845454545 45.4454 20.0505182 8.85329474 0.661427273 8.85329474 0.661427273 0.335505263 30.9202455 0.335505263"></polygon>
                </g>
                <polygon id="Fill-10" fill="#231F20" points="75 164 69.1079795 217 61.0795717 217 55.998587 186.735942 50.9204283 217 42.8920205 217 37 164 45.6896706 164 48.8546888 196.354884 52.610322 174.211009 59.389678 174.211009 63.1453112 196.354884 66.3103294 164"></polygon>
                <polygon id="Fill-12" fill="#231F20" points="92.9667674 172.572099 92.9667674 185.468861 110.894663 185.468861 110.894663 194.040961 92.9667674 194.040961 92.9667674 208.427901 112 208.427901 112 217 84 217 84 164 112 164 112 172.572099"></polygon>
                <polygon id="Fill-14" fill="#231F20" points="20.083499 246.584144 20.083499 282.415856 30 282.415856 30 291 1 291 1 282.415856 10.916501 282.415856 10.916501 246.584144 1 246.584144 1 238 30 238 30 246.584144"></polygon>
                <polygon id="Fill-16" fill="#231F20" points="49.354334 243.068322 49.354334 261.256503 69.8098309 261.256503 69.8098309 266.250459 49.354334 266.250459 49.354334 285.928818 71 285.928818 71 291 44 291 44 238 71 238 71 243.068322"></polygon>
                <g id="Group-20" transform="translate(83.000000, 237.000000)">
                    <mask id="mask-4" fill="white">
                        <use xlink:href="#path-3"></use>
                    </mask>
                    <g id="Clip-19"></g>
                    <path d="M6.0928,24.7037158 L14.1423,24.7037158 C20.7128,24.7037158 24.3309667,20.7787684 24.3309667,15.0007684 C24.3309667,9.29666316 20.7128,5.37171579 14.1423,5.37171579 L6.0928,5.37171579 L6.0928,24.7037158 Z M12.7398,29.7399263 L6.0928,29.7399263 L6.0928,52.9997158 L0.777466667,52.9997158 L0.777466667,0.335505263 L14.1423,0.335505263 C24.4783,0.335505263 29.7228,7.14803158 29.7228,15.0007684 C29.7228,21.7422421 25.8808,27.7419263 18.3498,29.2965579 L31.3463,52.9997158 L25.0704667,52.9997158 L12.7398,29.7399263 Z" id="Fill-18" fill="#231F20" mask="url(#mask-4)"></path>
                </g>
                <polygon id="Fill-21" fill="#231F20" points="10.3499233 359.931678 31 359.931678 31 365 5 365 5 312 10.3499233 312"></polygon>
                <g id="Group-25" transform="translate(45.000000, 311.000000)">
                    <mask id="mask-6" fill="white">
                        <use xlink:href="#path-5"></use>
                    </mask>
                    <g id="Clip-24"></g>
                    <polygon id="Fill-23" fill="#231F20" mask="url(#mask-6)" points="5.67841818 5.37256842 5.67841818 23.4455158 25.8763273 23.4455158 25.8763273 28.4078316 5.67841818 28.4078316 5.67841818 47.9615158 27.0515091 47.9615158 27.0515091 53.0005684 0.391509091 53.0005684 0.391509091 0.336357895 27.0515091 0.336357895 27.0515091 5.37256842"></polygon>
                </g>
                <polygon id="Fill-26" fill="#231F20" points="103.200576 317.075717 103.200576 359.924283 114 359.924283 114 365 87 365 87 359.924283 97.7994245 359.924283 97.7994245 317.075717 87 317.075717 87 312 114 312 114 317.075717"></polygon>
                <path d="M3.34794357,127.9327 C4.93719532,134.643975 34.317106,144.346175 48.7790136,114.856556 C49.4815705,113.423053 50.2294537,111.90506 51,110.353271 C23.1045241,105.447253 9.98257387,104.312279 4.40744474,118.267112 C3.08731762,121.559383 2.60855907,124.820674 3.34794357,127.9327" id="Fill-28" fill="#78486B"></path>
            </g>
        </g>
    </g>
</svg>